%TF.GenerationSoftware,KiCad,Pcbnew,9.0.2*%
%TF.CreationDate,2025-12-18T22:35:33+05:30*%
%TF.ProjectId,ULN2803 Relay Card_Module,554c4e32-3830-4332-9052-656c61792043,rev?*%
%TF.SameCoordinates,Original*%
%TF.FileFunction,Copper,L2,Bot*%
%TF.FilePolarity,Positive*%
%FSLAX46Y46*%
G04 Gerber Fmt 4.6, Leading zero omitted, Abs format (unit mm)*
G04 Created by KiCad (PCBNEW 9.0.2) date 2025-12-18 22:35:33*
%MOMM*%
%LPD*%
G01*
G04 APERTURE LIST*
G04 Aperture macros list*
%AMRoundRect*
0 Rectangle with rounded corners*
0 $1 Rounding radius*
0 $2 $3 $4 $5 $6 $7 $8 $9 X,Y pos of 4 corners*
0 Add a 4 corners polygon primitive as box body*
4,1,4,$2,$3,$4,$5,$6,$7,$8,$9,$2,$3,0*
0 Add four circle primitives for the rounded corners*
1,1,$1+$1,$2,$3*
1,1,$1+$1,$4,$5*
1,1,$1+$1,$6,$7*
1,1,$1+$1,$8,$9*
0 Add four rect primitives between the rounded corners*
20,1,$1+$1,$2,$3,$4,$5,0*
20,1,$1+$1,$4,$5,$6,$7,0*
20,1,$1+$1,$6,$7,$8,$9,0*
20,1,$1+$1,$8,$9,$2,$3,0*%
G04 Aperture macros list end*
%TA.AperFunction,ComponentPad*%
%ADD10C,0.800000*%
%TD*%
%TA.AperFunction,ComponentPad*%
%ADD11C,5.000000*%
%TD*%
%TA.AperFunction,ComponentPad*%
%ADD12R,2.500000X2.500000*%
%TD*%
%TA.AperFunction,ComponentPad*%
%ADD13O,2.500000X2.500000*%
%TD*%
%TA.AperFunction,ComponentPad*%
%ADD14RoundRect,0.250001X-1.099999X1.099999X-1.099999X-1.099999X1.099999X-1.099999X1.099999X1.099999X0*%
%TD*%
%TA.AperFunction,ComponentPad*%
%ADD15C,2.700000*%
%TD*%
%TA.AperFunction,ComponentPad*%
%ADD16R,1.700000X1.700000*%
%TD*%
%TA.AperFunction,ComponentPad*%
%ADD17C,1.700000*%
%TD*%
%TA.AperFunction,ComponentPad*%
%ADD18RoundRect,0.250001X1.099999X-1.099999X1.099999X1.099999X-1.099999X1.099999X-1.099999X-1.099999X0*%
%TD*%
%TA.AperFunction,ComponentPad*%
%ADD19RoundRect,0.250000X0.950000X0.550000X-0.950000X0.550000X-0.950000X-0.550000X0.950000X-0.550000X0*%
%TD*%
%TA.AperFunction,ComponentPad*%
%ADD20O,2.400000X1.600000*%
%TD*%
%TA.AperFunction,ComponentPad*%
%ADD21RoundRect,0.250001X-1.099999X-1.099999X1.099999X-1.099999X1.099999X1.099999X-1.099999X1.099999X0*%
%TD*%
%TA.AperFunction,ViaPad*%
%ADD22C,0.600000*%
%TD*%
%TA.AperFunction,Conductor*%
%ADD23C,0.500000*%
%TD*%
%TA.AperFunction,Conductor*%
%ADD24C,2.000000*%
%TD*%
G04 APERTURE END LIST*
D10*
%TO.P,H1,1,1*%
%TO.N,GND*%
X46336675Y-46013325D03*
X46885850Y-44687500D03*
X46885850Y-47339150D03*
X48211675Y-44138325D03*
D11*
X48211675Y-46013325D03*
D10*
X48211675Y-47888325D03*
X49537500Y-44687500D03*
X49537500Y-47339150D03*
X50086675Y-46013325D03*
%TD*%
D12*
%TO.P,K2,1*%
%TO.N,Net-(J7-Pin_2)*%
X119157500Y-92932500D03*
D13*
%TO.P,K2,2*%
%TO.N,/O2*%
X121157500Y-98932500D03*
%TO.P,K2,3*%
%TO.N,Net-(J7-Pin_1)*%
X133357500Y-98932500D03*
%TO.P,K2,4*%
%TO.N,Net-(J7-Pin_3)*%
X133357500Y-86932500D03*
%TO.P,K2,5*%
%TO.N,VCC*%
X121157500Y-86932500D03*
%TD*%
D14*
%TO.P,J3,1,Pin_1*%
%TO.N,Net-(J3-Pin_1)*%
X51442500Y-87885000D03*
D15*
%TO.P,J3,2,Pin_2*%
%TO.N,Net-(J3-Pin_2)*%
X51442500Y-92885000D03*
%TO.P,J3,3,Pin_3*%
%TO.N,Net-(J3-Pin_3)*%
X51442500Y-97885000D03*
%TD*%
D14*
%TO.P,J5,1,Pin_1*%
%TO.N,Net-(J5-Pin_1)*%
X51438750Y-70167500D03*
D15*
%TO.P,J5,2,Pin_2*%
%TO.N,Net-(J5-Pin_2)*%
X51438750Y-75167500D03*
%TO.P,J5,3,Pin_3*%
%TO.N,Net-(J5-Pin_3)*%
X51438750Y-80167500D03*
%TD*%
D12*
%TO.P,K5,1*%
%TO.N,Net-(J9-Pin_2)*%
X78342500Y-57387500D03*
D13*
%TO.P,K5,2*%
%TO.N,/O5*%
X76342500Y-51387500D03*
%TO.P,K5,3*%
%TO.N,Net-(J9-Pin_1)*%
X64142500Y-51387500D03*
%TO.P,K5,4*%
%TO.N,Net-(J9-Pin_3)*%
X64142500Y-63387500D03*
%TO.P,K5,5*%
%TO.N,VCC*%
X76342500Y-63387500D03*
%TD*%
D10*
%TO.P,H4,1,1*%
%TO.N,GND*%
X148048325Y-123483325D03*
X148597500Y-122157500D03*
X148597500Y-124809150D03*
X149923325Y-121608325D03*
D11*
X149923325Y-123483325D03*
D10*
X149923325Y-125358325D03*
X151249150Y-122157500D03*
X151249150Y-124809150D03*
X151798325Y-123483325D03*
%TD*%
D12*
%TO.P,K1,1*%
%TO.N,Net-(J6-Pin_2)*%
X119157500Y-110982500D03*
D13*
%TO.P,K1,2*%
%TO.N,/O1*%
X121157500Y-116982500D03*
%TO.P,K1,3*%
%TO.N,Net-(J6-Pin_1)*%
X133357500Y-116982500D03*
%TO.P,K1,4*%
%TO.N,Net-(J6-Pin_3)*%
X133357500Y-104982500D03*
%TO.P,K1,5*%
%TO.N,VCC*%
X121157500Y-104982500D03*
%TD*%
D16*
%TO.P,J2,1,Pin_1*%
%TO.N,Net-(J2-Pin_1)*%
X106687500Y-45957500D03*
D17*
%TO.P,J2,2,Pin_2*%
%TO.N,Net-(J2-Pin_2)*%
X104147500Y-45957500D03*
%TO.P,J2,3,Pin_3*%
%TO.N,Net-(J2-Pin_3)*%
X101607500Y-45957500D03*
%TO.P,J2,4,Pin_4*%
%TO.N,Net-(J2-Pin_4)*%
X99067500Y-45957500D03*
%TO.P,J2,5,Pin_5*%
%TO.N,Net-(J2-Pin_5)*%
X96527500Y-45957500D03*
%TO.P,J2,6,Pin_6*%
%TO.N,Net-(J2-Pin_6)*%
X93987500Y-45957500D03*
%TO.P,J2,7,Pin_7*%
%TO.N,Net-(J2-Pin_7)*%
X91447500Y-45957500D03*
%TO.P,J2,8,Pin_8*%
%TO.N,Net-(J2-Pin_8)*%
X88907500Y-45957500D03*
%TD*%
D12*
%TO.P,K4,1*%
%TO.N,Net-(J4-Pin_2)*%
X119157500Y-56832500D03*
D13*
%TO.P,K4,2*%
%TO.N,/O4*%
X121157500Y-62832500D03*
%TO.P,K4,3*%
%TO.N,Net-(J4-Pin_1)*%
X133357500Y-62832500D03*
%TO.P,K4,4*%
%TO.N,Net-(J4-Pin_3)*%
X133357500Y-50832500D03*
%TO.P,K4,5*%
%TO.N,VCC*%
X121157500Y-50832500D03*
%TD*%
D18*
%TO.P,J4,1,Pin_1*%
%TO.N,Net-(J4-Pin_1)*%
X146057500Y-61610000D03*
D15*
%TO.P,J4,2,Pin_2*%
%TO.N,Net-(J4-Pin_2)*%
X146057500Y-56610000D03*
%TO.P,J4,3,Pin_3*%
%TO.N,Net-(J4-Pin_3)*%
X146057500Y-51610000D03*
%TD*%
D10*
%TO.P,H2,1,1*%
%TO.N,GND*%
X147936675Y-45292500D03*
X148485850Y-43966675D03*
X148485850Y-46618325D03*
X149811675Y-43417500D03*
D11*
X149811675Y-45292500D03*
D10*
X149811675Y-47167500D03*
X151137500Y-43966675D03*
X151137500Y-46618325D03*
X151686675Y-45292500D03*
%TD*%
D18*
%TO.P,J7,1,Pin_1*%
%TO.N,Net-(J7-Pin_1)*%
X146057500Y-97710000D03*
D15*
%TO.P,J7,2,Pin_2*%
%TO.N,Net-(J7-Pin_2)*%
X146057500Y-92710000D03*
%TO.P,J7,3,Pin_3*%
%TO.N,Net-(J7-Pin_3)*%
X146057500Y-87710000D03*
%TD*%
D14*
%TO.P,J10,1,Pin_1*%
%TO.N,Net-(J10-Pin_1)*%
X51585000Y-105950000D03*
D15*
%TO.P,J10,2,Pin_2*%
%TO.N,Net-(J10-Pin_2)*%
X51585000Y-110950000D03*
%TO.P,J10,3,Pin_3*%
%TO.N,Net-(J10-Pin_3)*%
X51585000Y-115950000D03*
%TD*%
D12*
%TO.P,K7,1*%
%TO.N,Net-(J3-Pin_2)*%
X78342500Y-92662500D03*
D13*
%TO.P,K7,2*%
%TO.N,/O7*%
X76342500Y-86662500D03*
%TO.P,K7,3*%
%TO.N,Net-(J3-Pin_1)*%
X64142500Y-86662500D03*
%TO.P,K7,4*%
%TO.N,Net-(J3-Pin_3)*%
X64142500Y-98662500D03*
%TO.P,K7,5*%
%TO.N,VCC*%
X76342500Y-98662500D03*
%TD*%
D10*
%TO.P,H3,1,1*%
%TO.N,GND*%
X46338750Y-122157500D03*
X46887925Y-120831675D03*
X46887925Y-123483325D03*
X48213750Y-120282500D03*
D11*
X48213750Y-122157500D03*
D10*
X48213750Y-124032500D03*
X49539575Y-120831675D03*
X49539575Y-123483325D03*
X50088750Y-122157500D03*
%TD*%
D12*
%TO.P,K8,1*%
%TO.N,Net-(J5-Pin_2)*%
X78338750Y-74945000D03*
D13*
%TO.P,K8,2*%
%TO.N,/O8*%
X76338750Y-68945000D03*
%TO.P,K8,3*%
%TO.N,Net-(J5-Pin_1)*%
X64138750Y-68945000D03*
%TO.P,K8,4*%
%TO.N,Net-(J5-Pin_3)*%
X64138750Y-80945000D03*
%TO.P,K8,5*%
%TO.N,VCC*%
X76338750Y-80945000D03*
%TD*%
D12*
%TO.P,K3,1*%
%TO.N,Net-(J8-Pin_2)*%
X119157500Y-74882500D03*
D13*
%TO.P,K3,2*%
%TO.N,/O3*%
X121157500Y-80882500D03*
%TO.P,K3,3*%
%TO.N,Net-(J8-Pin_1)*%
X133357500Y-80882500D03*
%TO.P,K3,4*%
%TO.N,Net-(J8-Pin_3)*%
X133357500Y-68882500D03*
%TO.P,K3,5*%
%TO.N,VCC*%
X121157500Y-68882500D03*
%TD*%
D19*
%TO.P,U1,1,I1*%
%TO.N,Net-(U1-I1)*%
X98432500Y-96122500D03*
D20*
%TO.P,U1,2,I2*%
%TO.N,Net-(U1-I2)*%
X98432500Y-93582500D03*
%TO.P,U1,3,I3*%
%TO.N,Net-(U1-I3)*%
X98432500Y-91042500D03*
%TO.P,U1,4,I4*%
%TO.N,Net-(U1-I4)*%
X98432500Y-88502500D03*
%TO.P,U1,5,I5*%
%TO.N,Net-(U1-I5)*%
X98432500Y-85962500D03*
%TO.P,U1,6,I6*%
%TO.N,Net-(U1-I6)*%
X98432500Y-83422500D03*
%TO.P,U1,7,I7*%
%TO.N,Net-(U1-I7)*%
X98432500Y-80882500D03*
%TO.P,U1,8,I8*%
%TO.N,Net-(U1-I8)*%
X98432500Y-78342500D03*
%TO.P,U1,9,GND*%
%TO.N,GND*%
X98432500Y-75802500D03*
%TO.P,U1,10,COM*%
%TO.N,VCC*%
X90812500Y-75802500D03*
%TO.P,U1,11,O8*%
%TO.N,/O8*%
X90812500Y-78342500D03*
%TO.P,U1,12,O7*%
%TO.N,/O7*%
X90812500Y-80882500D03*
%TO.P,U1,13,O6*%
%TO.N,/O6*%
X90812500Y-83422500D03*
%TO.P,U1,14,O5*%
%TO.N,/O5*%
X90812500Y-85962500D03*
%TO.P,U1,15,O4*%
%TO.N,/O4*%
X90812500Y-88502500D03*
%TO.P,U1,16,O3*%
%TO.N,/O3*%
X90812500Y-91042500D03*
%TO.P,U1,17,O2*%
%TO.N,/O2*%
X90812500Y-93582500D03*
%TO.P,U1,18,O1*%
%TO.N,/O1*%
X90812500Y-96122500D03*
%TD*%
D12*
%TO.P,K6,1*%
%TO.N,Net-(J10-Pin_2)*%
X78485000Y-110727500D03*
D13*
%TO.P,K6,2*%
%TO.N,/O6*%
X76485000Y-104727500D03*
%TO.P,K6,3*%
%TO.N,Net-(J10-Pin_1)*%
X64285000Y-104727500D03*
%TO.P,K6,4*%
%TO.N,Net-(J10-Pin_3)*%
X64285000Y-116727500D03*
%TO.P,K6,5*%
%TO.N,VCC*%
X76485000Y-116727500D03*
%TD*%
D21*
%TO.P,J1,1,Pin_1*%
%TO.N,Net-(J1-Pin_1)*%
X96790000Y-118982500D03*
D15*
%TO.P,J1,2,Pin_2*%
%TO.N,GND*%
X101790000Y-118982500D03*
%TD*%
D18*
%TO.P,J6,1,Pin_1*%
%TO.N,Net-(J6-Pin_1)*%
X146057500Y-116037500D03*
D15*
%TO.P,J6,2,Pin_2*%
%TO.N,Net-(J6-Pin_2)*%
X146057500Y-111037500D03*
%TO.P,J6,3,Pin_3*%
%TO.N,Net-(J6-Pin_3)*%
X146057500Y-106037500D03*
%TD*%
D18*
%TO.P,J8,1,Pin_1*%
%TO.N,Net-(J8-Pin_1)*%
X146057500Y-79660000D03*
D15*
%TO.P,J8,2,Pin_2*%
%TO.N,Net-(J8-Pin_2)*%
X146057500Y-74660000D03*
%TO.P,J8,3,Pin_3*%
%TO.N,Net-(J8-Pin_3)*%
X146057500Y-69660000D03*
%TD*%
D14*
%TO.P,J9,1,Pin_1*%
%TO.N,Net-(J9-Pin_1)*%
X51442500Y-52847500D03*
D15*
%TO.P,J9,2,Pin_2*%
%TO.N,Net-(J9-Pin_2)*%
X51442500Y-57847500D03*
%TO.P,J9,3,Pin_3*%
%TO.N,Net-(J9-Pin_3)*%
X51442500Y-62847500D03*
%TD*%
D22*
%TO.N,GND*%
X109505000Y-78342500D03*
X100337500Y-108187500D03*
X109505000Y-80882500D03*
X109505000Y-93582500D03*
X92082500Y-72627500D03*
X109505000Y-83422500D03*
X109505000Y-85962500D03*
X109505000Y-91042500D03*
X109505000Y-88502500D03*
X109505000Y-96122500D03*
%TO.N,Net-(J2-Pin_6)*%
X105104500Y-83422500D03*
%TO.N,Net-(J2-Pin_7)*%
X104354500Y-80882500D03*
%TO.N,Net-(J2-Pin_4)*%
X105417500Y-88502500D03*
%TO.N,Net-(J2-Pin_5)*%
X105140000Y-85962500D03*
%TO.N,Net-(J2-Pin_2)*%
X105140000Y-93582500D03*
%TO.N,Net-(J2-Pin_3)*%
X105140000Y-91042500D03*
%TO.N,Net-(J2-Pin_8)*%
X103702500Y-78342500D03*
%TO.N,Net-(J2-Pin_1)*%
X105140000Y-96122500D03*
%TD*%
D23*
%TO.N,GND*%
X98432500Y-75802500D02*
X95257500Y-75802500D01*
X95257500Y-75802500D02*
X92082500Y-72627500D01*
%TO.N,Net-(J1-Pin_1)*%
X96790000Y-112895000D02*
X95257500Y-111362500D01*
X96790000Y-118982500D02*
X96790000Y-112895000D01*
%TO.N,Net-(J2-Pin_6)*%
X93987500Y-45957500D02*
X105153500Y-57123500D01*
X105153500Y-57123500D02*
X105153500Y-83422500D01*
%TO.N,Net-(J2-Pin_7)*%
X91447500Y-45957500D02*
X104452500Y-58962500D01*
X104452500Y-58962500D02*
X104452500Y-80882500D01*
%TO.N,Net-(J2-Pin_4)*%
X99067500Y-45957500D02*
X106555500Y-53445500D01*
X105417500Y-88502500D02*
X105417500Y-88370500D01*
X106555500Y-53445500D02*
X106555500Y-87232500D01*
X105417500Y-88370500D02*
X106555500Y-87232500D01*
%TO.N,Net-(J2-Pin_5)*%
X105140000Y-85962500D02*
X105219500Y-85962500D01*
X105854500Y-55284500D02*
X105854500Y-85327500D01*
X96527500Y-45957500D02*
X105854500Y-55284500D01*
X105219500Y-85962500D02*
X105854500Y-85327500D01*
%TO.N,Net-(J2-Pin_2)*%
X104147500Y-45957500D02*
X107957500Y-49767500D01*
X105140000Y-93582500D02*
X106687500Y-93582500D01*
X106687500Y-93582500D02*
X107957500Y-92312500D01*
X107957500Y-49767500D02*
X107957500Y-92312500D01*
%TO.N,Net-(J2-Pin_3)*%
X107256500Y-51606500D02*
X107256500Y-89203500D01*
X107256500Y-89203500D02*
X105417500Y-91042500D01*
X101607500Y-45957500D02*
X107256500Y-51606500D01*
X105417500Y-91042500D02*
X105140000Y-91042500D01*
%TO.N,Net-(J2-Pin_8)*%
X88907500Y-45957500D02*
X103751500Y-60801500D01*
X103751500Y-78342500D02*
X103702500Y-78342500D01*
X103751500Y-60801500D02*
X103751500Y-78342500D01*
%TO.N,Net-(J2-Pin_1)*%
X108658500Y-93794000D02*
X108658500Y-47016000D01*
X105140000Y-96122500D02*
X106330000Y-96122500D01*
X105060000Y-96122500D02*
X105140000Y-96122500D01*
X108658500Y-47016000D02*
X107600000Y-45957500D01*
X106330000Y-96122500D02*
X108658500Y-93794000D01*
X107600000Y-45957500D02*
X106687500Y-45957500D01*
D24*
%TO.N,Net-(J3-Pin_1)*%
X62920000Y-87885000D02*
X64142500Y-86662500D01*
X51442500Y-87885000D02*
X62920000Y-87885000D01*
%TO.N,Net-(J3-Pin_3)*%
X51442500Y-97885000D02*
X63365000Y-97885000D01*
X63365000Y-97885000D02*
X64142500Y-98662500D01*
%TO.N,Net-(J3-Pin_2)*%
X78120000Y-92885000D02*
X78342500Y-92662500D01*
X51442500Y-92885000D02*
X78120000Y-92885000D01*
%TO.N,Net-(J4-Pin_2)*%
X146057500Y-56610000D02*
X119380000Y-56610000D01*
X119380000Y-56610000D02*
X119157500Y-56832500D01*
%TO.N,Net-(J4-Pin_3)*%
X134135000Y-51610000D02*
X133357500Y-50832500D01*
X146057500Y-51610000D02*
X134135000Y-51610000D01*
%TO.N,Net-(J4-Pin_1)*%
X146057500Y-61610000D02*
X134580000Y-61610000D01*
X134580000Y-61610000D02*
X133357500Y-62832500D01*
%TO.N,Net-(J5-Pin_1)*%
X62916250Y-70167500D02*
X64138750Y-68945000D01*
X51438750Y-70167500D02*
X62916250Y-70167500D01*
%TO.N,Net-(J5-Pin_2)*%
X78116250Y-75167500D02*
X78338750Y-74945000D01*
X51438750Y-75167500D02*
X78116250Y-75167500D01*
%TO.N,Net-(J5-Pin_3)*%
X51438750Y-80167500D02*
X63361250Y-80167500D01*
X63361250Y-80167500D02*
X64138750Y-80945000D01*
%TO.N,Net-(J6-Pin_1)*%
X146057500Y-116037500D02*
X134302500Y-116037500D01*
X134302500Y-116037500D02*
X133357500Y-116982500D01*
%TO.N,Net-(J6-Pin_2)*%
X119212500Y-111037500D02*
X119157500Y-110982500D01*
X146057500Y-111037500D02*
X119212500Y-111037500D01*
%TO.N,Net-(J6-Pin_3)*%
X146057500Y-106037500D02*
X134412500Y-106037500D01*
X134412500Y-106037500D02*
X133357500Y-104982500D01*
%TO.N,Net-(J7-Pin_2)*%
X146057500Y-92710000D02*
X119380000Y-92710000D01*
X119380000Y-92710000D02*
X119157500Y-92932500D01*
%TO.N,Net-(J7-Pin_3)*%
X146057500Y-87710000D02*
X134135000Y-87710000D01*
X134135000Y-87710000D02*
X133357500Y-86932500D01*
%TO.N,Net-(J7-Pin_1)*%
X134580000Y-97710000D02*
X133357500Y-98932500D01*
X146057500Y-97710000D02*
X134580000Y-97710000D01*
%TO.N,Net-(J8-Pin_3)*%
X146057500Y-69660000D02*
X134135000Y-69660000D01*
X134135000Y-69660000D02*
X133357500Y-68882500D01*
%TO.N,Net-(J8-Pin_2)*%
X146057500Y-74660000D02*
X119380000Y-74660000D01*
X119380000Y-74660000D02*
X119157500Y-74882500D01*
%TO.N,Net-(J8-Pin_1)*%
X146057500Y-79660000D02*
X134580000Y-79660000D01*
X134580000Y-79660000D02*
X133357500Y-80882500D01*
%TO.N,Net-(J9-Pin_3)*%
X51442500Y-62847500D02*
X63602500Y-62847500D01*
X63602500Y-62847500D02*
X64142500Y-63387500D01*
%TO.N,Net-(J9-Pin_2)*%
X51442500Y-57847500D02*
X77882500Y-57847500D01*
X77882500Y-57847500D02*
X78342500Y-57387500D01*
%TO.N,Net-(J9-Pin_1)*%
X62682500Y-52847500D02*
X64142500Y-51387500D01*
X51442500Y-52847500D02*
X62682500Y-52847500D01*
%TO.N,Net-(J10-Pin_3)*%
X63507500Y-115950000D02*
X64285000Y-116727500D01*
X51585000Y-115950000D02*
X63507500Y-115950000D01*
%TO.N,Net-(J10-Pin_2)*%
X51585000Y-110950000D02*
X78262500Y-110950000D01*
X78262500Y-110950000D02*
X78485000Y-110727500D01*
%TO.N,Net-(J10-Pin_1)*%
X63062500Y-105950000D02*
X64285000Y-104727500D01*
X51585000Y-105950000D02*
X63062500Y-105950000D01*
%TD*%
%TA.AperFunction,Conductor*%
%TO.N,GND*%
G36*
X149870202Y-41378118D02*
G01*
X149883319Y-41378690D01*
X150261242Y-41395190D01*
X150271977Y-41396130D01*
X150657359Y-41446866D01*
X150667993Y-41448741D01*
X151047490Y-41532874D01*
X151057916Y-41535668D01*
X151428635Y-41652555D01*
X151438770Y-41656244D01*
X151797887Y-41804995D01*
X151807678Y-41809561D01*
X152152442Y-41989034D01*
X152161809Y-41994441D01*
X152431934Y-42166530D01*
X152489630Y-42203286D01*
X152498491Y-42209491D01*
X152806853Y-42446105D01*
X152815140Y-42453059D01*
X153101704Y-42715646D01*
X153109353Y-42723295D01*
X153371940Y-43009859D01*
X153378894Y-43018146D01*
X153615508Y-43326508D01*
X153621713Y-43335369D01*
X153830557Y-43663189D01*
X153835965Y-43672557D01*
X154015435Y-44017314D01*
X154020007Y-44027118D01*
X154168749Y-44386214D01*
X154172449Y-44396379D01*
X154289328Y-44767072D01*
X154292128Y-44777521D01*
X154376256Y-45156998D01*
X154378134Y-45167651D01*
X154428867Y-45552999D01*
X154429810Y-45563776D01*
X154446882Y-45954797D01*
X154447000Y-45960206D01*
X154447000Y-122154793D01*
X154446882Y-122160202D01*
X154429810Y-122551223D01*
X154428867Y-122562000D01*
X154378134Y-122947348D01*
X154376256Y-122958001D01*
X154292128Y-123337478D01*
X154289328Y-123347927D01*
X154172449Y-123718620D01*
X154168749Y-123728785D01*
X154020007Y-124087881D01*
X154015435Y-124097685D01*
X153835965Y-124442442D01*
X153830557Y-124451810D01*
X153621713Y-124779630D01*
X153615508Y-124788491D01*
X153378894Y-125096853D01*
X153371940Y-125105140D01*
X153109353Y-125391704D01*
X153101704Y-125399353D01*
X152815140Y-125661940D01*
X152806853Y-125668894D01*
X152498491Y-125905508D01*
X152489630Y-125911713D01*
X152161810Y-126120557D01*
X152152442Y-126125965D01*
X151807685Y-126305435D01*
X151797881Y-126310007D01*
X151438785Y-126458749D01*
X151428620Y-126462449D01*
X151057927Y-126579328D01*
X151047478Y-126582128D01*
X150668001Y-126666256D01*
X150657348Y-126668134D01*
X150272000Y-126718867D01*
X150261223Y-126719810D01*
X149870203Y-126736882D01*
X149864794Y-126737000D01*
X48270206Y-126737000D01*
X48264797Y-126736882D01*
X47873776Y-126719810D01*
X47863001Y-126718867D01*
X47774292Y-126707188D01*
X47477651Y-126668134D01*
X47466998Y-126666256D01*
X47087521Y-126582128D01*
X47077072Y-126579328D01*
X46706379Y-126462449D01*
X46696214Y-126458749D01*
X46337118Y-126310007D01*
X46327314Y-126305435D01*
X45982557Y-126125965D01*
X45973189Y-126120557D01*
X45645369Y-125911713D01*
X45636508Y-125905508D01*
X45328146Y-125668894D01*
X45319859Y-125661940D01*
X45033295Y-125399353D01*
X45025646Y-125391704D01*
X44763059Y-125105140D01*
X44756105Y-125096853D01*
X44519491Y-124788491D01*
X44513286Y-124779630D01*
X44304442Y-124451810D01*
X44299034Y-124442442D01*
X44119564Y-124097685D01*
X44114992Y-124087881D01*
X43966244Y-123728770D01*
X43962555Y-123718635D01*
X43845668Y-123347916D01*
X43842874Y-123337490D01*
X43758741Y-122957993D01*
X43756865Y-122947348D01*
X43706130Y-122561977D01*
X43705190Y-122551242D01*
X43688118Y-122160201D01*
X43688000Y-122154793D01*
X43688000Y-115828709D01*
X49734500Y-115828709D01*
X49734500Y-116071288D01*
X49766161Y-116311785D01*
X49828947Y-116546104D01*
X49867949Y-116640262D01*
X49921776Y-116770212D01*
X50043064Y-116980289D01*
X50043066Y-116980292D01*
X50043067Y-116980293D01*
X50190733Y-117172736D01*
X50190739Y-117172743D01*
X50362256Y-117344260D01*
X50362263Y-117344266D01*
X50475321Y-117431018D01*
X50554711Y-117491936D01*
X50764788Y-117613224D01*
X50988900Y-117706054D01*
X51223211Y-117768838D01*
X51403586Y-117792584D01*
X51463711Y-117800500D01*
X51463712Y-117800500D01*
X51706289Y-117800500D01*
X51754388Y-117794167D01*
X51946789Y-117768838D01*
X52181100Y-117706054D01*
X52405212Y-117613224D01*
X52615289Y-117491936D01*
X52635896Y-117476124D01*
X52701065Y-117450930D01*
X52711382Y-117450500D01*
X62609530Y-117450500D01*
X62676569Y-117470185D01*
X62716916Y-117512499D01*
X62826389Y-117702112D01*
X62826392Y-117702117D01*
X62966081Y-117884161D01*
X62966089Y-117884170D01*
X63128330Y-118046411D01*
X63128338Y-118046418D01*
X63310382Y-118186107D01*
X63310385Y-118186108D01*
X63310388Y-118186111D01*
X63509112Y-118300844D01*
X63509117Y-118300846D01*
X63509123Y-118300849D01*
X63560819Y-118322262D01*
X63721113Y-118388658D01*
X63942762Y-118448048D01*
X64170266Y-118478000D01*
X64170273Y-118478000D01*
X64399727Y-118478000D01*
X64399734Y-118478000D01*
X64627238Y-118448048D01*
X64848887Y-118388658D01*
X65060888Y-118300844D01*
X65259612Y-118186111D01*
X65441661Y-118046419D01*
X65441665Y-118046414D01*
X65441670Y-118046411D01*
X65603911Y-117884170D01*
X65603914Y-117884165D01*
X65603919Y-117884161D01*
X65743611Y-117702112D01*
X65858344Y-117503388D01*
X65946158Y-117291387D01*
X66005548Y-117069738D01*
X66035500Y-116842234D01*
X66035500Y-116612766D01*
X66035499Y-116612758D01*
X74734500Y-116612758D01*
X74734500Y-116842241D01*
X74752676Y-116980293D01*
X74764452Y-117069738D01*
X74806569Y-117226921D01*
X74823842Y-117291387D01*
X74911650Y-117503376D01*
X74911657Y-117503390D01*
X75026392Y-117702117D01*
X75166081Y-117884161D01*
X75166089Y-117884170D01*
X75328330Y-118046411D01*
X75328338Y-118046418D01*
X75510382Y-118186107D01*
X75510385Y-118186108D01*
X75510388Y-118186111D01*
X75709112Y-118300844D01*
X75709117Y-118300846D01*
X75709123Y-118300849D01*
X75760819Y-118322262D01*
X75921113Y-118388658D01*
X76142762Y-118448048D01*
X76370266Y-118478000D01*
X76370273Y-118478000D01*
X76599727Y-118478000D01*
X76599734Y-118478000D01*
X76827238Y-118448048D01*
X77048887Y-118388658D01*
X77260888Y-118300844D01*
X77459612Y-118186111D01*
X77641661Y-118046419D01*
X77641665Y-118046414D01*
X77641670Y-118046411D01*
X77803911Y-117884170D01*
X77803914Y-117884165D01*
X77803919Y-117884161D01*
X77943611Y-117702112D01*
X78058344Y-117503388D01*
X78146158Y-117291387D01*
X78205548Y-117069738D01*
X78235500Y-116842234D01*
X78235500Y-116612766D01*
X78205548Y-116385262D01*
X78146158Y-116163613D01*
X78096190Y-116042980D01*
X78058349Y-115951623D01*
X78058346Y-115951617D01*
X78058344Y-115951612D01*
X77943611Y-115752888D01*
X77943608Y-115752885D01*
X77943607Y-115752882D01*
X77803918Y-115570838D01*
X77803911Y-115570830D01*
X77641670Y-115408589D01*
X77641661Y-115408581D01*
X77459617Y-115268892D01*
X77260890Y-115154157D01*
X77260876Y-115154150D01*
X77048887Y-115066342D01*
X76827238Y-115006952D01*
X76789215Y-115001946D01*
X76599741Y-114977000D01*
X76599734Y-114977000D01*
X76370266Y-114977000D01*
X76370258Y-114977000D01*
X76156525Y-115005140D01*
X76142762Y-115006952D01*
X76061839Y-115028635D01*
X75921112Y-115066342D01*
X75709123Y-115154150D01*
X75709109Y-115154157D01*
X75510382Y-115268892D01*
X75328338Y-115408581D01*
X75166081Y-115570838D01*
X75026392Y-115752882D01*
X74911657Y-115951609D01*
X74911650Y-115951623D01*
X74823842Y-116163612D01*
X74764453Y-116385259D01*
X74764451Y-116385270D01*
X74734500Y-116612758D01*
X66035499Y-116612758D01*
X66005548Y-116385262D01*
X65946158Y-116163613D01*
X65896190Y-116042980D01*
X65858349Y-115951623D01*
X65858346Y-115951617D01*
X65858344Y-115951612D01*
X65743611Y-115752888D01*
X65743608Y-115752885D01*
X65743607Y-115752882D01*
X65603918Y-115570838D01*
X65603911Y-115570830D01*
X65441670Y-115408589D01*
X65441661Y-115408581D01*
X65259617Y-115268892D01*
X65060890Y-115154157D01*
X65060876Y-115154150D01*
X64848887Y-115066342D01*
X64740254Y-115037234D01*
X64684667Y-115005140D01*
X64485011Y-114805484D01*
X64293934Y-114666657D01*
X64083496Y-114559433D01*
X63858868Y-114486446D01*
X63625597Y-114449500D01*
X63625592Y-114449500D01*
X52711382Y-114449500D01*
X52644343Y-114429815D01*
X52635896Y-114423876D01*
X52615288Y-114408063D01*
X52405215Y-114286777D01*
X52405205Y-114286773D01*
X52181104Y-114193947D01*
X51946785Y-114131161D01*
X51706289Y-114099500D01*
X51706288Y-114099500D01*
X51463712Y-114099500D01*
X51463711Y-114099500D01*
X51223214Y-114131161D01*
X50988895Y-114193947D01*
X50764794Y-114286773D01*
X50764785Y-114286777D01*
X50554706Y-114408067D01*
X50362263Y-114555733D01*
X50362256Y-114555739D01*
X50190739Y-114727256D01*
X50190733Y-114727263D01*
X50043067Y-114919706D01*
X49921777Y-115129785D01*
X49921773Y-115129794D01*
X49828947Y-115353895D01*
X49766161Y-115588214D01*
X49734500Y-115828709D01*
X43688000Y-115828709D01*
X43688000Y-110828711D01*
X49734500Y-110828711D01*
X49734500Y-111071288D01*
X49766161Y-111311785D01*
X49828947Y-111546104D01*
X49900148Y-111717997D01*
X49921776Y-111770212D01*
X50043064Y-111980289D01*
X50043066Y-111980292D01*
X50043067Y-111980293D01*
X50190733Y-112172736D01*
X50190739Y-112172743D01*
X50362256Y-112344260D01*
X50362262Y-112344265D01*
X50554711Y-112491936D01*
X50764788Y-112613224D01*
X50988900Y-112706054D01*
X51223211Y-112768838D01*
X51403586Y-112792584D01*
X51463711Y-112800500D01*
X51463712Y-112800500D01*
X51706289Y-112800500D01*
X51759064Y-112793552D01*
X51946789Y-112768838D01*
X52181100Y-112706054D01*
X52405212Y-112613224D01*
X52615289Y-112491936D01*
X52635896Y-112476124D01*
X52701065Y-112450930D01*
X52711382Y-112450500D01*
X77048597Y-112450500D01*
X77091930Y-112458318D01*
X77127517Y-112471591D01*
X77127516Y-112471591D01*
X77134444Y-112472335D01*
X77187127Y-112478000D01*
X79782872Y-112477999D01*
X79842483Y-112471591D01*
X79977331Y-112421296D01*
X79977333Y-112421294D01*
X79977338Y-112421292D01*
X80059574Y-112359728D01*
X80092546Y-112335046D01*
X80178796Y-112219831D01*
X80229091Y-112084983D01*
X80235500Y-112025373D01*
X80235500Y-111436419D01*
X94506999Y-111436419D01*
X94535840Y-111581406D01*
X94535842Y-111581412D01*
X94557460Y-111633604D01*
X94592416Y-111717994D01*
X94674548Y-111840916D01*
X94674551Y-111840919D01*
X94674552Y-111840920D01*
X94674552Y-111840921D01*
X96003181Y-113169548D01*
X96036666Y-113230871D01*
X96039500Y-113257229D01*
X96039500Y-117008000D01*
X96019815Y-117075039D01*
X95967011Y-117120794D01*
X95915500Y-117132000D01*
X95639984Y-117132000D01*
X95537204Y-117142500D01*
X95537203Y-117142501D01*
X95370664Y-117197686D01*
X95370662Y-117197687D01*
X95221348Y-117289786D01*
X95221344Y-117289789D01*
X95097289Y-117413844D01*
X95097286Y-117413848D01*
X95005187Y-117563162D01*
X95005186Y-117563164D01*
X94950001Y-117729703D01*
X94950000Y-117729704D01*
X94939500Y-117832484D01*
X94939500Y-120132515D01*
X94950000Y-120235295D01*
X94950001Y-120235296D01*
X95005186Y-120401835D01*
X95005187Y-120401837D01*
X95097286Y-120551151D01*
X95097289Y-120551155D01*
X95221344Y-120675210D01*
X95221348Y-120675213D01*
X95370662Y-120767312D01*
X95370664Y-120767313D01*
X95370666Y-120767314D01*
X95537203Y-120822499D01*
X95639992Y-120833000D01*
X95639997Y-120833000D01*
X97940003Y-120833000D01*
X97940008Y-120833000D01*
X98042797Y-120822499D01*
X98209334Y-120767314D01*
X98358655Y-120675211D01*
X98482711Y-120551155D01*
X98574814Y-120401834D01*
X98629999Y-120235297D01*
X98640500Y-120132508D01*
X98640500Y-118861251D01*
X99940000Y-118861251D01*
X99940000Y-119103748D01*
X99940001Y-119103764D01*
X99971653Y-119344187D01*
X100034421Y-119578439D01*
X100127220Y-119802478D01*
X100127227Y-119802492D01*
X100248481Y-120012510D01*
X100317061Y-120101884D01*
X101035884Y-119383060D01*
X101036740Y-119385126D01*
X101129762Y-119524344D01*
X101248156Y-119642738D01*
X101387374Y-119735760D01*
X101389437Y-119736614D01*
X100670614Y-120455436D01*
X100670614Y-120455437D01*
X100759989Y-120524017D01*
X100759996Y-120524022D01*
X100970007Y-120645272D01*
X100970021Y-120645279D01*
X101194060Y-120738078D01*
X101428312Y-120800846D01*
X101668735Y-120832498D01*
X101668752Y-120832500D01*
X101911248Y-120832500D01*
X101911264Y-120832498D01*
X102151687Y-120800846D01*
X102385939Y-120738078D01*
X102609978Y-120645279D01*
X102609992Y-120645272D01*
X102820016Y-120524015D01*
X102909384Y-120455439D01*
X102909384Y-120455436D01*
X102190562Y-119736614D01*
X102192626Y-119735760D01*
X102331844Y-119642738D01*
X102450238Y-119524344D01*
X102543260Y-119385126D01*
X102544114Y-119383062D01*
X103262936Y-120101884D01*
X103262939Y-120101884D01*
X103331515Y-120012516D01*
X103452772Y-119802492D01*
X103452779Y-119802478D01*
X103545578Y-119578439D01*
X103608346Y-119344187D01*
X103639998Y-119103764D01*
X103640000Y-119103748D01*
X103640000Y-118861251D01*
X103639998Y-118861235D01*
X103608346Y-118620812D01*
X103545578Y-118386560D01*
X103452779Y-118162521D01*
X103452772Y-118162507D01*
X103331522Y-117952496D01*
X103331517Y-117952489D01*
X103262937Y-117863114D01*
X103262936Y-117863114D01*
X102544114Y-118581936D01*
X102543260Y-118579874D01*
X102450238Y-118440656D01*
X102331844Y-118322262D01*
X102192626Y-118229240D01*
X102190560Y-118228384D01*
X102909384Y-117509561D01*
X102820010Y-117440981D01*
X102609992Y-117319727D01*
X102609978Y-117319720D01*
X102385939Y-117226921D01*
X102151687Y-117164153D01*
X101911264Y-117132501D01*
X101911248Y-117132500D01*
X101668752Y-117132500D01*
X101668735Y-117132501D01*
X101428312Y-117164153D01*
X101194060Y-117226921D01*
X100970021Y-117319720D01*
X100970006Y-117319727D01*
X100759990Y-117440980D01*
X100670614Y-117509560D01*
X100670614Y-117509561D01*
X101389438Y-118228385D01*
X101387374Y-118229240D01*
X101248156Y-118322262D01*
X101129762Y-118440656D01*
X101036740Y-118579874D01*
X101035885Y-118581938D01*
X100317061Y-117863114D01*
X100317060Y-117863114D01*
X100248480Y-117952490D01*
X100127227Y-118162506D01*
X100127220Y-118162521D01*
X100034421Y-118386560D01*
X99971653Y-118620812D01*
X99940001Y-118861235D01*
X99940000Y-118861251D01*
X98640500Y-118861251D01*
X98640500Y-117832492D01*
X98629999Y-117729703D01*
X98574814Y-117563166D01*
X98571433Y-117557685D01*
X98482713Y-117413848D01*
X98482710Y-117413844D01*
X98358655Y-117289789D01*
X98358651Y-117289786D01*
X98209337Y-117197687D01*
X98209335Y-117197686D01*
X98108138Y-117164153D01*
X98042797Y-117142501D01*
X98042795Y-117142500D01*
X97940015Y-117132000D01*
X97940008Y-117132000D01*
X97664500Y-117132000D01*
X97655814Y-117129449D01*
X97646853Y-117130738D01*
X97622812Y-117119759D01*
X97597461Y-117112315D01*
X97591533Y-117105474D01*
X97583297Y-117101713D01*
X97569007Y-117079478D01*
X97551706Y-117059511D01*
X97549418Y-117048996D01*
X97545523Y-117042935D01*
X97540500Y-117008000D01*
X97540500Y-116867758D01*
X119407000Y-116867758D01*
X119407000Y-117097241D01*
X119420225Y-117197686D01*
X119436952Y-117324738D01*
X119475924Y-117470185D01*
X119496342Y-117546387D01*
X119584150Y-117758376D01*
X119584153Y-117758381D01*
X119584156Y-117758388D01*
X119696220Y-117952490D01*
X119698892Y-117957117D01*
X119838581Y-118139161D01*
X119838589Y-118139170D01*
X120000830Y-118301411D01*
X120000838Y-118301418D01*
X120182882Y-118441107D01*
X120182885Y-118441108D01*
X120182888Y-118441111D01*
X120381612Y-118555844D01*
X120381617Y-118555846D01*
X120381623Y-118555849D01*
X120439625Y-118579874D01*
X120593613Y-118643658D01*
X120815262Y-118703048D01*
X121042766Y-118733000D01*
X121042773Y-118733000D01*
X121272227Y-118733000D01*
X121272234Y-118733000D01*
X121499738Y-118703048D01*
X121721387Y-118643658D01*
X121933388Y-118555844D01*
X122132112Y-118441111D01*
X122314161Y-118301419D01*
X122314165Y-118301414D01*
X122314170Y-118301411D01*
X122476411Y-118139170D01*
X122476414Y-118139165D01*
X122476419Y-118139161D01*
X122616111Y-117957112D01*
X122730844Y-117758388D01*
X122818658Y-117546387D01*
X122878048Y-117324738D01*
X122908000Y-117097234D01*
X122908000Y-116867766D01*
X122907999Y-116867758D01*
X131607000Y-116867758D01*
X131607000Y-117097241D01*
X131620225Y-117197686D01*
X131636952Y-117324738D01*
X131675924Y-117470185D01*
X131696342Y-117546387D01*
X131784150Y-117758376D01*
X131784153Y-117758381D01*
X131784156Y-117758388D01*
X131896220Y-117952490D01*
X131898892Y-117957117D01*
X132038581Y-118139161D01*
X132038589Y-118139170D01*
X132200830Y-118301411D01*
X132200838Y-118301418D01*
X132382882Y-118441107D01*
X132382885Y-118441108D01*
X132382888Y-118441111D01*
X132581612Y-118555844D01*
X132581617Y-118555846D01*
X132581623Y-118555849D01*
X132639625Y-118579874D01*
X132793613Y-118643658D01*
X133015262Y-118703048D01*
X133242766Y-118733000D01*
X133242773Y-118733000D01*
X133472227Y-118733000D01*
X133472234Y-118733000D01*
X133699738Y-118703048D01*
X133921387Y-118643658D01*
X134133388Y-118555844D01*
X134332112Y-118441111D01*
X134514161Y-118301419D01*
X134514165Y-118301414D01*
X134514170Y-118301411D01*
X134676411Y-118139170D01*
X134676414Y-118139165D01*
X134676419Y-118139161D01*
X134816111Y-117957112D01*
X134930844Y-117758388D01*
X134990425Y-117614546D01*
X135034266Y-117560144D01*
X135100560Y-117538079D01*
X135104986Y-117538000D01*
X144253544Y-117538000D01*
X144320583Y-117557685D01*
X144359083Y-117596904D01*
X144364788Y-117606154D01*
X144488844Y-117730210D01*
X144488848Y-117730213D01*
X144638162Y-117822312D01*
X144638164Y-117822313D01*
X144638166Y-117822314D01*
X144804703Y-117877499D01*
X144907492Y-117888000D01*
X144907497Y-117888000D01*
X147207503Y-117888000D01*
X147207508Y-117888000D01*
X147310297Y-117877499D01*
X147476834Y-117822314D01*
X147626155Y-117730211D01*
X147750211Y-117606155D01*
X147842314Y-117456834D01*
X147897499Y-117290297D01*
X147908000Y-117187508D01*
X147908000Y-114887492D01*
X147897499Y-114784703D01*
X147842314Y-114618166D01*
X147815039Y-114573947D01*
X147750213Y-114468848D01*
X147750210Y-114468844D01*
X147626155Y-114344789D01*
X147626151Y-114344786D01*
X147476837Y-114252687D01*
X147476835Y-114252686D01*
X147393565Y-114225093D01*
X147310297Y-114197501D01*
X147310295Y-114197500D01*
X147207515Y-114187000D01*
X147207508Y-114187000D01*
X144907492Y-114187000D01*
X144907484Y-114187000D01*
X144804704Y-114197500D01*
X144804703Y-114197501D01*
X144638164Y-114252686D01*
X144638162Y-114252687D01*
X144488848Y-114344786D01*
X144488844Y-114344789D01*
X144364788Y-114468845D01*
X144359083Y-114478096D01*
X144307136Y-114524821D01*
X144253544Y-114537000D01*
X134184403Y-114537000D01*
X133951131Y-114573946D01*
X133726503Y-114646933D01*
X133516063Y-114754159D01*
X133324996Y-114892976D01*
X133324991Y-114892980D01*
X132957830Y-115260140D01*
X132902243Y-115292234D01*
X132793613Y-115321342D01*
X132793611Y-115321342D01*
X132793610Y-115321343D01*
X132581618Y-115409153D01*
X132581609Y-115409157D01*
X132382882Y-115523892D01*
X132200838Y-115663581D01*
X132038581Y-115825838D01*
X131898892Y-116007882D01*
X131784157Y-116206609D01*
X131784150Y-116206623D01*
X131710156Y-116385262D01*
X131696342Y-116418613D01*
X131644320Y-116612766D01*
X131636953Y-116640259D01*
X131636951Y-116640270D01*
X131607000Y-116867758D01*
X122907999Y-116867758D01*
X122878048Y-116640262D01*
X122818658Y-116418613D01*
X122730844Y-116206612D01*
X122616111Y-116007888D01*
X122616108Y-116007885D01*
X122616107Y-116007882D01*
X122515264Y-115876462D01*
X122476419Y-115825839D01*
X122476418Y-115825838D01*
X122476411Y-115825830D01*
X122314170Y-115663589D01*
X122314161Y-115663581D01*
X122132117Y-115523892D01*
X121933390Y-115409157D01*
X121933376Y-115409150D01*
X121721387Y-115321342D01*
X121499738Y-115261952D01*
X121461715Y-115256946D01*
X121272241Y-115232000D01*
X121272234Y-115232000D01*
X121042766Y-115232000D01*
X121042758Y-115232000D01*
X120829025Y-115260140D01*
X120815262Y-115261952D01*
X120734339Y-115283635D01*
X120593612Y-115321342D01*
X120381623Y-115409150D01*
X120381609Y-115409157D01*
X120182882Y-115523892D01*
X120000838Y-115663581D01*
X119838581Y-115825838D01*
X119698892Y-116007882D01*
X119584157Y-116206609D01*
X119584150Y-116206623D01*
X119510156Y-116385262D01*
X119496342Y-116418613D01*
X119444320Y-116612766D01*
X119436953Y-116640259D01*
X119436951Y-116640270D01*
X119407000Y-116867758D01*
X97540500Y-116867758D01*
X97540500Y-112821079D01*
X97511659Y-112676092D01*
X97511658Y-112676091D01*
X97511658Y-112676087D01*
X97485620Y-112613226D01*
X97455087Y-112539511D01*
X97455080Y-112539498D01*
X97372952Y-112416585D01*
X97372951Y-112416584D01*
X97268416Y-112312049D01*
X96936656Y-111980289D01*
X95735921Y-110779552D01*
X95735917Y-110779549D01*
X95735916Y-110779548D01*
X95612994Y-110697416D01*
X95612992Y-110697415D01*
X95612990Y-110697414D01*
X95476412Y-110640842D01*
X95476406Y-110640840D01*
X95331419Y-110612000D01*
X95331417Y-110612000D01*
X95183583Y-110612000D01*
X95183581Y-110612000D01*
X95038593Y-110640840D01*
X95038587Y-110640842D01*
X94902009Y-110697414D01*
X94902002Y-110697418D01*
X94839918Y-110738900D01*
X94779084Y-110779548D01*
X94779082Y-110779549D01*
X94779079Y-110779552D01*
X94779078Y-110779552D01*
X94674552Y-110884078D01*
X94674552Y-110884079D01*
X94674549Y-110884082D01*
X94674548Y-110884084D01*
X94633900Y-110944918D01*
X94592418Y-111007002D01*
X94592414Y-111007009D01*
X94535842Y-111143587D01*
X94535840Y-111143593D01*
X94507000Y-111288580D01*
X94507000Y-111288583D01*
X94507000Y-111436417D01*
X94507000Y-111436419D01*
X94506999Y-111436419D01*
X80235500Y-111436419D01*
X80235499Y-110697418D01*
X80235499Y-109684635D01*
X117407000Y-109684635D01*
X117407000Y-112280370D01*
X117407001Y-112280376D01*
X117413408Y-112339983D01*
X117463702Y-112474828D01*
X117463706Y-112474835D01*
X117549952Y-112590044D01*
X117549955Y-112590047D01*
X117665164Y-112676293D01*
X117665171Y-112676297D01*
X117800017Y-112726591D01*
X117800016Y-112726591D01*
X117806944Y-112727335D01*
X117859627Y-112733000D01*
X120455372Y-112732999D01*
X120514983Y-112726591D01*
X120649831Y-112676296D01*
X120765046Y-112590046D01*
X120766808Y-112587691D01*
X120769162Y-112585929D01*
X120771320Y-112583772D01*
X120771630Y-112584082D01*
X120822740Y-112545819D01*
X120866077Y-112538000D01*
X144931118Y-112538000D01*
X144998157Y-112557685D01*
X145006604Y-112563624D01*
X145027211Y-112579436D01*
X145237284Y-112700722D01*
X145237285Y-112700722D01*
X145237288Y-112700724D01*
X145461400Y-112793554D01*
X145695711Y-112856338D01*
X145876086Y-112880084D01*
X145936211Y-112888000D01*
X145936212Y-112888000D01*
X146178789Y-112888000D01*
X146226888Y-112881667D01*
X146419289Y-112856338D01*
X146653600Y-112793554D01*
X146877712Y-112700724D01*
X147087789Y-112579436D01*
X147280238Y-112431765D01*
X147451765Y-112260238D01*
X147599436Y-112067789D01*
X147720724Y-111857712D01*
X147813554Y-111633600D01*
X147876338Y-111399289D01*
X147908000Y-111158788D01*
X147908000Y-110916212D01*
X147876338Y-110675711D01*
X147813554Y-110441400D01*
X147720724Y-110217288D01*
X147599436Y-110007211D01*
X147451765Y-109814762D01*
X147451760Y-109814756D01*
X147280243Y-109643239D01*
X147280236Y-109643233D01*
X147087793Y-109495567D01*
X147087792Y-109495566D01*
X147087789Y-109495564D01*
X146878888Y-109374955D01*
X146877714Y-109374277D01*
X146877705Y-109374273D01*
X146653604Y-109281447D01*
X146469070Y-109232001D01*
X146419289Y-109218662D01*
X146419288Y-109218661D01*
X146419285Y-109218661D01*
X146178789Y-109187000D01*
X146178788Y-109187000D01*
X145936212Y-109187000D01*
X145936211Y-109187000D01*
X145695714Y-109218661D01*
X145461395Y-109281447D01*
X145237294Y-109374273D01*
X145237284Y-109374277D01*
X145027211Y-109495563D01*
X145006604Y-109511376D01*
X144941435Y-109536570D01*
X144931118Y-109537000D01*
X120948423Y-109537000D01*
X120881384Y-109517315D01*
X120849156Y-109487311D01*
X120765046Y-109374954D01*
X120742209Y-109357858D01*
X120649835Y-109288706D01*
X120649828Y-109288702D01*
X120514982Y-109238408D01*
X120514983Y-109238408D01*
X120455383Y-109232001D01*
X120455381Y-109232000D01*
X120455373Y-109232000D01*
X120455364Y-109232000D01*
X117859629Y-109232000D01*
X117859623Y-109232001D01*
X117800016Y-109238408D01*
X117665171Y-109288702D01*
X117665164Y-109288706D01*
X117549955Y-109374952D01*
X117549952Y-109374955D01*
X117463706Y-109490164D01*
X117463702Y-109490171D01*
X117413408Y-109625017D01*
X117407001Y-109684616D01*
X117407000Y-109684635D01*
X80235499Y-109684635D01*
X80235499Y-109681306D01*
X80235499Y-109429629D01*
X80235498Y-109429623D01*
X80234880Y-109423876D01*
X80229622Y-109374954D01*
X80229091Y-109370016D01*
X80178797Y-109235171D01*
X80178793Y-109235164D01*
X80092547Y-109119955D01*
X80092544Y-109119952D01*
X79977335Y-109033706D01*
X79977328Y-109033702D01*
X79842482Y-108983408D01*
X79842483Y-108983408D01*
X79782883Y-108977001D01*
X79782881Y-108977000D01*
X79782873Y-108977000D01*
X79782864Y-108977000D01*
X77187129Y-108977000D01*
X77187123Y-108977001D01*
X77127516Y-108983408D01*
X76992671Y-109033702D01*
X76992664Y-109033706D01*
X76877455Y-109119952D01*
X76877452Y-109119955D01*
X76791206Y-109235164D01*
X76791202Y-109235171D01*
X76741350Y-109368833D01*
X76699479Y-109424767D01*
X76634014Y-109449184D01*
X76625168Y-109449500D01*
X52711382Y-109449500D01*
X52644343Y-109429815D01*
X52635896Y-109423876D01*
X52615288Y-109408063D01*
X52405215Y-109286777D01*
X52405205Y-109286773D01*
X52181104Y-109193947D01*
X51946785Y-109131161D01*
X51706289Y-109099500D01*
X51706288Y-109099500D01*
X51463712Y-109099500D01*
X51463711Y-109099500D01*
X51223214Y-109131161D01*
X50988895Y-109193947D01*
X50764794Y-109286773D01*
X50764785Y-109286777D01*
X50554706Y-109408067D01*
X50362263Y-109555733D01*
X50362256Y-109555739D01*
X50190739Y-109727256D01*
X50190733Y-109727263D01*
X50043067Y-109919706D01*
X49921777Y-110129785D01*
X49921773Y-110129794D01*
X49828947Y-110353895D01*
X49766161Y-110588214D01*
X49734500Y-110828711D01*
X43688000Y-110828711D01*
X43688000Y-104799984D01*
X49734500Y-104799984D01*
X49734500Y-107100015D01*
X49745000Y-107202795D01*
X49745001Y-107202797D01*
X49764035Y-107260238D01*
X49800186Y-107369335D01*
X49800187Y-107369337D01*
X49892286Y-107518651D01*
X49892289Y-107518655D01*
X50016344Y-107642710D01*
X50016348Y-107642713D01*
X50165662Y-107734812D01*
X50165664Y-107734813D01*
X50165666Y-107734814D01*
X50332203Y-107789999D01*
X50434992Y-107800500D01*
X50434997Y-107800500D01*
X52735003Y-107800500D01*
X52735008Y-107800500D01*
X52837797Y-107789999D01*
X53004334Y-107734814D01*
X53153655Y-107642711D01*
X53277711Y-107518655D01*
X53283417Y-107509403D01*
X53335364Y-107462679D01*
X53388956Y-107450500D01*
X63180597Y-107450500D01*
X63413868Y-107413553D01*
X63638492Y-107340568D01*
X63848934Y-107233343D01*
X64040010Y-107094517D01*
X64684669Y-106449856D01*
X64740253Y-106417765D01*
X64848887Y-106388658D01*
X65060888Y-106300844D01*
X65259612Y-106186111D01*
X65441661Y-106046419D01*
X65441665Y-106046414D01*
X65441670Y-106046411D01*
X65603911Y-105884170D01*
X65603914Y-105884165D01*
X65603919Y-105884161D01*
X65743611Y-105702112D01*
X65858344Y-105503388D01*
X65946158Y-105291387D01*
X66005548Y-105069738D01*
X66035500Y-104842234D01*
X66035500Y-104612766D01*
X66035499Y-104612758D01*
X74734500Y-104612758D01*
X74734500Y-104842241D01*
X74756219Y-105007206D01*
X74764452Y-105069738D01*
X74803989Y-105217294D01*
X74823842Y-105291387D01*
X74911650Y-105503376D01*
X74911656Y-105503388D01*
X75011146Y-105675711D01*
X75026392Y-105702117D01*
X75166081Y-105884161D01*
X75166089Y-105884170D01*
X75328330Y-106046411D01*
X75328338Y-106046418D01*
X75510382Y-106186107D01*
X75510385Y-106186108D01*
X75510388Y-106186111D01*
X75709112Y-106300844D01*
X75709117Y-106300846D01*
X75709123Y-106300849D01*
X75800480Y-106338690D01*
X75921113Y-106388658D01*
X76142762Y-106448048D01*
X76370266Y-106478000D01*
X76370273Y-106478000D01*
X76599727Y-106478000D01*
X76599734Y-106478000D01*
X76827238Y-106448048D01*
X77048887Y-106388658D01*
X77260888Y-106300844D01*
X77459612Y-106186111D01*
X77641661Y-106046419D01*
X77641665Y-106046414D01*
X77641670Y-106046411D01*
X77803911Y-105884170D01*
X77803914Y-105884165D01*
X77803919Y-105884161D01*
X77943611Y-105702112D01*
X78058344Y-105503388D01*
X78146158Y-105291387D01*
X78205548Y-105069738D01*
X78232140Y-104867758D01*
X119407000Y-104867758D01*
X119407000Y-105097241D01*
X119422806Y-105217294D01*
X119436952Y-105324738D01*
X119436953Y-105324740D01*
X119496342Y-105546387D01*
X119584150Y-105758376D01*
X119584156Y-105758388D01*
X119675275Y-105916212D01*
X119698892Y-105957117D01*
X119838581Y-106139161D01*
X119838589Y-106139170D01*
X120000830Y-106301411D01*
X120000838Y-106301418D01*
X120182882Y-106441107D01*
X120182885Y-106441108D01*
X120182888Y-106441111D01*
X120381612Y-106555844D01*
X120381617Y-106555846D01*
X120381623Y-106555849D01*
X120472980Y-106593690D01*
X120593613Y-106643658D01*
X120815262Y-106703048D01*
X121042766Y-106733000D01*
X121042773Y-106733000D01*
X121272227Y-106733000D01*
X121272234Y-106733000D01*
X121499738Y-106703048D01*
X121721387Y-106643658D01*
X121933388Y-106555844D01*
X122132112Y-106441111D01*
X122314161Y-106301419D01*
X122314165Y-106301414D01*
X122314170Y-106301411D01*
X122476411Y-106139170D01*
X122476414Y-106139165D01*
X122476419Y-106139161D01*
X122616111Y-105957112D01*
X122730844Y-105758388D01*
X122818658Y-105546387D01*
X122878048Y-105324738D01*
X122908000Y-105097234D01*
X122908000Y-104867766D01*
X122907999Y-104867758D01*
X131607000Y-104867758D01*
X131607000Y-105097241D01*
X131622806Y-105217294D01*
X131636952Y-105324738D01*
X131636953Y-105324740D01*
X131696342Y-105546387D01*
X131784150Y-105758376D01*
X131784156Y-105758388D01*
X131875275Y-105916212D01*
X131898892Y-105957117D01*
X132038581Y-106139161D01*
X132038589Y-106139170D01*
X132200830Y-106301411D01*
X132200838Y-106301418D01*
X132382882Y-106441107D01*
X132382885Y-106441108D01*
X132382888Y-106441111D01*
X132581612Y-106555844D01*
X132581614Y-106555844D01*
X132581618Y-106555847D01*
X132793603Y-106643654D01*
X132793613Y-106643658D01*
X132902245Y-106672765D01*
X132957831Y-106704858D01*
X133434990Y-107182017D01*
X133505634Y-107233343D01*
X133626067Y-107320844D01*
X133691968Y-107354421D01*
X133757870Y-107388000D01*
X133836503Y-107428066D01*
X133836505Y-107428066D01*
X133836508Y-107428068D01*
X133943029Y-107462679D01*
X134061131Y-107501053D01*
X134294403Y-107538000D01*
X134294408Y-107538000D01*
X144931118Y-107538000D01*
X144998157Y-107557685D01*
X145006604Y-107563624D01*
X145027211Y-107579436D01*
X145237284Y-107700722D01*
X145237285Y-107700722D01*
X145237288Y-107700724D01*
X145461400Y-107793554D01*
X145695711Y-107856338D01*
X145876086Y-107880084D01*
X145936211Y-107888000D01*
X145936212Y-107888000D01*
X146178789Y-107888000D01*
X146226888Y-107881667D01*
X146419289Y-107856338D01*
X146653600Y-107793554D01*
X146877712Y-107700724D01*
X147087789Y-107579436D01*
X147280238Y-107431765D01*
X147451765Y-107260238D01*
X147599436Y-107067789D01*
X147720724Y-106857712D01*
X147813554Y-106633600D01*
X147876338Y-106399289D01*
X147908000Y-106158788D01*
X147908000Y-105916212D01*
X147903780Y-105884161D01*
X147900084Y-105856086D01*
X147876338Y-105675711D01*
X147813554Y-105441400D01*
X147720724Y-105217288D01*
X147599436Y-105007211D01*
X147476902Y-104847521D01*
X147451766Y-104814763D01*
X147451760Y-104814756D01*
X147280243Y-104643239D01*
X147280236Y-104643233D01*
X147087793Y-104495567D01*
X147087792Y-104495566D01*
X147087789Y-104495564D01*
X146877712Y-104374276D01*
X146877705Y-104374273D01*
X146653604Y-104281447D01*
X146419285Y-104218661D01*
X146178789Y-104187000D01*
X146178788Y-104187000D01*
X145936212Y-104187000D01*
X145936211Y-104187000D01*
X145695714Y-104218661D01*
X145461395Y-104281447D01*
X145237294Y-104374273D01*
X145237284Y-104374277D01*
X145027211Y-104495563D01*
X145006604Y-104511376D01*
X144941435Y-104536570D01*
X144931118Y-104537000D01*
X135145528Y-104537000D01*
X135078489Y-104517315D01*
X135032734Y-104464511D01*
X135025753Y-104445094D01*
X135018658Y-104418613D01*
X135003221Y-104381344D01*
X134930847Y-104206618D01*
X134930842Y-104206609D01*
X134906927Y-104165187D01*
X134816111Y-104007888D01*
X134816108Y-104007885D01*
X134816107Y-104007882D01*
X134676418Y-103825838D01*
X134676411Y-103825830D01*
X134514170Y-103663589D01*
X134514161Y-103663581D01*
X134332117Y-103523892D01*
X134133390Y-103409157D01*
X134133376Y-103409150D01*
X133921387Y-103321342D01*
X133699738Y-103261952D01*
X133661715Y-103256946D01*
X133472241Y-103232000D01*
X133472234Y-103232000D01*
X133242766Y-103232000D01*
X133242758Y-103232000D01*
X133026215Y-103260509D01*
X133015262Y-103261952D01*
X132921576Y-103287054D01*
X132793612Y-103321342D01*
X132581623Y-103409150D01*
X132581609Y-103409157D01*
X132382882Y-103523892D01*
X132200838Y-103663581D01*
X132038581Y-103825838D01*
X131898892Y-104007882D01*
X131784157Y-104206609D01*
X131784150Y-104206623D01*
X131696342Y-104418612D01*
X131669895Y-104517315D01*
X131644320Y-104612766D01*
X131636953Y-104640259D01*
X131636951Y-104640270D01*
X131607000Y-104867758D01*
X122907999Y-104867758D01*
X122878048Y-104640262D01*
X122818658Y-104418613D01*
X122751834Y-104257286D01*
X122730849Y-104206623D01*
X122730846Y-104206617D01*
X122730844Y-104206612D01*
X122616111Y-104007888D01*
X122616108Y-104007885D01*
X122616107Y-104007882D01*
X122476418Y-103825838D01*
X122476411Y-103825830D01*
X122314170Y-103663589D01*
X122314161Y-103663581D01*
X122132117Y-103523892D01*
X121933390Y-103409157D01*
X121933376Y-103409150D01*
X121721387Y-103321342D01*
X121499738Y-103261952D01*
X121461715Y-103256946D01*
X121272241Y-103232000D01*
X121272234Y-103232000D01*
X121042766Y-103232000D01*
X121042758Y-103232000D01*
X120826215Y-103260509D01*
X120815262Y-103261952D01*
X120721576Y-103287054D01*
X120593612Y-103321342D01*
X120381623Y-103409150D01*
X120381609Y-103409157D01*
X120182882Y-103523892D01*
X120000838Y-103663581D01*
X119838581Y-103825838D01*
X119698892Y-104007882D01*
X119584157Y-104206609D01*
X119584150Y-104206623D01*
X119496342Y-104418612D01*
X119469895Y-104517315D01*
X119444320Y-104612766D01*
X119436953Y-104640259D01*
X119436951Y-104640270D01*
X119407000Y-104867758D01*
X78232140Y-104867758D01*
X78235500Y-104842234D01*
X78235500Y-104612766D01*
X78205548Y-104385262D01*
X78146158Y-104163613D01*
X78096190Y-104042980D01*
X78058349Y-103951623D01*
X78058346Y-103951617D01*
X78058344Y-103951612D01*
X77943611Y-103752888D01*
X77943608Y-103752885D01*
X77943607Y-103752882D01*
X77803918Y-103570838D01*
X77803911Y-103570830D01*
X77641670Y-103408589D01*
X77641661Y-103408581D01*
X77459617Y-103268892D01*
X77260890Y-103154157D01*
X77260876Y-103154150D01*
X77048887Y-103066342D01*
X76827238Y-103006952D01*
X76789215Y-103001946D01*
X76599741Y-102977000D01*
X76599734Y-102977000D01*
X76370266Y-102977000D01*
X76370258Y-102977000D01*
X76153715Y-103005509D01*
X76142762Y-103006952D01*
X76049076Y-103032054D01*
X75921112Y-103066342D01*
X75709123Y-103154150D01*
X75709109Y-103154157D01*
X75510382Y-103268892D01*
X75328338Y-103408581D01*
X75166081Y-103570838D01*
X75026392Y-103752882D01*
X74911657Y-103951609D01*
X74911650Y-103951623D01*
X74823842Y-104163612D01*
X74809092Y-104218661D01*
X74767396Y-104374277D01*
X74764453Y-104385259D01*
X74764451Y-104385270D01*
X74734500Y-104612758D01*
X66035499Y-104612758D01*
X66005548Y-104385262D01*
X65946158Y-104163613D01*
X65896190Y-104042980D01*
X65858349Y-103951623D01*
X65858346Y-103951617D01*
X65858344Y-103951612D01*
X65743611Y-103752888D01*
X65743608Y-103752885D01*
X65743607Y-103752882D01*
X65603918Y-103570838D01*
X65603911Y-103570830D01*
X65441670Y-103408589D01*
X65441661Y-103408581D01*
X65259617Y-103268892D01*
X65060890Y-103154157D01*
X65060876Y-103154150D01*
X64848887Y-103066342D01*
X64627238Y-103006952D01*
X64589215Y-103001946D01*
X64399741Y-102977000D01*
X64399734Y-102977000D01*
X64170266Y-102977000D01*
X64170258Y-102977000D01*
X63953715Y-103005509D01*
X63942762Y-103006952D01*
X63849076Y-103032054D01*
X63721112Y-103066342D01*
X63509123Y-103154150D01*
X63509109Y-103154157D01*
X63310382Y-103268892D01*
X63128338Y-103408581D01*
X62966081Y-103570838D01*
X62826392Y-103752882D01*
X62711657Y-103951609D01*
X62711653Y-103951618D01*
X62646049Y-104110000D01*
X62623842Y-104163613D01*
X62612787Y-104204869D01*
X62594734Y-104272244D01*
X62586716Y-104286130D01*
X62583792Y-104299575D01*
X62562641Y-104327829D01*
X62477292Y-104413180D01*
X62415970Y-104446666D01*
X62389610Y-104449500D01*
X53388956Y-104449500D01*
X53321917Y-104429815D01*
X53283417Y-104390596D01*
X53277711Y-104381345D01*
X53153655Y-104257289D01*
X53153651Y-104257286D01*
X53004337Y-104165187D01*
X53004335Y-104165186D01*
X52921065Y-104137593D01*
X52837797Y-104110001D01*
X52837795Y-104110000D01*
X52735015Y-104099500D01*
X52735008Y-104099500D01*
X50434992Y-104099500D01*
X50434984Y-104099500D01*
X50332204Y-104110000D01*
X50332203Y-104110001D01*
X50165664Y-104165186D01*
X50165662Y-104165187D01*
X50016348Y-104257286D01*
X50016344Y-104257289D01*
X49892289Y-104381344D01*
X49892286Y-104381348D01*
X49800187Y-104530662D01*
X49800186Y-104530664D01*
X49745001Y-104697203D01*
X49745000Y-104697204D01*
X49734500Y-104799984D01*
X43688000Y-104799984D01*
X43688000Y-97763711D01*
X49592000Y-97763711D01*
X49592000Y-98006288D01*
X49623661Y-98246785D01*
X49686447Y-98481104D01*
X49779273Y-98705205D01*
X49779276Y-98705212D01*
X49900564Y-98915289D01*
X49900566Y-98915292D01*
X49900567Y-98915293D01*
X50048233Y-99107736D01*
X50048239Y-99107743D01*
X50219756Y-99279260D01*
X50219762Y-99279265D01*
X50412211Y-99426936D01*
X50622288Y-99548224D01*
X50846400Y-99641054D01*
X51080711Y-99703838D01*
X51261086Y-99727584D01*
X51321211Y-99735500D01*
X51321212Y-99735500D01*
X51563789Y-99735500D01*
X51611888Y-99729167D01*
X51804289Y-99703838D01*
X52038600Y-99641054D01*
X52262712Y-99548224D01*
X52472789Y-99426936D01*
X52493396Y-99411124D01*
X52558565Y-99385930D01*
X52568882Y-99385500D01*
X62467030Y-99385500D01*
X62534069Y-99405185D01*
X62574416Y-99447499D01*
X62639657Y-99560499D01*
X62683892Y-99637117D01*
X62823581Y-99819161D01*
X62823589Y-99819170D01*
X62985830Y-99981411D01*
X62985838Y-99981418D01*
X63167882Y-100121107D01*
X63167885Y-100121108D01*
X63167888Y-100121111D01*
X63366612Y-100235844D01*
X63366617Y-100235846D01*
X63366623Y-100235849D01*
X63404213Y-100251419D01*
X63578613Y-100323658D01*
X63800262Y-100383048D01*
X64027766Y-100413000D01*
X64027773Y-100413000D01*
X64257227Y-100413000D01*
X64257234Y-100413000D01*
X64484738Y-100383048D01*
X64706387Y-100323658D01*
X64918388Y-100235844D01*
X65117112Y-100121111D01*
X65299161Y-99981419D01*
X65299165Y-99981414D01*
X65299170Y-99981411D01*
X65461411Y-99819170D01*
X65461414Y-99819165D01*
X65461419Y-99819161D01*
X65601111Y-99637112D01*
X65715844Y-99438388D01*
X65803658Y-99226387D01*
X65863048Y-99004738D01*
X65893000Y-98777234D01*
X65893000Y-98547766D01*
X65892999Y-98547758D01*
X74592000Y-98547758D01*
X74592000Y-98777241D01*
X74610176Y-98915293D01*
X74621952Y-99004738D01*
X74649552Y-99107743D01*
X74681342Y-99226387D01*
X74769150Y-99438376D01*
X74769157Y-99438390D01*
X74883892Y-99637117D01*
X75023581Y-99819161D01*
X75023589Y-99819170D01*
X75185830Y-99981411D01*
X75185838Y-99981418D01*
X75367882Y-100121107D01*
X75367885Y-100121108D01*
X75367888Y-100121111D01*
X75566612Y-100235844D01*
X75566617Y-100235846D01*
X75566623Y-100235849D01*
X75604213Y-100251419D01*
X75778613Y-100323658D01*
X76000262Y-100383048D01*
X76227766Y-100413000D01*
X76227773Y-100413000D01*
X76457227Y-100413000D01*
X76457234Y-100413000D01*
X76684738Y-100383048D01*
X76906387Y-100323658D01*
X77118388Y-100235844D01*
X77317112Y-100121111D01*
X77499161Y-99981419D01*
X77499165Y-99981414D01*
X77499170Y-99981411D01*
X77661411Y-99819170D01*
X77661414Y-99819165D01*
X77661419Y-99819161D01*
X77801111Y-99637112D01*
X77915844Y-99438388D01*
X78003658Y-99226387D01*
X78063048Y-99004738D01*
X78087665Y-98817758D01*
X119407000Y-98817758D01*
X119407000Y-99047241D01*
X119417809Y-99129337D01*
X119436952Y-99274738D01*
X119480802Y-99438390D01*
X119496342Y-99496387D01*
X119584150Y-99708376D01*
X119584157Y-99708390D01*
X119698892Y-99907117D01*
X119838581Y-100089161D01*
X119838589Y-100089170D01*
X120000830Y-100251411D01*
X120000838Y-100251418D01*
X120182882Y-100391107D01*
X120182885Y-100391108D01*
X120182888Y-100391111D01*
X120381612Y-100505844D01*
X120381617Y-100505846D01*
X120381623Y-100505849D01*
X120472980Y-100543690D01*
X120593613Y-100593658D01*
X120815262Y-100653048D01*
X121042766Y-100683000D01*
X121042773Y-100683000D01*
X121272227Y-100683000D01*
X121272234Y-100683000D01*
X121499738Y-100653048D01*
X121721387Y-100593658D01*
X121933388Y-100505844D01*
X122132112Y-100391111D01*
X122314161Y-100251419D01*
X122314165Y-100251414D01*
X122314170Y-100251411D01*
X122476411Y-100089170D01*
X122476414Y-100089165D01*
X122476419Y-100089161D01*
X122616111Y-99907112D01*
X122730844Y-99708388D01*
X122818658Y-99496387D01*
X122878048Y-99274738D01*
X122908000Y-99047234D01*
X122908000Y-98817766D01*
X122907999Y-98817758D01*
X131607000Y-98817758D01*
X131607000Y-99047241D01*
X131617809Y-99129337D01*
X131636952Y-99274738D01*
X131680802Y-99438390D01*
X131696342Y-99496387D01*
X131784150Y-99708376D01*
X131784157Y-99708390D01*
X131898892Y-99907117D01*
X132038581Y-100089161D01*
X132038589Y-100089170D01*
X132200830Y-100251411D01*
X132200838Y-100251418D01*
X132382882Y-100391107D01*
X132382885Y-100391108D01*
X132382888Y-100391111D01*
X132581612Y-100505844D01*
X132581617Y-100505846D01*
X132581623Y-100505849D01*
X132672980Y-100543690D01*
X132793613Y-100593658D01*
X133015262Y-100653048D01*
X133242766Y-100683000D01*
X133242773Y-100683000D01*
X133472227Y-100683000D01*
X133472234Y-100683000D01*
X133699738Y-100653048D01*
X133921387Y-100593658D01*
X134133388Y-100505844D01*
X134332112Y-100391111D01*
X134514161Y-100251419D01*
X134514165Y-100251414D01*
X134514170Y-100251411D01*
X134676411Y-100089170D01*
X134676414Y-100089165D01*
X134676419Y-100089161D01*
X134816111Y-99907112D01*
X134930844Y-99708388D01*
X135018658Y-99496387D01*
X135047764Y-99387755D01*
X135055782Y-99373868D01*
X135058708Y-99360421D01*
X135079859Y-99332167D01*
X135165210Y-99246818D01*
X135226533Y-99213333D01*
X135252890Y-99210500D01*
X144253544Y-99210500D01*
X144320583Y-99230185D01*
X144359083Y-99269404D01*
X144364788Y-99278654D01*
X144488844Y-99402710D01*
X144488848Y-99402713D01*
X144638162Y-99494812D01*
X144638164Y-99494813D01*
X144638166Y-99494814D01*
X144804703Y-99549999D01*
X144907492Y-99560500D01*
X144907497Y-99560500D01*
X147207503Y-99560500D01*
X147207508Y-99560500D01*
X147310297Y-99549999D01*
X147476834Y-99494814D01*
X147626155Y-99402711D01*
X147750211Y-99278655D01*
X147842314Y-99129334D01*
X147897499Y-98962797D01*
X147908000Y-98860008D01*
X147908000Y-96559992D01*
X147897499Y-96457203D01*
X147842314Y-96290666D01*
X147815039Y-96246447D01*
X147750213Y-96141348D01*
X147750210Y-96141344D01*
X147626155Y-96017289D01*
X147626151Y-96017286D01*
X147476837Y-95925187D01*
X147476835Y-95925186D01*
X147393565Y-95897593D01*
X147310297Y-95870001D01*
X147310295Y-95870000D01*
X147207515Y-95859500D01*
X147207508Y-95859500D01*
X144907492Y-95859500D01*
X144907484Y-95859500D01*
X144804704Y-95870000D01*
X144804703Y-95870001D01*
X144638164Y-95925186D01*
X144638162Y-95925187D01*
X144488848Y-96017286D01*
X144488844Y-96017289D01*
X144364788Y-96141345D01*
X144359083Y-96150596D01*
X144307136Y-96197321D01*
X144253544Y-96209500D01*
X134461903Y-96209500D01*
X134228631Y-96246446D01*
X134004003Y-96319433D01*
X133793565Y-96426657D01*
X133602488Y-96565484D01*
X133602487Y-96565485D01*
X132957831Y-97210140D01*
X132902244Y-97242234D01*
X132793612Y-97271342D01*
X132581618Y-97359153D01*
X132581609Y-97359157D01*
X132382882Y-97473892D01*
X132200838Y-97613581D01*
X132038581Y-97775838D01*
X131898892Y-97957882D01*
X131784157Y-98156609D01*
X131784150Y-98156623D01*
X131696342Y-98368612D01*
X131636953Y-98590259D01*
X131636951Y-98590270D01*
X131607000Y-98817758D01*
X122907999Y-98817758D01*
X122878048Y-98590262D01*
X122818658Y-98368613D01*
X122730844Y-98156612D01*
X122616111Y-97957888D01*
X122616108Y-97957885D01*
X122616107Y-97957882D01*
X122476418Y-97775838D01*
X122476411Y-97775830D01*
X122314170Y-97613589D01*
X122314161Y-97613581D01*
X122132117Y-97473892D01*
X121933390Y-97359157D01*
X121933376Y-97359150D01*
X121721387Y-97271342D01*
X121698502Y-97265210D01*
X121499738Y-97211952D01*
X121461715Y-97206946D01*
X121272241Y-97182000D01*
X121272234Y-97182000D01*
X121042766Y-97182000D01*
X121042758Y-97182000D01*
X120829025Y-97210140D01*
X120815262Y-97211952D01*
X120734339Y-97233635D01*
X120593612Y-97271342D01*
X120381623Y-97359150D01*
X120381609Y-97359157D01*
X120182882Y-97473892D01*
X120000838Y-97613581D01*
X119838581Y-97775838D01*
X119698892Y-97957882D01*
X119584157Y-98156609D01*
X119584150Y-98156623D01*
X119496342Y-98368612D01*
X119436953Y-98590259D01*
X119436951Y-98590270D01*
X119407000Y-98817758D01*
X78087665Y-98817758D01*
X78093000Y-98777234D01*
X78093000Y-98547766D01*
X78063048Y-98320262D01*
X78003658Y-98098613D01*
X77915844Y-97886612D01*
X77801111Y-97687888D01*
X77801108Y-97687885D01*
X77801107Y-97687882D01*
X77661418Y-97505838D01*
X77661411Y-97505830D01*
X77499170Y-97343589D01*
X77499161Y-97343581D01*
X77317117Y-97203892D01*
X77118390Y-97089157D01*
X77118376Y-97089150D01*
X76906387Y-97001342D01*
X76684738Y-96941952D01*
X76646715Y-96936946D01*
X76457241Y-96912000D01*
X76457234Y-96912000D01*
X76227766Y-96912000D01*
X76227758Y-96912000D01*
X76014025Y-96940140D01*
X76000262Y-96941952D01*
X75919339Y-96963635D01*
X75778612Y-97001342D01*
X75566623Y-97089150D01*
X75566609Y-97089157D01*
X75367882Y-97203892D01*
X75185838Y-97343581D01*
X75023581Y-97505838D01*
X74883892Y-97687882D01*
X74769157Y-97886609D01*
X74769150Y-97886623D01*
X74681342Y-98098612D01*
X74621953Y-98320259D01*
X74621951Y-98320270D01*
X74592000Y-98547758D01*
X65892999Y-98547758D01*
X65863048Y-98320262D01*
X65803658Y-98098613D01*
X65715844Y-97886612D01*
X65601111Y-97687888D01*
X65601108Y-97687885D01*
X65601107Y-97687882D01*
X65461418Y-97505838D01*
X65461411Y-97505830D01*
X65299170Y-97343589D01*
X65299161Y-97343581D01*
X65117117Y-97203892D01*
X64918390Y-97089157D01*
X64918376Y-97089150D01*
X64706387Y-97001342D01*
X64597754Y-96972234D01*
X64542167Y-96940140D01*
X64342512Y-96740485D01*
X64342511Y-96740484D01*
X64342510Y-96740483D01*
X64151434Y-96601657D01*
X64149978Y-96600915D01*
X63940996Y-96494433D01*
X63716368Y-96421446D01*
X63483097Y-96384500D01*
X63483092Y-96384500D01*
X52568882Y-96384500D01*
X52501843Y-96364815D01*
X52493396Y-96358876D01*
X52472788Y-96343063D01*
X52262715Y-96221777D01*
X52262705Y-96221773D01*
X52038604Y-96128947D01*
X51804285Y-96066161D01*
X51563789Y-96034500D01*
X51563788Y-96034500D01*
X51321212Y-96034500D01*
X51321211Y-96034500D01*
X51080714Y-96066161D01*
X50846395Y-96128947D01*
X50622294Y-96221773D01*
X50622285Y-96221777D01*
X50412206Y-96343067D01*
X50219763Y-96490733D01*
X50219756Y-96490739D01*
X50048239Y-96662256D01*
X50048233Y-96662263D01*
X49900567Y-96854706D01*
X49779277Y-97064785D01*
X49779273Y-97064794D01*
X49686447Y-97288895D01*
X49623661Y-97523214D01*
X49592000Y-97763711D01*
X43688000Y-97763711D01*
X43688000Y-92763711D01*
X49592000Y-92763711D01*
X49592000Y-93006288D01*
X49617938Y-93203314D01*
X49623662Y-93246789D01*
X49639556Y-93306104D01*
X49686447Y-93481104D01*
X49779273Y-93705205D01*
X49779276Y-93705212D01*
X49900564Y-93915289D01*
X49900566Y-93915292D01*
X49900567Y-93915293D01*
X50048233Y-94107736D01*
X50048239Y-94107743D01*
X50219756Y-94279260D01*
X50219762Y-94279265D01*
X50412211Y-94426936D01*
X50622288Y-94548224D01*
X50846400Y-94641054D01*
X51080711Y-94703838D01*
X51261086Y-94727584D01*
X51321211Y-94735500D01*
X51321212Y-94735500D01*
X51563789Y-94735500D01*
X51611888Y-94729167D01*
X51804289Y-94703838D01*
X52038600Y-94641054D01*
X52262712Y-94548224D01*
X52472789Y-94426936D01*
X52493396Y-94411124D01*
X52558565Y-94385930D01*
X52568882Y-94385500D01*
X76906097Y-94385500D01*
X76949430Y-94393318D01*
X76985017Y-94406591D01*
X76985016Y-94406591D01*
X76991944Y-94407335D01*
X77044627Y-94413000D01*
X79640372Y-94412999D01*
X79699983Y-94406591D01*
X79834831Y-94356296D01*
X79950046Y-94270046D01*
X80036296Y-94154831D01*
X80086591Y-94019983D01*
X80093000Y-93960373D01*
X80092999Y-91364628D01*
X80086591Y-91305017D01*
X80086149Y-91303833D01*
X80036297Y-91170171D01*
X80036293Y-91170164D01*
X79950047Y-91054955D01*
X79950044Y-91054952D01*
X79834835Y-90968706D01*
X79834828Y-90968702D01*
X79699982Y-90918408D01*
X79699983Y-90918408D01*
X79640383Y-90912001D01*
X79640381Y-90912000D01*
X79640373Y-90912000D01*
X79640364Y-90912000D01*
X77044629Y-90912000D01*
X77044623Y-90912001D01*
X76985016Y-90918408D01*
X76850171Y-90968702D01*
X76850164Y-90968706D01*
X76734955Y-91054952D01*
X76734952Y-91054955D01*
X76648706Y-91170164D01*
X76648702Y-91170171D01*
X76598850Y-91303833D01*
X76556979Y-91359767D01*
X76491514Y-91384184D01*
X76482668Y-91384500D01*
X52568882Y-91384500D01*
X52501843Y-91364815D01*
X52493396Y-91358876D01*
X52472788Y-91343063D01*
X52262715Y-91221777D01*
X52262705Y-91221773D01*
X52038604Y-91128947D01*
X51804285Y-91066161D01*
X51563789Y-91034500D01*
X51563788Y-91034500D01*
X51321212Y-91034500D01*
X51321211Y-91034500D01*
X51080714Y-91066161D01*
X50846395Y-91128947D01*
X50622294Y-91221773D01*
X50622285Y-91221777D01*
X50412206Y-91343067D01*
X50219763Y-91490733D01*
X50219756Y-91490739D01*
X50048239Y-91662256D01*
X50048233Y-91662263D01*
X49900567Y-91854706D01*
X49779277Y-92064785D01*
X49779273Y-92064794D01*
X49686447Y-92288895D01*
X49623661Y-92523214D01*
X49592000Y-92763711D01*
X43688000Y-92763711D01*
X43688000Y-86734984D01*
X49592000Y-86734984D01*
X49592000Y-89035015D01*
X49602500Y-89137795D01*
X49602501Y-89137797D01*
X49617848Y-89184110D01*
X49657686Y-89304335D01*
X49657687Y-89304337D01*
X49749786Y-89453651D01*
X49749789Y-89453655D01*
X49873844Y-89577710D01*
X49873848Y-89577713D01*
X50023162Y-89669812D01*
X50023164Y-89669813D01*
X50023166Y-89669814D01*
X50189703Y-89724999D01*
X50292492Y-89735500D01*
X50292497Y-89735500D01*
X52592503Y-89735500D01*
X52592508Y-89735500D01*
X52695297Y-89724999D01*
X52861834Y-89669814D01*
X53011155Y-89577711D01*
X53135211Y-89453655D01*
X53140917Y-89444403D01*
X53192864Y-89397679D01*
X53246456Y-89385500D01*
X63038097Y-89385500D01*
X63271368Y-89348553D01*
X63495992Y-89275568D01*
X63502530Y-89272237D01*
X63503717Y-89271631D01*
X63706434Y-89168343D01*
X63897510Y-89029517D01*
X64542169Y-88384856D01*
X64597753Y-88352765D01*
X64706387Y-88323658D01*
X64918388Y-88235844D01*
X65117112Y-88121111D01*
X65299161Y-87981419D01*
X65299165Y-87981414D01*
X65299170Y-87981411D01*
X65461411Y-87819170D01*
X65461414Y-87819165D01*
X65461419Y-87819161D01*
X65601111Y-87637112D01*
X65715844Y-87438388D01*
X65803658Y-87226387D01*
X65863048Y-87004738D01*
X65893000Y-86777234D01*
X65893000Y-86547766D01*
X65892999Y-86547758D01*
X74592000Y-86547758D01*
X74592000Y-86777241D01*
X74615333Y-86954466D01*
X74621952Y-87004738D01*
X74666231Y-87169990D01*
X74681342Y-87226387D01*
X74769150Y-87438376D01*
X74769157Y-87438390D01*
X74883892Y-87637117D01*
X75023581Y-87819161D01*
X75023589Y-87819170D01*
X75185830Y-87981411D01*
X75185838Y-87981418D01*
X75185839Y-87981419D01*
X75214330Y-88003281D01*
X75367882Y-88121107D01*
X75367885Y-88121108D01*
X75367888Y-88121111D01*
X75566612Y-88235844D01*
X75566617Y-88235846D01*
X75566623Y-88235849D01*
X75646684Y-88269011D01*
X75778613Y-88323658D01*
X76000262Y-88383048D01*
X76227766Y-88413000D01*
X76227773Y-88413000D01*
X76457227Y-88413000D01*
X76457234Y-88413000D01*
X76684738Y-88383048D01*
X76906387Y-88323658D01*
X77118388Y-88235844D01*
X77317112Y-88121111D01*
X77499161Y-87981419D01*
X77499165Y-87981414D01*
X77499170Y-87981411D01*
X77661411Y-87819170D01*
X77661414Y-87819165D01*
X77661419Y-87819161D01*
X77801111Y-87637112D01*
X77915844Y-87438388D01*
X78003658Y-87226387D01*
X78063048Y-87004738D01*
X78093000Y-86777234D01*
X78093000Y-86547766D01*
X78063048Y-86320262D01*
X78003658Y-86098613D01*
X77917729Y-85891162D01*
X77915849Y-85886623D01*
X77915846Y-85886617D01*
X77915844Y-85886612D01*
X77801111Y-85687888D01*
X77801108Y-85687885D01*
X77801107Y-85687882D01*
X77661418Y-85505838D01*
X77661411Y-85505830D01*
X77499170Y-85343589D01*
X77499161Y-85343581D01*
X77317117Y-85203892D01*
X77296739Y-85192127D01*
X77118388Y-85089156D01*
X77118376Y-85089150D01*
X76906387Y-85001342D01*
X76881628Y-84994708D01*
X76684738Y-84941952D01*
X76646715Y-84936946D01*
X76457241Y-84912000D01*
X76457234Y-84912000D01*
X76227766Y-84912000D01*
X76227758Y-84912000D01*
X76011215Y-84940509D01*
X76000262Y-84941952D01*
X75913241Y-84965269D01*
X75778612Y-85001342D01*
X75566623Y-85089150D01*
X75566609Y-85089157D01*
X75367882Y-85203892D01*
X75185838Y-85343581D01*
X75023581Y-85505838D01*
X74883892Y-85687882D01*
X74769157Y-85886609D01*
X74769150Y-85886623D01*
X74681342Y-86098612D01*
X74621953Y-86320259D01*
X74621951Y-86320270D01*
X74592000Y-86547758D01*
X65892999Y-86547758D01*
X65863048Y-86320262D01*
X65803658Y-86098613D01*
X65717729Y-85891162D01*
X65715849Y-85886623D01*
X65715846Y-85886617D01*
X65715844Y-85886612D01*
X65601111Y-85687888D01*
X65601108Y-85687885D01*
X65601107Y-85687882D01*
X65461418Y-85505838D01*
X65461411Y-85505830D01*
X65299170Y-85343589D01*
X65299161Y-85343581D01*
X65117117Y-85203892D01*
X65096739Y-85192127D01*
X64918388Y-85089156D01*
X64918376Y-85089150D01*
X64706387Y-85001342D01*
X64681628Y-84994708D01*
X64484738Y-84941952D01*
X64446715Y-84936946D01*
X64257241Y-84912000D01*
X64257234Y-84912000D01*
X64027766Y-84912000D01*
X64027758Y-84912000D01*
X63811215Y-84940509D01*
X63800262Y-84941952D01*
X63713241Y-84965269D01*
X63578612Y-85001342D01*
X63366623Y-85089150D01*
X63366609Y-85089157D01*
X63167882Y-85203892D01*
X62985838Y-85343581D01*
X62823581Y-85505838D01*
X62683892Y-85687882D01*
X62569157Y-85886609D01*
X62569153Y-85886618D01*
X62481343Y-86098610D01*
X62452234Y-86207244D01*
X62444216Y-86221130D01*
X62441292Y-86234575D01*
X62420141Y-86262829D01*
X62334792Y-86348180D01*
X62273470Y-86381666D01*
X62247110Y-86384500D01*
X53246456Y-86384500D01*
X53179417Y-86364815D01*
X53140917Y-86325596D01*
X53135211Y-86316345D01*
X53011155Y-86192289D01*
X53011151Y-86192286D01*
X52861837Y-86100187D01*
X52861835Y-86100186D01*
X52755200Y-86064851D01*
X52695297Y-86045001D01*
X52695295Y-86045000D01*
X52592515Y-86034500D01*
X52592508Y-86034500D01*
X50292492Y-86034500D01*
X50292484Y-86034500D01*
X50189704Y-86045000D01*
X50189703Y-86045001D01*
X50023164Y-86100186D01*
X50023162Y-86100187D01*
X49873848Y-86192286D01*
X49873844Y-86192289D01*
X49749789Y-86316344D01*
X49749786Y-86316348D01*
X49657687Y-86465662D01*
X49657686Y-86465664D01*
X49602501Y-86632203D01*
X49602500Y-86632204D01*
X49592000Y-86734984D01*
X43688000Y-86734984D01*
X43688000Y-80046211D01*
X49588250Y-80046211D01*
X49588250Y-80288788D01*
X49619911Y-80529285D01*
X49682697Y-80763604D01*
X49775523Y-80987705D01*
X49775527Y-80987714D01*
X49797724Y-81026161D01*
X49896814Y-81197789D01*
X49896816Y-81197792D01*
X49896817Y-81197793D01*
X50044483Y-81390236D01*
X50044489Y-81390243D01*
X50216006Y-81561760D01*
X50216012Y-81561765D01*
X50408461Y-81709436D01*
X50618538Y-81830724D01*
X50842650Y-81923554D01*
X51076961Y-81986338D01*
X51257336Y-82010084D01*
X51317461Y-82018000D01*
X51317462Y-82018000D01*
X51560039Y-82018000D01*
X51608138Y-82011667D01*
X51800539Y-81986338D01*
X52034850Y-81923554D01*
X52258962Y-81830724D01*
X52469039Y-81709436D01*
X52489646Y-81693624D01*
X52554815Y-81668430D01*
X52565132Y-81668000D01*
X62463280Y-81668000D01*
X62530319Y-81687685D01*
X62570666Y-81729999D01*
X62628820Y-81830724D01*
X62680142Y-81919617D01*
X62819831Y-82101661D01*
X62819839Y-82101670D01*
X62982080Y-82263911D01*
X62982088Y-82263918D01*
X63164132Y-82403607D01*
X63164135Y-82403608D01*
X63164138Y-82403611D01*
X63362862Y-82518344D01*
X63362867Y-82518346D01*
X63362873Y-82518349D01*
X63423975Y-82543658D01*
X63574863Y-82606158D01*
X63796512Y-82665548D01*
X64024016Y-82695500D01*
X64024023Y-82695500D01*
X64253477Y-82695500D01*
X64253484Y-82695500D01*
X64480988Y-82665548D01*
X64702637Y-82606158D01*
X64914638Y-82518344D01*
X65113362Y-82403611D01*
X65295411Y-82263919D01*
X65295415Y-82263914D01*
X65295420Y-82263911D01*
X65457661Y-82101670D01*
X65457664Y-82101665D01*
X65457669Y-82101661D01*
X65597361Y-81919612D01*
X65712094Y-81720888D01*
X65799908Y-81508887D01*
X65859298Y-81287238D01*
X65889250Y-81059734D01*
X65889250Y-80830266D01*
X65889249Y-80830258D01*
X74588250Y-80830258D01*
X74588250Y-81059741D01*
X74609974Y-81224740D01*
X74618202Y-81287238D01*
X74676359Y-81504286D01*
X74677592Y-81508887D01*
X74765400Y-81720876D01*
X74765407Y-81720890D01*
X74880142Y-81919617D01*
X75019831Y-82101661D01*
X75019839Y-82101670D01*
X75182080Y-82263911D01*
X75182088Y-82263918D01*
X75364132Y-82403607D01*
X75364135Y-82403608D01*
X75364138Y-82403611D01*
X75562862Y-82518344D01*
X75562867Y-82518346D01*
X75562873Y-82518349D01*
X75623975Y-82543658D01*
X75774863Y-82606158D01*
X75996512Y-82665548D01*
X76224016Y-82695500D01*
X76224023Y-82695500D01*
X76453477Y-82695500D01*
X76453484Y-82695500D01*
X76680988Y-82665548D01*
X76902637Y-82606158D01*
X77114638Y-82518344D01*
X77313362Y-82403611D01*
X77495411Y-82263919D01*
X77495415Y-82263914D01*
X77495420Y-82263911D01*
X77657661Y-82101670D01*
X77657664Y-82101665D01*
X77657669Y-82101661D01*
X77797361Y-81919612D01*
X77912094Y-81720888D01*
X77999908Y-81508887D01*
X78059298Y-81287238D01*
X78089250Y-81059734D01*
X78089250Y-80830266D01*
X78059298Y-80602762D01*
X77999908Y-80381113D01*
X77925257Y-80200890D01*
X77912099Y-80169123D01*
X77912096Y-80169117D01*
X77912094Y-80169112D01*
X77797361Y-79970388D01*
X77797358Y-79970385D01*
X77797357Y-79970382D01*
X77657668Y-79788338D01*
X77657661Y-79788330D01*
X77495420Y-79626089D01*
X77495411Y-79626081D01*
X77313367Y-79486392D01*
X77258625Y-79454787D01*
X77205114Y-79423892D01*
X77114640Y-79371657D01*
X77114626Y-79371650D01*
X76902637Y-79283842D01*
X76814951Y-79260347D01*
X76680988Y-79224452D01*
X76642965Y-79219446D01*
X76453491Y-79194500D01*
X76453484Y-79194500D01*
X76224016Y-79194500D01*
X76224008Y-79194500D01*
X76020134Y-79221342D01*
X75996512Y-79224452D01*
X75968977Y-79231830D01*
X75774862Y-79283842D01*
X75562873Y-79371650D01*
X75562859Y-79371657D01*
X75364132Y-79486392D01*
X75182088Y-79626081D01*
X75019831Y-79788338D01*
X74880142Y-79970382D01*
X74765407Y-80169109D01*
X74765400Y-80169123D01*
X74703480Y-80318613D01*
X74677592Y-80381113D01*
X74634947Y-80540270D01*
X74618203Y-80602759D01*
X74618201Y-80602770D01*
X74588250Y-80830258D01*
X65889249Y-80830258D01*
X65859298Y-80602762D01*
X65799908Y-80381113D01*
X65725257Y-80200890D01*
X65712099Y-80169123D01*
X65712096Y-80169117D01*
X65712094Y-80169112D01*
X65597361Y-79970388D01*
X65597358Y-79970385D01*
X65597357Y-79970382D01*
X65457668Y-79788338D01*
X65457661Y-79788330D01*
X65295420Y-79626089D01*
X65295411Y-79626081D01*
X65113367Y-79486392D01*
X65058625Y-79454787D01*
X65005114Y-79423892D01*
X64914640Y-79371657D01*
X64914626Y-79371650D01*
X64702637Y-79283842D01*
X64594004Y-79254734D01*
X64538417Y-79222640D01*
X64338761Y-79022984D01*
X64147684Y-78884157D01*
X63937246Y-78776933D01*
X63712618Y-78703946D01*
X63479347Y-78667000D01*
X63479342Y-78667000D01*
X52565132Y-78667000D01*
X52498093Y-78647315D01*
X52489646Y-78641376D01*
X52469038Y-78625563D01*
X52258965Y-78504277D01*
X52258955Y-78504273D01*
X52034854Y-78411447D01*
X51800535Y-78348661D01*
X51560039Y-78317000D01*
X51560038Y-78317000D01*
X51317462Y-78317000D01*
X51317461Y-78317000D01*
X51076964Y-78348661D01*
X50842645Y-78411447D01*
X50618544Y-78504273D01*
X50618535Y-78504277D01*
X50408456Y-78625567D01*
X50216013Y-78773233D01*
X50216006Y-78773239D01*
X50044489Y-78944756D01*
X50044483Y-78944763D01*
X49896817Y-79137206D01*
X49775527Y-79347285D01*
X49775523Y-79347294D01*
X49682697Y-79571395D01*
X49619911Y-79805714D01*
X49588250Y-80046211D01*
X43688000Y-80046211D01*
X43688000Y-75046211D01*
X49588250Y-75046211D01*
X49588250Y-75288788D01*
X49619911Y-75529285D01*
X49682697Y-75763604D01*
X49741204Y-75904851D01*
X49775526Y-75987712D01*
X49896814Y-76197789D01*
X49896816Y-76197792D01*
X49896817Y-76197793D01*
X50044483Y-76390236D01*
X50044489Y-76390243D01*
X50216006Y-76561760D01*
X50216013Y-76561766D01*
X50300495Y-76626591D01*
X50408461Y-76709436D01*
X50618538Y-76830724D01*
X50814019Y-76911695D01*
X50821484Y-76914787D01*
X50842650Y-76923554D01*
X51076961Y-76986338D01*
X51254477Y-77009708D01*
X51317461Y-77018000D01*
X51317462Y-77018000D01*
X51560039Y-77018000D01*
X51623023Y-77009708D01*
X51800539Y-76986338D01*
X52034850Y-76923554D01*
X52258962Y-76830724D01*
X52469039Y-76709436D01*
X52489646Y-76693624D01*
X52554815Y-76668430D01*
X52565132Y-76668000D01*
X76902347Y-76668000D01*
X76945680Y-76675818D01*
X76981267Y-76689091D01*
X76981266Y-76689091D01*
X76988194Y-76689835D01*
X77040877Y-76695500D01*
X79636622Y-76695499D01*
X79696233Y-76689091D01*
X79831081Y-76638796D01*
X79946296Y-76552546D01*
X80032546Y-76437331D01*
X80082841Y-76302483D01*
X80089250Y-76242873D01*
X80089250Y-75700148D01*
X89112000Y-75700148D01*
X89112000Y-75904851D01*
X89144022Y-76107034D01*
X89207281Y-76301723D01*
X89300215Y-76484113D01*
X89420528Y-76649713D01*
X89565286Y-76794471D01*
X89720249Y-76907056D01*
X89730890Y-76914787D01*
X89822340Y-76961383D01*
X89823580Y-76962015D01*
X89874376Y-77009990D01*
X89891171Y-77077811D01*
X89868634Y-77143946D01*
X89823580Y-77182985D01*
X89730886Y-77230215D01*
X89565286Y-77350528D01*
X89420528Y-77495286D01*
X89300215Y-77660886D01*
X89207281Y-77843276D01*
X89144022Y-78037965D01*
X89112000Y-78240148D01*
X89112000Y-78444851D01*
X89144022Y-78647034D01*
X89207281Y-78841723D01*
X89269731Y-78964286D01*
X89299639Y-79022984D01*
X89300215Y-79024113D01*
X89420528Y-79189713D01*
X89565286Y-79334471D01*
X89688362Y-79423889D01*
X89730890Y-79454787D01*
X89822340Y-79501383D01*
X89823580Y-79502015D01*
X89874376Y-79549990D01*
X89891171Y-79617811D01*
X89868634Y-79683946D01*
X89823580Y-79722985D01*
X89730886Y-79770215D01*
X89565286Y-79890528D01*
X89420528Y-80035286D01*
X89300215Y-80200886D01*
X89207281Y-80383276D01*
X89144022Y-80577965D01*
X89112000Y-80780148D01*
X89112000Y-80984851D01*
X89144022Y-81187034D01*
X89207281Y-81381723D01*
X89267546Y-81499998D01*
X89299018Y-81561765D01*
X89300215Y-81564113D01*
X89420528Y-81729713D01*
X89565286Y-81874471D01*
X89719261Y-81986338D01*
X89730890Y-81994787D01*
X89817979Y-82039161D01*
X89823580Y-82042015D01*
X89874376Y-82089990D01*
X89891171Y-82157811D01*
X89868634Y-82223946D01*
X89823580Y-82262985D01*
X89730886Y-82310215D01*
X89565286Y-82430528D01*
X89420528Y-82575286D01*
X89300215Y-82740886D01*
X89207281Y-82923276D01*
X89144022Y-83117965D01*
X89112000Y-83320148D01*
X89112000Y-83524851D01*
X89144022Y-83727034D01*
X89207281Y-83921723D01*
X89300215Y-84104113D01*
X89420528Y-84269713D01*
X89565286Y-84414471D01*
X89720249Y-84527056D01*
X89730890Y-84534787D01*
X89822340Y-84581383D01*
X89823580Y-84582015D01*
X89874376Y-84629990D01*
X89891171Y-84697811D01*
X89868634Y-84763946D01*
X89823580Y-84802985D01*
X89730886Y-84850215D01*
X89565286Y-84970528D01*
X89420528Y-85115286D01*
X89300215Y-85280886D01*
X89207281Y-85463276D01*
X89144022Y-85657965D01*
X89112000Y-85860148D01*
X89112000Y-86064851D01*
X89144022Y-86267034D01*
X89207281Y-86461723D01*
X89220295Y-86487263D01*
X89298384Y-86640521D01*
X89300215Y-86644113D01*
X89420528Y-86809713D01*
X89565286Y-86954471D01*
X89692966Y-87047234D01*
X89730890Y-87074787D01*
X89822340Y-87121383D01*
X89823580Y-87122015D01*
X89874376Y-87169990D01*
X89891171Y-87237811D01*
X89868634Y-87303946D01*
X89823580Y-87342985D01*
X89730886Y-87390215D01*
X89565286Y-87510528D01*
X89420528Y-87655286D01*
X89300215Y-87820886D01*
X89207281Y-88003276D01*
X89144022Y-88197965D01*
X89112000Y-88400148D01*
X89112000Y-88604851D01*
X89144022Y-88807034D01*
X89207281Y-89001723D01*
X89257645Y-89100566D01*
X89292179Y-89168343D01*
X89300215Y-89184113D01*
X89420528Y-89349713D01*
X89565286Y-89494471D01*
X89720249Y-89607056D01*
X89730890Y-89614787D01*
X89822340Y-89661383D01*
X89823580Y-89662015D01*
X89874376Y-89709990D01*
X89891171Y-89777811D01*
X89868634Y-89843946D01*
X89823580Y-89882985D01*
X89730886Y-89930215D01*
X89565286Y-90050528D01*
X89420528Y-90195286D01*
X89300215Y-90360886D01*
X89207281Y-90543276D01*
X89144022Y-90737965D01*
X89116458Y-90912000D01*
X89112000Y-90940148D01*
X89112000Y-91144852D01*
X89115677Y-91168067D01*
X89144022Y-91347034D01*
X89207281Y-91541723D01*
X89300215Y-91724113D01*
X89420528Y-91889713D01*
X89565286Y-92034471D01*
X89674613Y-92113900D01*
X89730890Y-92154787D01*
X89822340Y-92201383D01*
X89823580Y-92202015D01*
X89874376Y-92249990D01*
X89891171Y-92317811D01*
X89868634Y-92383946D01*
X89823580Y-92422985D01*
X89730886Y-92470215D01*
X89565286Y-92590528D01*
X89420528Y-92735286D01*
X89300215Y-92900886D01*
X89207281Y-93083276D01*
X89144022Y-93277965D01*
X89112000Y-93480148D01*
X89112000Y-93684851D01*
X89144022Y-93887034D01*
X89207281Y-94081723D01*
X89249944Y-94165452D01*
X89285953Y-94236124D01*
X89300215Y-94264113D01*
X89420528Y-94429713D01*
X89565286Y-94574471D01*
X89705845Y-94676591D01*
X89730890Y-94694787D01*
X89810794Y-94735500D01*
X89823580Y-94742015D01*
X89874376Y-94789990D01*
X89891171Y-94857811D01*
X89868634Y-94923946D01*
X89823580Y-94962985D01*
X89730886Y-95010215D01*
X89565286Y-95130528D01*
X89420528Y-95275286D01*
X89300215Y-95440886D01*
X89207281Y-95623276D01*
X89144022Y-95817965D01*
X89112000Y-96020148D01*
X89112000Y-96224851D01*
X89144022Y-96427034D01*
X89207281Y-96621723D01*
X89300215Y-96804113D01*
X89420528Y-96969713D01*
X89565286Y-97114471D01*
X89699460Y-97211952D01*
X89730890Y-97234787D01*
X89837083Y-97288895D01*
X89913276Y-97327718D01*
X89913278Y-97327718D01*
X89913281Y-97327720D01*
X89962121Y-97343589D01*
X90107965Y-97390977D01*
X90209057Y-97406988D01*
X90310148Y-97423000D01*
X90310149Y-97423000D01*
X91314851Y-97423000D01*
X91314852Y-97423000D01*
X91517034Y-97390977D01*
X91711719Y-97327720D01*
X91894110Y-97234787D01*
X92022982Y-97141157D01*
X92059713Y-97114471D01*
X92059715Y-97114468D01*
X92059719Y-97114466D01*
X92204466Y-96969719D01*
X92204468Y-96969715D01*
X92204471Y-96969713D01*
X92260759Y-96892238D01*
X92324787Y-96804110D01*
X92417720Y-96621719D01*
X92480977Y-96427034D01*
X92513000Y-96224852D01*
X92513000Y-96020148D01*
X92494538Y-95903587D01*
X92480977Y-95817965D01*
X92451627Y-95727637D01*
X92417720Y-95623281D01*
X92417718Y-95623278D01*
X92417718Y-95623276D01*
X92366365Y-95522491D01*
X92324787Y-95440890D01*
X92267879Y-95362562D01*
X92204471Y-95275286D01*
X92059713Y-95130528D01*
X91894114Y-95010215D01*
X91887506Y-95006848D01*
X91801417Y-94962983D01*
X91750623Y-94915011D01*
X91733828Y-94847190D01*
X91756365Y-94781055D01*
X91801417Y-94742016D01*
X91894110Y-94694787D01*
X91968068Y-94641054D01*
X92059713Y-94574471D01*
X92059715Y-94574468D01*
X92059719Y-94574466D01*
X92204466Y-94429719D01*
X92204468Y-94429715D01*
X92204471Y-94429713D01*
X92260759Y-94352238D01*
X92324787Y-94264110D01*
X92417720Y-94081719D01*
X92480977Y-93887034D01*
X92513000Y-93684852D01*
X92513000Y-93480148D01*
X92504007Y-93423367D01*
X92480977Y-93277965D01*
X92417718Y-93083276D01*
X92355267Y-92960711D01*
X92324787Y-92900890D01*
X92267879Y-92822562D01*
X92204471Y-92735286D01*
X92059713Y-92590528D01*
X91894114Y-92470215D01*
X91887506Y-92466848D01*
X91801417Y-92422983D01*
X91750623Y-92375011D01*
X91733828Y-92307190D01*
X91756365Y-92241055D01*
X91801417Y-92202016D01*
X91894110Y-92154787D01*
X91950387Y-92113900D01*
X92059713Y-92034471D01*
X92059715Y-92034468D01*
X92059719Y-92034466D01*
X92204466Y-91889719D01*
X92204468Y-91889715D01*
X92204471Y-91889713D01*
X92260759Y-91812238D01*
X92324787Y-91724110D01*
X92417720Y-91541719D01*
X92480977Y-91347034D01*
X92513000Y-91144852D01*
X92513000Y-90940148D01*
X92500226Y-90859500D01*
X92480977Y-90737965D01*
X92417718Y-90543276D01*
X92355267Y-90420711D01*
X92324787Y-90360890D01*
X92290987Y-90314368D01*
X92204471Y-90195286D01*
X92059713Y-90050528D01*
X91894114Y-89930215D01*
X91887506Y-89926848D01*
X91801417Y-89882983D01*
X91750623Y-89835011D01*
X91733828Y-89767190D01*
X91756365Y-89701055D01*
X91801417Y-89662016D01*
X91894110Y-89614787D01*
X91915270Y-89599413D01*
X92059713Y-89494471D01*
X92059715Y-89494468D01*
X92059719Y-89494466D01*
X92204466Y-89349719D01*
X92204468Y-89349715D01*
X92204471Y-89349713D01*
X92260759Y-89272238D01*
X92324787Y-89184110D01*
X92417720Y-89001719D01*
X92480977Y-88807034D01*
X92513000Y-88604852D01*
X92513000Y-88400148D01*
X92486977Y-88235847D01*
X92480977Y-88197965D01*
X92445624Y-88089161D01*
X92417720Y-88003281D01*
X92417718Y-88003278D01*
X92417718Y-88003276D01*
X92361060Y-87892080D01*
X92324787Y-87820890D01*
X92317056Y-87810249D01*
X92204471Y-87655286D01*
X92059713Y-87510528D01*
X91894114Y-87390215D01*
X91811682Y-87348214D01*
X91801417Y-87342983D01*
X91750623Y-87295011D01*
X91733828Y-87227190D01*
X91756365Y-87161055D01*
X91801417Y-87122016D01*
X91894110Y-87074787D01*
X91932043Y-87047227D01*
X92059713Y-86954471D01*
X92059715Y-86954468D01*
X92059719Y-86954466D01*
X92204466Y-86809719D01*
X92204468Y-86809715D01*
X92204471Y-86809713D01*
X92260759Y-86732238D01*
X92324787Y-86644110D01*
X92417720Y-86461719D01*
X92480977Y-86267034D01*
X92513000Y-86064852D01*
X92513000Y-85860148D01*
X92499645Y-85775830D01*
X92480977Y-85657965D01*
X92431548Y-85505839D01*
X92417720Y-85463281D01*
X92417718Y-85463278D01*
X92417718Y-85463276D01*
X92364666Y-85359157D01*
X92324787Y-85280890D01*
X92274702Y-85211953D01*
X92204471Y-85115286D01*
X92059713Y-84970528D01*
X91894114Y-84850215D01*
X91887506Y-84846848D01*
X91801417Y-84802983D01*
X91750623Y-84755011D01*
X91733828Y-84687190D01*
X91756365Y-84621055D01*
X91801417Y-84582016D01*
X91894110Y-84534787D01*
X91915270Y-84519413D01*
X92059713Y-84414471D01*
X92059715Y-84414468D01*
X92059719Y-84414466D01*
X92204466Y-84269719D01*
X92204468Y-84269715D01*
X92204471Y-84269713D01*
X92260759Y-84192238D01*
X92324787Y-84104110D01*
X92417720Y-83921719D01*
X92480977Y-83727034D01*
X92513000Y-83524852D01*
X92513000Y-83320148D01*
X92480977Y-83117965D01*
X92417718Y-82923276D01*
X92384003Y-82857107D01*
X92324787Y-82740890D01*
X92291809Y-82695499D01*
X92204471Y-82575286D01*
X92059713Y-82430528D01*
X91894114Y-82310215D01*
X91887506Y-82306848D01*
X91801417Y-82262983D01*
X91750623Y-82215011D01*
X91733828Y-82147190D01*
X91756365Y-82081055D01*
X91801417Y-82042016D01*
X91894110Y-81994787D01*
X91992155Y-81923554D01*
X92059713Y-81874471D01*
X92059715Y-81874468D01*
X92059719Y-81874466D01*
X92204466Y-81729719D01*
X92204468Y-81729715D01*
X92204471Y-81729713D01*
X92260759Y-81652238D01*
X92324787Y-81564110D01*
X92417720Y-81381719D01*
X92480977Y-81187034D01*
X92513000Y-80984852D01*
X92513000Y-80780148D01*
X92510379Y-80763600D01*
X92480977Y-80577965D01*
X92417718Y-80383276D01*
X92369573Y-80288788D01*
X92324787Y-80200890D01*
X92256291Y-80106612D01*
X92204471Y-80035286D01*
X92059713Y-79890528D01*
X91894114Y-79770215D01*
X91887506Y-79766848D01*
X91801417Y-79722983D01*
X91750623Y-79675011D01*
X91733828Y-79607190D01*
X91756365Y-79541055D01*
X91801417Y-79502016D01*
X91894110Y-79454787D01*
X92008530Y-79371657D01*
X92059713Y-79334471D01*
X92059715Y-79334468D01*
X92059719Y-79334466D01*
X92204466Y-79189719D01*
X92204468Y-79189715D01*
X92204471Y-79189713D01*
X92260759Y-79112238D01*
X92324787Y-79024110D01*
X92417720Y-78841719D01*
X92480977Y-78647034D01*
X92513000Y-78444852D01*
X92513000Y-78240148D01*
X96732000Y-78240148D01*
X96732000Y-78444851D01*
X96764022Y-78647034D01*
X96827281Y-78841723D01*
X96889731Y-78964286D01*
X96919639Y-79022984D01*
X96920215Y-79024113D01*
X97040528Y-79189713D01*
X97185286Y-79334471D01*
X97308362Y-79423889D01*
X97350890Y-79454787D01*
X97442340Y-79501383D01*
X97443580Y-79502015D01*
X97494376Y-79549990D01*
X97511171Y-79617811D01*
X97488634Y-79683946D01*
X97443580Y-79722985D01*
X97350886Y-79770215D01*
X97185286Y-79890528D01*
X97040528Y-80035286D01*
X96920215Y-80200886D01*
X96827281Y-80383276D01*
X96764022Y-80577965D01*
X96732000Y-80780148D01*
X96732000Y-80984851D01*
X96764022Y-81187034D01*
X96827281Y-81381723D01*
X96887546Y-81499998D01*
X96919018Y-81561765D01*
X96920215Y-81564113D01*
X97040528Y-81729713D01*
X97185286Y-81874471D01*
X97339261Y-81986338D01*
X97350890Y-81994787D01*
X97437979Y-82039161D01*
X97443580Y-82042015D01*
X97494376Y-82089990D01*
X97511171Y-82157811D01*
X97488634Y-82223946D01*
X97443580Y-82262985D01*
X97350886Y-82310215D01*
X97185286Y-82430528D01*
X97040528Y-82575286D01*
X96920215Y-82740886D01*
X96827281Y-82923276D01*
X96764022Y-83117965D01*
X96732000Y-83320148D01*
X96732000Y-83524851D01*
X96764022Y-83727034D01*
X96827281Y-83921723D01*
X96920215Y-84104113D01*
X97040528Y-84269713D01*
X97185286Y-84414471D01*
X97340249Y-84527056D01*
X97350890Y-84534787D01*
X97442340Y-84581383D01*
X97443580Y-84582015D01*
X97494376Y-84629990D01*
X97511171Y-84697811D01*
X97488634Y-84763946D01*
X97443580Y-84802985D01*
X97350886Y-84850215D01*
X97185286Y-84970528D01*
X97040528Y-85115286D01*
X96920215Y-85280886D01*
X96827281Y-85463276D01*
X96764022Y-85657965D01*
X96732000Y-85860148D01*
X96732000Y-86064851D01*
X96764022Y-86267034D01*
X96827281Y-86461723D01*
X96840295Y-86487263D01*
X96918384Y-86640521D01*
X96920215Y-86644113D01*
X97040528Y-86809713D01*
X97185286Y-86954471D01*
X97312966Y-87047234D01*
X97350890Y-87074787D01*
X97442340Y-87121383D01*
X97443580Y-87122015D01*
X97494376Y-87169990D01*
X97511171Y-87237811D01*
X97488634Y-87303946D01*
X97443580Y-87342985D01*
X97350886Y-87390215D01*
X97185286Y-87510528D01*
X97040528Y-87655286D01*
X96920215Y-87820886D01*
X96827281Y-88003276D01*
X96764022Y-88197965D01*
X96732000Y-88400148D01*
X96732000Y-88604851D01*
X96764022Y-88807034D01*
X96827281Y-89001723D01*
X96877645Y-89100566D01*
X96912179Y-89168343D01*
X96920215Y-89184113D01*
X97040528Y-89349713D01*
X97185286Y-89494471D01*
X97340249Y-89607056D01*
X97350890Y-89614787D01*
X97442340Y-89661383D01*
X97443580Y-89662015D01*
X97494376Y-89709990D01*
X97511171Y-89777811D01*
X97488634Y-89843946D01*
X97443580Y-89882985D01*
X97350886Y-89930215D01*
X97185286Y-90050528D01*
X97040528Y-90195286D01*
X96920215Y-90360886D01*
X96827281Y-90543276D01*
X96764022Y-90737965D01*
X96736458Y-90912000D01*
X96732000Y-90940148D01*
X96732000Y-91144852D01*
X96735677Y-91168067D01*
X96764022Y-91347034D01*
X96827281Y-91541723D01*
X96920215Y-91724113D01*
X97040528Y-91889713D01*
X97185286Y-92034471D01*
X97294613Y-92113900D01*
X97350890Y-92154787D01*
X97442340Y-92201383D01*
X97443580Y-92202015D01*
X97494376Y-92249990D01*
X97511171Y-92317811D01*
X97488634Y-92383946D01*
X97443580Y-92422985D01*
X97350886Y-92470215D01*
X97185286Y-92590528D01*
X97040528Y-92735286D01*
X96920215Y-92900886D01*
X96827281Y-93083276D01*
X96764022Y-93277965D01*
X96732000Y-93480148D01*
X96732000Y-93684851D01*
X96764022Y-93887034D01*
X96827281Y-94081723D01*
X96869944Y-94165452D01*
X96905953Y-94236124D01*
X96920215Y-94264113D01*
X97040528Y-94429713D01*
X97040534Y-94429719D01*
X97185281Y-94574466D01*
X97278952Y-94642521D01*
X97321617Y-94697850D01*
X97327596Y-94767463D01*
X97294991Y-94829259D01*
X97245071Y-94860545D01*
X97163166Y-94887686D01*
X97163163Y-94887687D01*
X97013842Y-94979789D01*
X96889789Y-95103842D01*
X96797687Y-95253163D01*
X96797686Y-95253166D01*
X96742501Y-95419703D01*
X96742501Y-95419704D01*
X96742500Y-95419704D01*
X96732000Y-95522483D01*
X96732000Y-96722501D01*
X96732001Y-96722518D01*
X96742500Y-96825296D01*
X96742501Y-96825299D01*
X96797685Y-96991831D01*
X96797687Y-96991836D01*
X96832569Y-97048388D01*
X96889788Y-97141156D01*
X97013844Y-97265212D01*
X97163166Y-97357314D01*
X97329703Y-97412499D01*
X97432491Y-97423000D01*
X99432508Y-97422999D01*
X99535297Y-97412499D01*
X99701834Y-97357314D01*
X99851156Y-97265212D01*
X99975212Y-97141156D01*
X100067314Y-96991834D01*
X100122499Y-96825297D01*
X100133000Y-96722509D01*
X100132999Y-95522492D01*
X100122499Y-95419703D01*
X100067314Y-95253166D01*
X99975212Y-95103844D01*
X99851156Y-94979788D01*
X99701834Y-94887686D01*
X99619927Y-94860544D01*
X99562484Y-94820772D01*
X99535661Y-94756256D01*
X99547976Y-94687480D01*
X99586047Y-94642521D01*
X99679719Y-94574466D01*
X99824466Y-94429719D01*
X99824468Y-94429715D01*
X99824471Y-94429713D01*
X99880759Y-94352238D01*
X99944787Y-94264110D01*
X100037720Y-94081719D01*
X100100977Y-93887034D01*
X100133000Y-93684852D01*
X100133000Y-93480148D01*
X100124007Y-93423367D01*
X100100977Y-93277965D01*
X100037718Y-93083276D01*
X99975267Y-92960711D01*
X99944787Y-92900890D01*
X99887879Y-92822562D01*
X99824471Y-92735286D01*
X99679713Y-92590528D01*
X99514114Y-92470215D01*
X99507506Y-92466848D01*
X99421417Y-92422983D01*
X99370623Y-92375011D01*
X99353828Y-92307190D01*
X99376365Y-92241055D01*
X99421417Y-92202016D01*
X99514110Y-92154787D01*
X99570387Y-92113900D01*
X99679713Y-92034471D01*
X99679715Y-92034468D01*
X99679719Y-92034466D01*
X99824466Y-91889719D01*
X99824468Y-91889715D01*
X99824471Y-91889713D01*
X99880759Y-91812238D01*
X99944787Y-91724110D01*
X100037720Y-91541719D01*
X100100977Y-91347034D01*
X100133000Y-91144852D01*
X100133000Y-90940148D01*
X100120226Y-90859500D01*
X100100977Y-90737965D01*
X100037718Y-90543276D01*
X99975267Y-90420711D01*
X99944787Y-90360890D01*
X99910987Y-90314368D01*
X99824471Y-90195286D01*
X99679713Y-90050528D01*
X99514114Y-89930215D01*
X99507506Y-89926848D01*
X99421417Y-89882983D01*
X99370623Y-89835011D01*
X99353828Y-89767190D01*
X99376365Y-89701055D01*
X99421417Y-89662016D01*
X99514110Y-89614787D01*
X99535270Y-89599413D01*
X99679713Y-89494471D01*
X99679715Y-89494468D01*
X99679719Y-89494466D01*
X99824466Y-89349719D01*
X99824468Y-89349715D01*
X99824471Y-89349713D01*
X99880759Y-89272238D01*
X99944787Y-89184110D01*
X100037720Y-89001719D01*
X100100977Y-88807034D01*
X100133000Y-88604852D01*
X100133000Y-88400148D01*
X100106977Y-88235847D01*
X100100977Y-88197965D01*
X100065624Y-88089161D01*
X100037720Y-88003281D01*
X100037718Y-88003278D01*
X100037718Y-88003276D01*
X99981060Y-87892080D01*
X99944787Y-87820890D01*
X99937056Y-87810249D01*
X99824471Y-87655286D01*
X99679713Y-87510528D01*
X99514114Y-87390215D01*
X99431682Y-87348214D01*
X99421417Y-87342983D01*
X99370623Y-87295011D01*
X99353828Y-87227190D01*
X99376365Y-87161055D01*
X99421417Y-87122016D01*
X99514110Y-87074787D01*
X99552043Y-87047227D01*
X99679713Y-86954471D01*
X99679715Y-86954468D01*
X99679719Y-86954466D01*
X99824466Y-86809719D01*
X99824468Y-86809715D01*
X99824471Y-86809713D01*
X99880759Y-86732238D01*
X99944787Y-86644110D01*
X100037720Y-86461719D01*
X100100977Y-86267034D01*
X100133000Y-86064852D01*
X100133000Y-85860148D01*
X100119645Y-85775830D01*
X100100977Y-85657965D01*
X100051548Y-85505839D01*
X100037720Y-85463281D01*
X100037718Y-85463278D01*
X100037718Y-85463276D01*
X99984666Y-85359157D01*
X99944787Y-85280890D01*
X99894702Y-85211953D01*
X99824471Y-85115286D01*
X99679713Y-84970528D01*
X99514114Y-84850215D01*
X99507506Y-84846848D01*
X99421417Y-84802983D01*
X99370623Y-84755011D01*
X99353828Y-84687190D01*
X99376365Y-84621055D01*
X99421417Y-84582016D01*
X99514110Y-84534787D01*
X99535270Y-84519413D01*
X99679713Y-84414471D01*
X99679715Y-84414468D01*
X99679719Y-84414466D01*
X99824466Y-84269719D01*
X99824468Y-84269715D01*
X99824471Y-84269713D01*
X99880759Y-84192238D01*
X99944787Y-84104110D01*
X100037720Y-83921719D01*
X100100977Y-83727034D01*
X100133000Y-83524852D01*
X100133000Y-83320148D01*
X100100977Y-83117965D01*
X100037718Y-82923276D01*
X100004003Y-82857107D01*
X99944787Y-82740890D01*
X99911809Y-82695499D01*
X99824471Y-82575286D01*
X99679713Y-82430528D01*
X99514114Y-82310215D01*
X99507506Y-82306848D01*
X99421417Y-82262983D01*
X99370623Y-82215011D01*
X99353828Y-82147190D01*
X99376365Y-82081055D01*
X99421417Y-82042016D01*
X99514110Y-81994787D01*
X99612155Y-81923554D01*
X99679713Y-81874471D01*
X99679715Y-81874468D01*
X99679719Y-81874466D01*
X99824466Y-81729719D01*
X99824468Y-81729715D01*
X99824471Y-81729713D01*
X99880759Y-81652238D01*
X99944787Y-81564110D01*
X100037720Y-81381719D01*
X100100977Y-81187034D01*
X100133000Y-80984852D01*
X100133000Y-80780148D01*
X100130379Y-80763600D01*
X100100977Y-80577965D01*
X100037718Y-80383276D01*
X99989573Y-80288788D01*
X99944787Y-80200890D01*
X99876291Y-80106612D01*
X99824471Y-80035286D01*
X99679713Y-79890528D01*
X99514114Y-79770215D01*
X99507506Y-79766848D01*
X99421417Y-79722983D01*
X99370623Y-79675011D01*
X99353828Y-79607190D01*
X99376365Y-79541055D01*
X99421417Y-79502016D01*
X99514110Y-79454787D01*
X99628530Y-79371657D01*
X99679713Y-79334471D01*
X99679715Y-79334468D01*
X99679719Y-79334466D01*
X99824466Y-79189719D01*
X99824468Y-79189715D01*
X99824471Y-79189713D01*
X99880759Y-79112238D01*
X99944787Y-79024110D01*
X100037720Y-78841719D01*
X100100977Y-78647034D01*
X100133000Y-78444852D01*
X100133000Y-78240148D01*
X100118297Y-78147321D01*
X100100977Y-78037965D01*
X100048087Y-77875187D01*
X100037720Y-77843281D01*
X100037718Y-77843278D01*
X100037718Y-77843276D01*
X100004003Y-77777107D01*
X99944787Y-77660890D01*
X99937056Y-77650249D01*
X99824471Y-77495286D01*
X99679713Y-77350528D01*
X99514111Y-77230213D01*
X99420869Y-77182703D01*
X99370074Y-77134729D01*
X99353279Y-77066907D01*
X99375817Y-77000773D01*
X99420871Y-76961734D01*
X99513847Y-76914361D01*
X99679394Y-76794082D01*
X99679395Y-76794082D01*
X99824082Y-76649395D01*
X99824082Y-76649394D01*
X99944359Y-76483849D01*
X100037255Y-76301529D01*
X100100490Y-76106913D01*
X100109109Y-76052500D01*
X98748186Y-76052500D01*
X98752580Y-76048106D01*
X98805241Y-75956894D01*
X98832500Y-75855161D01*
X98832500Y-75749839D01*
X98805241Y-75648106D01*
X98752580Y-75556894D01*
X98748186Y-75552500D01*
X100109109Y-75552500D01*
X100100490Y-75498086D01*
X100037255Y-75303470D01*
X99944359Y-75121150D01*
X99824082Y-74955605D01*
X99824082Y-74955604D01*
X99679395Y-74810917D01*
X99513849Y-74690640D01*
X99331531Y-74597744D01*
X99136917Y-74534509D01*
X98934817Y-74502500D01*
X98682500Y-74502500D01*
X98682500Y-75486814D01*
X98678106Y-75482420D01*
X98586894Y-75429759D01*
X98485161Y-75402500D01*
X98379839Y-75402500D01*
X98278106Y-75429759D01*
X98186894Y-75482420D01*
X98182500Y-75486814D01*
X98182500Y-74502500D01*
X97930183Y-74502500D01*
X97728082Y-74534509D01*
X97533468Y-74597744D01*
X97351150Y-74690640D01*
X97185605Y-74810917D01*
X97185604Y-74810917D01*
X97040917Y-74955604D01*
X97040917Y-74955605D01*
X96920640Y-75121150D01*
X96827744Y-75303470D01*
X96764509Y-75498086D01*
X96755891Y-75552500D01*
X98116814Y-75552500D01*
X98112420Y-75556894D01*
X98059759Y-75648106D01*
X98032500Y-75749839D01*
X98032500Y-75855161D01*
X98059759Y-75956894D01*
X98112420Y-76048106D01*
X98116814Y-76052500D01*
X96755891Y-76052500D01*
X96764509Y-76106913D01*
X96827744Y-76301529D01*
X96920640Y-76483849D01*
X97040917Y-76649394D01*
X97040917Y-76649395D01*
X97185604Y-76794082D01*
X97351152Y-76914361D01*
X97444128Y-76961734D01*
X97494925Y-77009708D01*
X97511720Y-77077529D01*
X97489183Y-77143664D01*
X97444130Y-77182703D01*
X97350888Y-77230213D01*
X97185286Y-77350528D01*
X97040528Y-77495286D01*
X96920215Y-77660886D01*
X96827281Y-77843276D01*
X96764022Y-78037965D01*
X96732000Y-78240148D01*
X92513000Y-78240148D01*
X92498297Y-78147321D01*
X92480977Y-78037965D01*
X92428087Y-77875187D01*
X92417720Y-77843281D01*
X92417718Y-77843278D01*
X92417718Y-77843276D01*
X92384003Y-77777107D01*
X92324787Y-77660890D01*
X92317056Y-77650249D01*
X92204471Y-77495286D01*
X92059713Y-77350528D01*
X91894114Y-77230215D01*
X91887506Y-77226848D01*
X91801417Y-77182983D01*
X91750623Y-77135011D01*
X91733828Y-77067190D01*
X91756365Y-77001055D01*
X91801417Y-76962016D01*
X91894110Y-76914787D01*
X91915270Y-76899413D01*
X92059713Y-76794471D01*
X92059715Y-76794468D01*
X92059719Y-76794466D01*
X92204466Y-76649719D01*
X92204468Y-76649715D01*
X92204471Y-76649713D01*
X92275067Y-76552544D01*
X92324787Y-76484110D01*
X92417720Y-76301719D01*
X92480977Y-76107034D01*
X92513000Y-75904852D01*
X92513000Y-75700148D01*
X92480977Y-75497966D01*
X92417720Y-75303281D01*
X92417718Y-75303278D01*
X92417718Y-75303276D01*
X92324919Y-75121150D01*
X92324787Y-75120890D01*
X92270531Y-75046212D01*
X92204471Y-74955286D01*
X92059713Y-74810528D01*
X91894113Y-74690215D01*
X91894112Y-74690214D01*
X91894110Y-74690213D01*
X91837153Y-74661191D01*
X91711723Y-74597281D01*
X91517034Y-74534022D01*
X91342495Y-74506378D01*
X91314852Y-74502000D01*
X90310148Y-74502000D01*
X90285829Y-74505851D01*
X90107965Y-74534022D01*
X89913276Y-74597281D01*
X89730886Y-74690215D01*
X89565286Y-74810528D01*
X89420528Y-74955286D01*
X89300215Y-75120886D01*
X89207281Y-75303276D01*
X89144022Y-75497965D01*
X89112000Y-75700148D01*
X80089250Y-75700148D01*
X80089249Y-74810917D01*
X80089249Y-73647129D01*
X80089248Y-73647123D01*
X80088630Y-73641376D01*
X80082841Y-73587517D01*
X80082399Y-73586333D01*
X80032547Y-73452671D01*
X80032543Y-73452664D01*
X79946297Y-73337455D01*
X79946294Y-73337452D01*
X79831085Y-73251206D01*
X79831078Y-73251202D01*
X79696232Y-73200908D01*
X79696233Y-73200908D01*
X79636633Y-73194501D01*
X79636631Y-73194500D01*
X79636623Y-73194500D01*
X79636614Y-73194500D01*
X77040879Y-73194500D01*
X77040873Y-73194501D01*
X76981266Y-73200908D01*
X76846421Y-73251202D01*
X76846414Y-73251206D01*
X76731205Y-73337452D01*
X76731202Y-73337455D01*
X76644956Y-73452664D01*
X76644952Y-73452671D01*
X76595100Y-73586333D01*
X76553229Y-73642267D01*
X76487764Y-73666684D01*
X76478918Y-73667000D01*
X52565132Y-73667000D01*
X52498093Y-73647315D01*
X52489646Y-73641376D01*
X52469038Y-73625563D01*
X52258965Y-73504277D01*
X52258955Y-73504273D01*
X52034854Y-73411447D01*
X51800535Y-73348661D01*
X51560039Y-73317000D01*
X51560038Y-73317000D01*
X51317462Y-73317000D01*
X51317461Y-73317000D01*
X51076964Y-73348661D01*
X50842645Y-73411447D01*
X50618544Y-73504273D01*
X50618535Y-73504277D01*
X50408456Y-73625567D01*
X50216013Y-73773233D01*
X50216006Y-73773239D01*
X50044489Y-73944756D01*
X50044483Y-73944763D01*
X49896817Y-74137206D01*
X49775527Y-74347285D01*
X49775523Y-74347294D01*
X49682697Y-74571395D01*
X49619911Y-74805714D01*
X49588250Y-75046211D01*
X43688000Y-75046211D01*
X43688000Y-69017484D01*
X49588250Y-69017484D01*
X49588250Y-71317515D01*
X49598750Y-71420295D01*
X49598751Y-71420296D01*
X49653936Y-71586835D01*
X49653937Y-71586837D01*
X49746036Y-71736151D01*
X49746039Y-71736155D01*
X49870094Y-71860210D01*
X49870098Y-71860213D01*
X50019412Y-71952312D01*
X50019414Y-71952313D01*
X50019416Y-71952314D01*
X50185953Y-72007499D01*
X50288742Y-72018000D01*
X50288747Y-72018000D01*
X52588753Y-72018000D01*
X52588758Y-72018000D01*
X52691547Y-72007499D01*
X52858084Y-71952314D01*
X53007405Y-71860211D01*
X53131461Y-71736155D01*
X53137167Y-71726903D01*
X53189114Y-71680179D01*
X53242706Y-71668000D01*
X63034347Y-71668000D01*
X63267618Y-71631053D01*
X63492242Y-71558068D01*
X63702684Y-71450843D01*
X63893760Y-71312017D01*
X64538419Y-70667356D01*
X64594003Y-70635265D01*
X64702637Y-70606158D01*
X64914638Y-70518344D01*
X65113362Y-70403611D01*
X65295411Y-70263919D01*
X65295415Y-70263914D01*
X65295420Y-70263911D01*
X65457661Y-70101670D01*
X65457664Y-70101665D01*
X65457669Y-70101661D01*
X65597361Y-69919612D01*
X65712094Y-69720888D01*
X65799908Y-69508887D01*
X65859298Y-69287238D01*
X65889250Y-69059734D01*
X65889250Y-68830266D01*
X65889249Y-68830258D01*
X74588250Y-68830258D01*
X74588250Y-69059741D01*
X74609974Y-69224740D01*
X74618202Y-69287238D01*
X74621143Y-69298214D01*
X74677592Y-69508887D01*
X74765400Y-69720876D01*
X74765407Y-69720890D01*
X74880142Y-69919617D01*
X75019831Y-70101661D01*
X75019839Y-70101670D01*
X75182080Y-70263911D01*
X75182088Y-70263918D01*
X75364132Y-70403607D01*
X75364135Y-70403608D01*
X75364138Y-70403611D01*
X75562862Y-70518344D01*
X75562867Y-70518346D01*
X75562873Y-70518349D01*
X75623975Y-70543658D01*
X75774863Y-70606158D01*
X75996512Y-70665548D01*
X76224016Y-70695500D01*
X76224023Y-70695500D01*
X76453477Y-70695500D01*
X76453484Y-70695500D01*
X76680988Y-70665548D01*
X76902637Y-70606158D01*
X77114638Y-70518344D01*
X77313362Y-70403611D01*
X77495411Y-70263919D01*
X77495415Y-70263914D01*
X77495420Y-70263911D01*
X77657661Y-70101670D01*
X77657664Y-70101665D01*
X77657669Y-70101661D01*
X77797361Y-69919612D01*
X77912094Y-69720888D01*
X77999908Y-69508887D01*
X78059298Y-69287238D01*
X78089250Y-69059734D01*
X78089250Y-68830266D01*
X78059298Y-68602762D01*
X77999908Y-68381113D01*
X77912096Y-68169118D01*
X77912096Y-68169117D01*
X77912094Y-68169112D01*
X77797361Y-67970388D01*
X77797358Y-67970385D01*
X77797357Y-67970382D01*
X77696514Y-67838962D01*
X77657669Y-67788339D01*
X77657668Y-67788338D01*
X77657661Y-67788330D01*
X77495420Y-67626089D01*
X77495411Y-67626081D01*
X77313367Y-67486392D01*
X77114640Y-67371657D01*
X77114626Y-67371650D01*
X76902637Y-67283842D01*
X76680988Y-67224452D01*
X76642965Y-67219446D01*
X76453491Y-67194500D01*
X76453484Y-67194500D01*
X76224016Y-67194500D01*
X76224008Y-67194500D01*
X76020134Y-67221342D01*
X75996512Y-67224452D01*
X75902826Y-67249554D01*
X75774862Y-67283842D01*
X75562873Y-67371650D01*
X75562859Y-67371657D01*
X75364132Y-67486392D01*
X75182088Y-67626081D01*
X75019831Y-67788338D01*
X74880142Y-67970382D01*
X74765407Y-68169109D01*
X74765400Y-68169123D01*
X74677592Y-68381112D01*
X74677170Y-68382687D01*
X74634947Y-68540270D01*
X74618203Y-68602759D01*
X74618201Y-68602770D01*
X74588250Y-68830258D01*
X65889249Y-68830258D01*
X65859298Y-68602762D01*
X65799908Y-68381113D01*
X65712096Y-68169118D01*
X65712096Y-68169117D01*
X65712094Y-68169112D01*
X65597361Y-67970388D01*
X65597358Y-67970385D01*
X65597357Y-67970382D01*
X65496514Y-67838962D01*
X65457669Y-67788339D01*
X65457668Y-67788338D01*
X65457661Y-67788330D01*
X65295420Y-67626089D01*
X65295411Y-67626081D01*
X65113367Y-67486392D01*
X64914640Y-67371657D01*
X64914626Y-67371650D01*
X64702637Y-67283842D01*
X64480988Y-67224452D01*
X64442965Y-67219446D01*
X64253491Y-67194500D01*
X64253484Y-67194500D01*
X64024016Y-67194500D01*
X64024008Y-67194500D01*
X63820134Y-67221342D01*
X63796512Y-67224452D01*
X63702826Y-67249554D01*
X63574862Y-67283842D01*
X63362873Y-67371650D01*
X63362859Y-67371657D01*
X63164132Y-67486392D01*
X62982088Y-67626081D01*
X62819831Y-67788338D01*
X62680142Y-67970382D01*
X62565407Y-68169109D01*
X62565403Y-68169118D01*
X62477593Y-68381110D01*
X62448484Y-68489744D01*
X62440466Y-68503630D01*
X62437542Y-68517075D01*
X62416391Y-68545329D01*
X62331042Y-68630680D01*
X62269720Y-68664166D01*
X62243360Y-68667000D01*
X53242706Y-68667000D01*
X53175667Y-68647315D01*
X53137167Y-68608096D01*
X53131461Y-68598845D01*
X53007405Y-68474789D01*
X53007401Y-68474786D01*
X52858087Y-68382687D01*
X52858085Y-68382686D01*
X52774815Y-68355093D01*
X52691547Y-68327501D01*
X52691545Y-68327500D01*
X52588765Y-68317000D01*
X52588758Y-68317000D01*
X50288742Y-68317000D01*
X50288734Y-68317000D01*
X50185954Y-68327500D01*
X50185953Y-68327501D01*
X50019414Y-68382686D01*
X50019412Y-68382687D01*
X49870098Y-68474786D01*
X49870094Y-68474789D01*
X49746039Y-68598844D01*
X49746036Y-68598848D01*
X49653937Y-68748162D01*
X49653936Y-68748164D01*
X49598751Y-68914703D01*
X49598750Y-68914704D01*
X49588250Y-69017484D01*
X43688000Y-69017484D01*
X43688000Y-62726211D01*
X49592000Y-62726211D01*
X49592000Y-62968788D01*
X49623661Y-63209285D01*
X49686447Y-63443604D01*
X49754698Y-63608376D01*
X49779276Y-63667712D01*
X49900564Y-63877789D01*
X49900566Y-63877792D01*
X49900567Y-63877793D01*
X50048233Y-64070236D01*
X50048239Y-64070243D01*
X50219756Y-64241760D01*
X50219762Y-64241765D01*
X50412211Y-64389436D01*
X50622288Y-64510724D01*
X50846400Y-64603554D01*
X51080711Y-64666338D01*
X51261086Y-64690084D01*
X51321211Y-64698000D01*
X51321212Y-64698000D01*
X51563789Y-64698000D01*
X51611888Y-64691667D01*
X51804289Y-64666338D01*
X52038600Y-64603554D01*
X52262712Y-64510724D01*
X52472789Y-64389436D01*
X52493396Y-64373624D01*
X52558565Y-64348430D01*
X52568882Y-64348000D01*
X62611911Y-64348000D01*
X62678950Y-64367685D01*
X62710283Y-64396509D01*
X62823581Y-64544161D01*
X62823585Y-64544165D01*
X62823589Y-64544170D01*
X62985830Y-64706411D01*
X62985838Y-64706418D01*
X63167882Y-64846107D01*
X63167885Y-64846108D01*
X63167888Y-64846111D01*
X63366612Y-64960844D01*
X63366617Y-64960846D01*
X63366623Y-64960849D01*
X63457980Y-64998690D01*
X63578613Y-65048658D01*
X63800262Y-65108048D01*
X64027766Y-65138000D01*
X64027773Y-65138000D01*
X64257227Y-65138000D01*
X64257234Y-65138000D01*
X64484738Y-65108048D01*
X64706387Y-65048658D01*
X64918388Y-64960844D01*
X65117112Y-64846111D01*
X65299161Y-64706419D01*
X65299165Y-64706414D01*
X65299170Y-64706411D01*
X65461411Y-64544170D01*
X65461414Y-64544165D01*
X65461419Y-64544161D01*
X65601111Y-64362112D01*
X65715844Y-64163388D01*
X65803658Y-63951387D01*
X65863048Y-63729738D01*
X65893000Y-63502234D01*
X65893000Y-63272766D01*
X65892999Y-63272758D01*
X74592000Y-63272758D01*
X74592000Y-63502241D01*
X74605976Y-63608390D01*
X74621952Y-63729738D01*
X74661622Y-63877789D01*
X74681342Y-63951387D01*
X74769150Y-64163376D01*
X74769156Y-64163388D01*
X74875741Y-64348000D01*
X74883892Y-64362117D01*
X75023581Y-64544161D01*
X75023589Y-64544170D01*
X75185830Y-64706411D01*
X75185838Y-64706418D01*
X75367882Y-64846107D01*
X75367885Y-64846108D01*
X75367888Y-64846111D01*
X75566612Y-64960844D01*
X75566617Y-64960846D01*
X75566623Y-64960849D01*
X75657980Y-64998690D01*
X75778613Y-65048658D01*
X76000262Y-65108048D01*
X76227766Y-65138000D01*
X76227773Y-65138000D01*
X76457227Y-65138000D01*
X76457234Y-65138000D01*
X76684738Y-65108048D01*
X76906387Y-65048658D01*
X77118388Y-64960844D01*
X77317112Y-64846111D01*
X77499161Y-64706419D01*
X77499165Y-64706414D01*
X77499170Y-64706411D01*
X77661411Y-64544170D01*
X77661414Y-64544165D01*
X77661419Y-64544161D01*
X77801111Y-64362112D01*
X77915844Y-64163388D01*
X78003658Y-63951387D01*
X78063048Y-63729738D01*
X78093000Y-63502234D01*
X78093000Y-63272766D01*
X78063048Y-63045262D01*
X78003658Y-62823613D01*
X77915844Y-62611612D01*
X77801111Y-62412888D01*
X77801108Y-62412885D01*
X77801107Y-62412882D01*
X77661418Y-62230838D01*
X77661411Y-62230830D01*
X77499170Y-62068589D01*
X77499161Y-62068581D01*
X77317117Y-61928892D01*
X77118390Y-61814157D01*
X77118376Y-61814150D01*
X76906387Y-61726342D01*
X76684738Y-61666952D01*
X76646715Y-61661946D01*
X76457241Y-61637000D01*
X76457234Y-61637000D01*
X76227766Y-61637000D01*
X76227758Y-61637000D01*
X76011215Y-61665509D01*
X76000262Y-61666952D01*
X75967099Y-61675838D01*
X75778612Y-61726342D01*
X75566623Y-61814150D01*
X75566609Y-61814157D01*
X75367882Y-61928892D01*
X75185838Y-62068581D01*
X75023581Y-62230838D01*
X74883892Y-62412882D01*
X74769157Y-62611609D01*
X74769150Y-62611623D01*
X74681342Y-62823612D01*
X74621953Y-63045259D01*
X74621951Y-63045270D01*
X74592000Y-63272758D01*
X65892999Y-63272758D01*
X65863048Y-63045262D01*
X65803658Y-62823613D01*
X65715844Y-62611612D01*
X65601111Y-62412888D01*
X65601108Y-62412885D01*
X65601107Y-62412882D01*
X65461418Y-62230838D01*
X65461411Y-62230830D01*
X65299170Y-62068589D01*
X65299161Y-62068581D01*
X65117117Y-61928892D01*
X64918390Y-61814157D01*
X64918376Y-61814150D01*
X64706389Y-61726343D01*
X64706390Y-61726343D01*
X64706387Y-61726342D01*
X64608170Y-61700025D01*
X64579306Y-61692291D01*
X64538514Y-61672834D01*
X64388934Y-61564157D01*
X64178496Y-61456933D01*
X63953868Y-61383946D01*
X63720597Y-61347000D01*
X63720592Y-61347000D01*
X52568882Y-61347000D01*
X52501843Y-61327315D01*
X52493396Y-61321376D01*
X52472788Y-61305563D01*
X52262715Y-61184277D01*
X52262705Y-61184273D01*
X52038604Y-61091447D01*
X51804285Y-61028661D01*
X51563789Y-60997000D01*
X51563788Y-60997000D01*
X51321212Y-60997000D01*
X51321211Y-60997000D01*
X51080714Y-61028661D01*
X50846395Y-61091447D01*
X50622294Y-61184273D01*
X50622285Y-61184277D01*
X50412206Y-61305567D01*
X50219763Y-61453233D01*
X50219756Y-61453239D01*
X50048239Y-61624756D01*
X50048233Y-61624763D01*
X49900567Y-61817206D01*
X49779277Y-62027285D01*
X49779273Y-62027294D01*
X49686447Y-62251395D01*
X49623661Y-62485714D01*
X49592000Y-62726211D01*
X43688000Y-62726211D01*
X43688000Y-57726211D01*
X49592000Y-57726211D01*
X49592000Y-57968788D01*
X49614029Y-58136124D01*
X49623662Y-58209289D01*
X49640794Y-58273226D01*
X49686447Y-58443604D01*
X49779273Y-58667705D01*
X49779277Y-58667714D01*
X49789478Y-58685383D01*
X49900564Y-58877789D01*
X49900566Y-58877792D01*
X49900567Y-58877793D01*
X50048233Y-59070236D01*
X50048239Y-59070243D01*
X50219756Y-59241760D01*
X50219763Y-59241766D01*
X50310060Y-59311053D01*
X50412211Y-59389436D01*
X50622288Y-59510724D01*
X50846400Y-59603554D01*
X51080711Y-59666338D01*
X51261086Y-59690084D01*
X51321211Y-59698000D01*
X51321212Y-59698000D01*
X51563789Y-59698000D01*
X51611888Y-59691667D01*
X51804289Y-59666338D01*
X52038600Y-59603554D01*
X52262712Y-59510724D01*
X52472789Y-59389436D01*
X52493396Y-59373624D01*
X52558565Y-59348430D01*
X52568882Y-59348000D01*
X78000597Y-59348000D01*
X78233868Y-59311053D01*
X78272899Y-59298371D01*
X78458492Y-59238068D01*
X78628363Y-59151513D01*
X78684658Y-59137999D01*
X79640371Y-59137999D01*
X79640372Y-59137999D01*
X79699983Y-59131591D01*
X79834831Y-59081296D01*
X79950046Y-58995046D01*
X80036296Y-58879831D01*
X80086591Y-58744983D01*
X80093000Y-58685373D01*
X80092999Y-56089628D01*
X80086591Y-56030017D01*
X80086085Y-56028661D01*
X80036297Y-55895171D01*
X80036293Y-55895164D01*
X79950047Y-55779955D01*
X79950044Y-55779952D01*
X79834835Y-55693706D01*
X79834828Y-55693702D01*
X79699982Y-55643408D01*
X79699983Y-55643408D01*
X79640383Y-55637001D01*
X79640381Y-55637000D01*
X79640373Y-55637000D01*
X79640364Y-55637000D01*
X77044629Y-55637000D01*
X77044623Y-55637001D01*
X76985016Y-55643408D01*
X76850171Y-55693702D01*
X76850164Y-55693706D01*
X76734955Y-55779952D01*
X76734952Y-55779955D01*
X76648706Y-55895164D01*
X76648702Y-55895171D01*
X76598408Y-56030017D01*
X76592001Y-56089616D01*
X76592001Y-56089623D01*
X76592000Y-56089635D01*
X76592000Y-56223000D01*
X76572315Y-56290039D01*
X76519511Y-56335794D01*
X76468000Y-56347000D01*
X52568882Y-56347000D01*
X52501843Y-56327315D01*
X52493396Y-56321376D01*
X52472788Y-56305563D01*
X52262715Y-56184277D01*
X52262705Y-56184273D01*
X52038604Y-56091447D01*
X51804285Y-56028661D01*
X51563789Y-55997000D01*
X51563788Y-55997000D01*
X51321212Y-55997000D01*
X51321211Y-55997000D01*
X51080714Y-56028661D01*
X50846395Y-56091447D01*
X50622294Y-56184273D01*
X50622285Y-56184277D01*
X50412206Y-56305567D01*
X50219763Y-56453233D01*
X50219756Y-56453239D01*
X50048239Y-56624756D01*
X50048233Y-56624763D01*
X49900567Y-56817206D01*
X49779277Y-57027285D01*
X49779273Y-57027294D01*
X49686447Y-57251395D01*
X49623661Y-57485714D01*
X49592000Y-57726211D01*
X43688000Y-57726211D01*
X43688000Y-51697484D01*
X49592000Y-51697484D01*
X49592000Y-53997515D01*
X49602500Y-54100295D01*
X49602501Y-54100296D01*
X49657686Y-54266835D01*
X49657687Y-54266837D01*
X49749786Y-54416151D01*
X49749789Y-54416155D01*
X49873844Y-54540210D01*
X49873848Y-54540213D01*
X50023162Y-54632312D01*
X50023164Y-54632313D01*
X50023166Y-54632314D01*
X50189703Y-54687499D01*
X50292492Y-54698000D01*
X50292497Y-54698000D01*
X52592503Y-54698000D01*
X52592508Y-54698000D01*
X52695297Y-54687499D01*
X52861834Y-54632314D01*
X53011155Y-54540211D01*
X53135211Y-54416155D01*
X53140917Y-54406903D01*
X53192864Y-54360179D01*
X53246456Y-54348000D01*
X62800597Y-54348000D01*
X63033868Y-54311053D01*
X63258492Y-54238068D01*
X63468934Y-54130843D01*
X63660010Y-53992017D01*
X64542170Y-53109856D01*
X64597754Y-53077765D01*
X64706387Y-53048658D01*
X64861199Y-52984532D01*
X64918381Y-52960847D01*
X64918381Y-52960846D01*
X64918388Y-52960844D01*
X65117112Y-52846111D01*
X65299161Y-52706419D01*
X65299165Y-52706414D01*
X65299170Y-52706411D01*
X65461411Y-52544170D01*
X65461414Y-52544165D01*
X65461419Y-52544161D01*
X65601111Y-52362112D01*
X65715844Y-52163388D01*
X65803658Y-51951387D01*
X65863048Y-51729738D01*
X65893000Y-51502234D01*
X65893000Y-51272766D01*
X65892999Y-51272758D01*
X74592000Y-51272758D01*
X74592000Y-51502241D01*
X74605976Y-51608390D01*
X74621952Y-51729738D01*
X74678926Y-51942371D01*
X74681342Y-51951387D01*
X74769150Y-52163376D01*
X74769156Y-52163388D01*
X74868023Y-52334632D01*
X74883892Y-52362117D01*
X75023581Y-52544161D01*
X75023589Y-52544170D01*
X75185830Y-52706411D01*
X75185838Y-52706418D01*
X75367882Y-52846107D01*
X75367885Y-52846108D01*
X75367888Y-52846111D01*
X75566612Y-52960844D01*
X75566617Y-52960846D01*
X75566623Y-52960849D01*
X75657980Y-52998690D01*
X75778613Y-53048658D01*
X76000262Y-53108048D01*
X76227766Y-53138000D01*
X76227773Y-53138000D01*
X76457227Y-53138000D01*
X76457234Y-53138000D01*
X76684738Y-53108048D01*
X76906387Y-53048658D01*
X77118388Y-52960844D01*
X77317112Y-52846111D01*
X77499161Y-52706419D01*
X77499165Y-52706414D01*
X77499170Y-52706411D01*
X77661411Y-52544170D01*
X77661414Y-52544165D01*
X77661419Y-52544161D01*
X77801111Y-52362112D01*
X77915844Y-52163388D01*
X78003658Y-51951387D01*
X78063048Y-51729738D01*
X78093000Y-51502234D01*
X78093000Y-51272766D01*
X78063048Y-51045262D01*
X78003658Y-50823613D01*
X77915846Y-50611618D01*
X77915846Y-50611617D01*
X77915844Y-50611612D01*
X77801111Y-50412888D01*
X77801108Y-50412885D01*
X77801107Y-50412882D01*
X77661418Y-50230838D01*
X77661411Y-50230830D01*
X77499170Y-50068589D01*
X77499161Y-50068581D01*
X77317117Y-49928892D01*
X77118390Y-49814157D01*
X77118376Y-49814150D01*
X76906387Y-49726342D01*
X76684738Y-49666952D01*
X76646715Y-49661946D01*
X76457241Y-49637000D01*
X76457234Y-49637000D01*
X76227766Y-49637000D01*
X76227758Y-49637000D01*
X76011215Y-49665509D01*
X76000262Y-49666952D01*
X75967099Y-49675838D01*
X75778612Y-49726342D01*
X75566623Y-49814150D01*
X75566609Y-49814157D01*
X75367882Y-49928892D01*
X75185838Y-50068581D01*
X75023581Y-50230838D01*
X74883892Y-50412882D01*
X74769157Y-50611609D01*
X74769150Y-50611623D01*
X74681342Y-50823612D01*
X74621953Y-51045259D01*
X74621951Y-51045270D01*
X74592000Y-51272758D01*
X65892999Y-51272758D01*
X65863048Y-51045262D01*
X65803658Y-50823613D01*
X65715846Y-50611618D01*
X65715846Y-50611617D01*
X65715844Y-50611612D01*
X65601111Y-50412888D01*
X65601108Y-50412885D01*
X65601107Y-50412882D01*
X65461418Y-50230838D01*
X65461411Y-50230830D01*
X65299170Y-50068589D01*
X65299161Y-50068581D01*
X65117117Y-49928892D01*
X64918390Y-49814157D01*
X64918376Y-49814150D01*
X64706387Y-49726342D01*
X64484738Y-49666952D01*
X64446715Y-49661946D01*
X64257241Y-49637000D01*
X64257234Y-49637000D01*
X64027766Y-49637000D01*
X64027758Y-49637000D01*
X63811215Y-49665509D01*
X63800262Y-49666952D01*
X63767099Y-49675838D01*
X63578612Y-49726342D01*
X63366623Y-49814150D01*
X63366609Y-49814157D01*
X63167882Y-49928892D01*
X62985838Y-50068581D01*
X62823581Y-50230838D01*
X62683892Y-50412882D01*
X62569157Y-50611609D01*
X62569153Y-50611618D01*
X62481343Y-50823610D01*
X62452234Y-50932244D01*
X62420140Y-50987830D01*
X62097290Y-51310682D01*
X62035970Y-51344166D01*
X62009611Y-51347000D01*
X53246456Y-51347000D01*
X53179417Y-51327315D01*
X53140917Y-51288096D01*
X53135211Y-51278845D01*
X53011155Y-51154789D01*
X53011151Y-51154786D01*
X52861837Y-51062687D01*
X52861835Y-51062686D01*
X52778565Y-51035093D01*
X52695297Y-51007501D01*
X52695295Y-51007500D01*
X52592515Y-50997000D01*
X52592508Y-50997000D01*
X50292492Y-50997000D01*
X50292484Y-50997000D01*
X50189704Y-51007500D01*
X50189703Y-51007501D01*
X50023164Y-51062686D01*
X50023162Y-51062687D01*
X49873848Y-51154786D01*
X49873844Y-51154789D01*
X49749789Y-51278844D01*
X49749786Y-51278848D01*
X49657687Y-51428162D01*
X49657686Y-51428164D01*
X49602501Y-51594703D01*
X49602500Y-51594704D01*
X49592000Y-51697484D01*
X43688000Y-51697484D01*
X43688000Y-45960206D01*
X43688118Y-45954798D01*
X43692640Y-45851213D01*
X87557000Y-45851213D01*
X87557000Y-46063786D01*
X87590253Y-46273739D01*
X87655944Y-46475914D01*
X87752451Y-46665320D01*
X87877390Y-46837286D01*
X88027713Y-46987609D01*
X88199679Y-47112548D01*
X88199681Y-47112549D01*
X88199684Y-47112551D01*
X88389088Y-47209057D01*
X88591257Y-47274746D01*
X88801213Y-47308000D01*
X88801214Y-47308000D01*
X89013786Y-47308000D01*
X89013787Y-47308000D01*
X89109228Y-47292883D01*
X89178521Y-47301837D01*
X89216307Y-47327675D01*
X102964681Y-61076048D01*
X102998166Y-61137371D01*
X103001000Y-61163729D01*
X103001000Y-77919598D01*
X102991561Y-77967050D01*
X102932764Y-78108998D01*
X102932761Y-78109010D01*
X102902000Y-78263653D01*
X102902000Y-78421346D01*
X102932761Y-78575989D01*
X102932764Y-78576001D01*
X102993102Y-78721672D01*
X102993109Y-78721685D01*
X103080710Y-78852788D01*
X103080713Y-78852792D01*
X103192207Y-78964286D01*
X103192211Y-78964289D01*
X103323314Y-79051890D01*
X103323327Y-79051897D01*
X103468998Y-79112235D01*
X103469003Y-79112237D01*
X103568358Y-79132000D01*
X103602191Y-79138730D01*
X103664102Y-79171115D01*
X103698676Y-79231830D01*
X103702000Y-79260347D01*
X103702000Y-80380557D01*
X103682315Y-80447596D01*
X103681102Y-80449448D01*
X103645109Y-80503314D01*
X103645102Y-80503327D01*
X103584764Y-80648998D01*
X103584761Y-80649010D01*
X103554000Y-80803653D01*
X103554000Y-80961346D01*
X103584761Y-81115989D01*
X103584764Y-81116001D01*
X103645102Y-81261672D01*
X103645109Y-81261685D01*
X103732710Y-81392788D01*
X103732713Y-81392792D01*
X103844207Y-81504286D01*
X103844211Y-81504289D01*
X103975314Y-81591890D01*
X103975327Y-81591897D01*
X104120998Y-81652235D01*
X104121003Y-81652237D01*
X104275653Y-81682999D01*
X104275656Y-81683000D01*
X104275658Y-81683000D01*
X104279000Y-81683000D01*
X104280687Y-81683495D01*
X104281718Y-81683597D01*
X104281698Y-81683792D01*
X104346039Y-81702685D01*
X104391794Y-81755489D01*
X104403000Y-81807000D01*
X104403000Y-82999598D01*
X104393561Y-83047050D01*
X104334764Y-83188998D01*
X104334761Y-83189010D01*
X104304000Y-83343653D01*
X104304000Y-83501346D01*
X104334761Y-83655989D01*
X104334764Y-83656001D01*
X104395102Y-83801672D01*
X104395109Y-83801685D01*
X104482710Y-83932788D01*
X104482713Y-83932792D01*
X104594207Y-84044286D01*
X104594211Y-84044289D01*
X104725314Y-84131890D01*
X104725327Y-84131897D01*
X104870998Y-84192235D01*
X104871003Y-84192237D01*
X104981487Y-84214213D01*
X105004191Y-84218730D01*
X105066102Y-84251115D01*
X105100676Y-84311830D01*
X105104000Y-84340347D01*
X105104000Y-84965269D01*
X105095355Y-84994708D01*
X105088832Y-85024696D01*
X105085077Y-85029711D01*
X105084315Y-85032308D01*
X105067681Y-85052951D01*
X104959134Y-85161497D01*
X104911878Y-85189824D01*
X104912130Y-85190432D01*
X104908036Y-85192127D01*
X104907462Y-85192472D01*
X104906500Y-85192763D01*
X104760827Y-85253102D01*
X104760814Y-85253109D01*
X104629711Y-85340710D01*
X104629707Y-85340713D01*
X104518213Y-85452207D01*
X104518210Y-85452211D01*
X104430609Y-85583314D01*
X104430602Y-85583327D01*
X104370264Y-85728998D01*
X104370261Y-85729010D01*
X104339500Y-85883653D01*
X104339500Y-86041346D01*
X104370261Y-86195989D01*
X104370264Y-86196001D01*
X104430602Y-86341672D01*
X104430609Y-86341685D01*
X104518210Y-86472788D01*
X104518213Y-86472792D01*
X104629707Y-86584286D01*
X104629711Y-86584289D01*
X104760814Y-86671890D01*
X104760827Y-86671897D01*
X104859821Y-86712901D01*
X104906503Y-86732237D01*
X105061153Y-86762999D01*
X105061156Y-86763000D01*
X105061158Y-86763000D01*
X105218844Y-86763000D01*
X105218845Y-86762999D01*
X105373497Y-86732237D01*
X105519179Y-86671894D01*
X105519184Y-86671890D01*
X105519187Y-86671889D01*
X105560756Y-86644113D01*
X105612110Y-86609799D01*
X105621808Y-86606762D01*
X105629489Y-86600107D01*
X105654587Y-86596498D01*
X105678785Y-86588921D01*
X105688585Y-86591609D01*
X105698647Y-86590163D01*
X105721714Y-86600697D01*
X105746165Y-86607405D01*
X105752956Y-86614965D01*
X105762203Y-86619188D01*
X105775913Y-86640521D01*
X105792856Y-86659383D01*
X105795487Y-86670980D01*
X105799977Y-86677966D01*
X105805000Y-86712901D01*
X105805000Y-86870269D01*
X105785315Y-86937308D01*
X105768681Y-86957950D01*
X104834550Y-87892080D01*
X104834544Y-87892088D01*
X104785312Y-87965768D01*
X104785313Y-87965769D01*
X104752421Y-88014996D01*
X104752412Y-88015012D01*
X104695521Y-88152360D01*
X104691991Y-88162225D01*
X104647763Y-88269001D01*
X104647760Y-88269011D01*
X104617000Y-88423653D01*
X104617000Y-88581346D01*
X104647761Y-88735989D01*
X104647764Y-88736001D01*
X104708102Y-88881672D01*
X104708109Y-88881685D01*
X104795710Y-89012788D01*
X104795713Y-89012792D01*
X104907207Y-89124286D01*
X104907211Y-89124289D01*
X105038314Y-89211890D01*
X105038327Y-89211897D01*
X105183998Y-89272235D01*
X105184003Y-89272237D01*
X105338653Y-89302999D01*
X105338656Y-89303000D01*
X105338658Y-89303000D01*
X105496344Y-89303000D01*
X105496345Y-89302999D01*
X105650997Y-89272237D01*
X105796679Y-89211894D01*
X105927789Y-89124289D01*
X106039289Y-89012789D01*
X106126894Y-88881679D01*
X106187237Y-88735997D01*
X106198240Y-88680679D01*
X106207005Y-88663923D01*
X106211025Y-88645445D01*
X106229767Y-88620408D01*
X106230624Y-88618771D01*
X106232176Y-88617191D01*
X106294319Y-88555048D01*
X106355642Y-88521563D01*
X106425334Y-88526547D01*
X106481267Y-88568419D01*
X106505684Y-88633883D01*
X106506000Y-88642729D01*
X106506000Y-88841270D01*
X106486315Y-88908309D01*
X106469681Y-88928951D01*
X105192951Y-90205681D01*
X105131628Y-90239166D01*
X105105270Y-90242000D01*
X105061155Y-90242000D01*
X104906510Y-90272761D01*
X104906498Y-90272764D01*
X104760827Y-90333102D01*
X104760814Y-90333109D01*
X104629711Y-90420710D01*
X104629707Y-90420713D01*
X104518213Y-90532207D01*
X104518210Y-90532211D01*
X104430609Y-90663314D01*
X104430602Y-90663327D01*
X104370264Y-90808998D01*
X104370261Y-90809010D01*
X104339500Y-90963653D01*
X104339500Y-91121346D01*
X104370261Y-91275989D01*
X104370264Y-91276001D01*
X104430602Y-91421672D01*
X104430609Y-91421685D01*
X104518210Y-91552788D01*
X104518213Y-91552792D01*
X104629707Y-91664286D01*
X104629711Y-91664289D01*
X104760814Y-91751890D01*
X104760827Y-91751897D01*
X104860060Y-91793000D01*
X104906503Y-91812237D01*
X105061153Y-91842999D01*
X105061156Y-91843000D01*
X105061158Y-91843000D01*
X105218844Y-91843000D01*
X105218845Y-91842999D01*
X105295152Y-91827820D01*
X105373488Y-91812239D01*
X105373489Y-91812238D01*
X105373497Y-91812237D01*
X105397155Y-91802437D01*
X105444604Y-91793000D01*
X105491420Y-91793000D01*
X105588962Y-91773596D01*
X105636413Y-91764158D01*
X105772995Y-91707584D01*
X105837791Y-91664289D01*
X105837794Y-91664286D01*
X105837796Y-91664286D01*
X105882201Y-91634616D01*
X105895916Y-91625452D01*
X106995319Y-90526049D01*
X107056642Y-90492564D01*
X107126334Y-90497548D01*
X107182267Y-90539420D01*
X107206684Y-90604884D01*
X107207000Y-90613730D01*
X107207000Y-91950270D01*
X107187315Y-92017309D01*
X107170681Y-92037951D01*
X106412951Y-92795681D01*
X106351628Y-92829166D01*
X106325270Y-92832000D01*
X105444604Y-92832000D01*
X105397155Y-92822562D01*
X105373497Y-92812763D01*
X105373493Y-92812762D01*
X105373488Y-92812760D01*
X105218845Y-92782000D01*
X105218842Y-92782000D01*
X105061158Y-92782000D01*
X105061155Y-92782000D01*
X104906510Y-92812761D01*
X104906498Y-92812764D01*
X104760827Y-92873102D01*
X104760814Y-92873109D01*
X104629711Y-92960710D01*
X104629707Y-92960713D01*
X104518213Y-93072207D01*
X104518210Y-93072211D01*
X104430609Y-93203314D01*
X104430602Y-93203327D01*
X104370264Y-93348998D01*
X104370261Y-93349010D01*
X104339500Y-93503653D01*
X104339500Y-93661346D01*
X104370261Y-93815989D01*
X104370264Y-93816001D01*
X104430602Y-93961672D01*
X104430609Y-93961685D01*
X104518210Y-94092788D01*
X104518213Y-94092792D01*
X104629707Y-94204286D01*
X104629711Y-94204289D01*
X104760814Y-94291890D01*
X104760827Y-94291897D01*
X104860060Y-94333000D01*
X104906503Y-94352237D01*
X105061153Y-94382999D01*
X105061156Y-94383000D01*
X105061158Y-94383000D01*
X105218844Y-94383000D01*
X105218845Y-94382999D01*
X105295152Y-94367820D01*
X105373488Y-94352239D01*
X105373489Y-94352238D01*
X105373497Y-94352237D01*
X105397155Y-94342437D01*
X105444604Y-94333000D01*
X106758770Y-94333000D01*
X106825809Y-94352685D01*
X106871564Y-94405489D01*
X106881508Y-94474647D01*
X106852483Y-94538203D01*
X106846451Y-94544681D01*
X106055451Y-95335681D01*
X105994128Y-95369166D01*
X105967770Y-95372000D01*
X105444604Y-95372000D01*
X105397155Y-95362562D01*
X105373497Y-95352763D01*
X105373493Y-95352762D01*
X105373488Y-95352760D01*
X105218845Y-95322000D01*
X105218842Y-95322000D01*
X105061158Y-95322000D01*
X105061155Y-95322000D01*
X104906510Y-95352761D01*
X104906498Y-95352764D01*
X104760827Y-95413102D01*
X104760815Y-95413109D01*
X104629712Y-95500710D01*
X104629710Y-95500712D01*
X104618208Y-95512213D01*
X104599427Y-95527625D01*
X104581590Y-95539544D01*
X104581587Y-95539546D01*
X104477047Y-95644085D01*
X104394919Y-95766998D01*
X104394912Y-95767011D01*
X104338343Y-95903582D01*
X104338340Y-95903592D01*
X104309500Y-96048579D01*
X104309500Y-96048582D01*
X104309500Y-96196418D01*
X104309500Y-96196420D01*
X104309499Y-96196420D01*
X104338340Y-96341407D01*
X104338343Y-96341417D01*
X104394912Y-96477988D01*
X104394919Y-96478001D01*
X104477048Y-96600915D01*
X104477051Y-96600919D01*
X104581578Y-96705446D01*
X104581581Y-96705448D01*
X104581584Y-96705451D01*
X104599427Y-96717373D01*
X104618216Y-96732794D01*
X104629708Y-96744287D01*
X104629711Y-96744289D01*
X104760814Y-96831890D01*
X104760827Y-96831897D01*
X104860060Y-96873000D01*
X104906503Y-96892237D01*
X105005858Y-96912000D01*
X105061153Y-96922999D01*
X105061156Y-96923000D01*
X105061158Y-96923000D01*
X105218844Y-96923000D01*
X105218845Y-96922999D01*
X105295152Y-96907820D01*
X105373488Y-96892239D01*
X105373489Y-96892238D01*
X105373497Y-96892237D01*
X105397155Y-96882437D01*
X105444604Y-96873000D01*
X106403920Y-96873000D01*
X106501462Y-96853596D01*
X106548913Y-96844158D01*
X106685495Y-96787584D01*
X106755987Y-96740483D01*
X106808416Y-96705452D01*
X109241451Y-94272416D01*
X109323584Y-94149495D01*
X109380158Y-94012913D01*
X109396107Y-93932736D01*
X109409000Y-93867920D01*
X109409000Y-91634635D01*
X117407000Y-91634635D01*
X117407000Y-94230370D01*
X117407001Y-94230376D01*
X117413408Y-94289983D01*
X117463702Y-94424828D01*
X117463706Y-94424835D01*
X117549952Y-94540044D01*
X117549955Y-94540047D01*
X117665164Y-94626293D01*
X117665171Y-94626297D01*
X117800017Y-94676591D01*
X117800016Y-94676591D01*
X117806944Y-94677335D01*
X117859627Y-94683000D01*
X120455372Y-94682999D01*
X120514983Y-94676591D01*
X120649831Y-94626296D01*
X120765046Y-94540046D01*
X120851296Y-94424831D01*
X120865805Y-94385930D01*
X120901150Y-94291167D01*
X120943021Y-94235233D01*
X121008486Y-94210816D01*
X121017332Y-94210500D01*
X144931118Y-94210500D01*
X144998157Y-94230185D01*
X145006604Y-94236124D01*
X145027211Y-94251936D01*
X145237284Y-94373222D01*
X145237285Y-94373222D01*
X145237288Y-94373224D01*
X145461400Y-94466054D01*
X145695711Y-94528838D01*
X145876086Y-94552584D01*
X145936211Y-94560500D01*
X145936212Y-94560500D01*
X146178789Y-94560500D01*
X146226888Y-94554167D01*
X146419289Y-94528838D01*
X146653600Y-94466054D01*
X146877712Y-94373224D01*
X147087789Y-94251936D01*
X147280238Y-94104265D01*
X147451765Y-93932738D01*
X147599436Y-93740289D01*
X147720724Y-93530212D01*
X147813554Y-93306100D01*
X147876338Y-93071789D01*
X147908000Y-92831288D01*
X147908000Y-92588712D01*
X147876338Y-92348211D01*
X147813554Y-92113900D01*
X147720724Y-91889788D01*
X147599436Y-91679711D01*
X147454430Y-91490735D01*
X147451766Y-91487263D01*
X147451760Y-91487256D01*
X147280243Y-91315739D01*
X147280236Y-91315733D01*
X147087793Y-91168067D01*
X147087792Y-91168066D01*
X147087789Y-91168064D01*
X146911288Y-91066161D01*
X146877714Y-91046777D01*
X146877705Y-91046773D01*
X146653604Y-90953947D01*
X146520972Y-90918408D01*
X146419289Y-90891162D01*
X146419288Y-90891161D01*
X146419285Y-90891161D01*
X146178789Y-90859500D01*
X146178788Y-90859500D01*
X145936212Y-90859500D01*
X145936211Y-90859500D01*
X145695714Y-90891161D01*
X145461395Y-90953947D01*
X145237294Y-91046773D01*
X145237284Y-91046777D01*
X145027211Y-91168063D01*
X145006604Y-91183876D01*
X144941435Y-91209070D01*
X144931118Y-91209500D01*
X120593903Y-91209500D01*
X120550570Y-91201682D01*
X120514982Y-91188408D01*
X120514983Y-91188408D01*
X120455383Y-91182001D01*
X120455381Y-91182000D01*
X120455373Y-91182000D01*
X120455364Y-91182000D01*
X117859629Y-91182000D01*
X117859623Y-91182001D01*
X117800016Y-91188408D01*
X117665171Y-91238702D01*
X117665164Y-91238706D01*
X117549955Y-91324952D01*
X117549952Y-91324955D01*
X117463706Y-91440164D01*
X117463702Y-91440171D01*
X117413408Y-91575017D01*
X117407001Y-91634616D01*
X117407000Y-91634635D01*
X109409000Y-91634635D01*
X109409000Y-86817758D01*
X119407000Y-86817758D01*
X119407000Y-87047241D01*
X119423161Y-87169990D01*
X119436952Y-87274738D01*
X119480802Y-87438390D01*
X119496342Y-87496387D01*
X119584150Y-87708376D01*
X119584157Y-87708390D01*
X119698892Y-87907117D01*
X119838581Y-88089161D01*
X119838589Y-88089170D01*
X120000830Y-88251411D01*
X120000838Y-88251418D01*
X120182882Y-88391107D01*
X120182885Y-88391108D01*
X120182888Y-88391111D01*
X120381612Y-88505844D01*
X120381617Y-88505846D01*
X120381623Y-88505849D01*
X120431593Y-88526547D01*
X120593613Y-88593658D01*
X120815262Y-88653048D01*
X121042766Y-88683000D01*
X121042773Y-88683000D01*
X121272227Y-88683000D01*
X121272234Y-88683000D01*
X121499738Y-88653048D01*
X121721387Y-88593658D01*
X121933388Y-88505844D01*
X122132112Y-88391111D01*
X122314161Y-88251419D01*
X122314165Y-88251414D01*
X122314170Y-88251411D01*
X122476411Y-88089170D01*
X122476414Y-88089165D01*
X122476419Y-88089161D01*
X122616111Y-87907112D01*
X122730844Y-87708388D01*
X122818658Y-87496387D01*
X122878048Y-87274738D01*
X122908000Y-87047234D01*
X122908000Y-86817766D01*
X122907999Y-86817758D01*
X131607000Y-86817758D01*
X131607000Y-87047241D01*
X131623161Y-87169990D01*
X131636952Y-87274738D01*
X131680802Y-87438390D01*
X131696342Y-87496387D01*
X131784150Y-87708376D01*
X131784157Y-87708390D01*
X131898892Y-87907117D01*
X132038581Y-88089161D01*
X132038589Y-88089170D01*
X132200830Y-88251411D01*
X132200838Y-88251418D01*
X132382882Y-88391107D01*
X132382885Y-88391108D01*
X132382888Y-88391111D01*
X132581612Y-88505844D01*
X132581614Y-88505844D01*
X132581618Y-88505847D01*
X132763889Y-88581346D01*
X132793613Y-88593658D01*
X132902245Y-88622765D01*
X132957831Y-88654858D01*
X133157490Y-88854517D01*
X133348566Y-88993343D01*
X133419556Y-89029514D01*
X133559003Y-89100566D01*
X133559005Y-89100566D01*
X133559008Y-89100568D01*
X133657860Y-89132687D01*
X133783631Y-89173553D01*
X134016903Y-89210500D01*
X134016908Y-89210500D01*
X134253092Y-89210500D01*
X144931118Y-89210500D01*
X144998157Y-89230185D01*
X145006604Y-89236124D01*
X145027211Y-89251936D01*
X145237284Y-89373222D01*
X145237285Y-89373222D01*
X145237288Y-89373224D01*
X145461400Y-89466054D01*
X145695711Y-89528838D01*
X145876086Y-89552584D01*
X145936211Y-89560500D01*
X145936212Y-89560500D01*
X146178789Y-89560500D01*
X146226888Y-89554167D01*
X146419289Y-89528838D01*
X146653600Y-89466054D01*
X146877712Y-89373224D01*
X147087789Y-89251936D01*
X147280238Y-89104265D01*
X147451765Y-88932738D01*
X147599436Y-88740289D01*
X147720724Y-88530212D01*
X147813554Y-88306100D01*
X147876338Y-88071789D01*
X147908000Y-87831288D01*
X147908000Y-87588712D01*
X147876338Y-87348211D01*
X147813554Y-87113900D01*
X147720724Y-86889788D01*
X147599436Y-86679711D01*
X147451765Y-86487262D01*
X147451760Y-86487256D01*
X147280243Y-86315739D01*
X147280236Y-86315733D01*
X147087793Y-86168067D01*
X147087792Y-86168066D01*
X147087789Y-86168064D01*
X146877712Y-86046776D01*
X146873427Y-86045001D01*
X146653604Y-85953947D01*
X146419285Y-85891161D01*
X146178789Y-85859500D01*
X146178788Y-85859500D01*
X145936212Y-85859500D01*
X145936211Y-85859500D01*
X145695714Y-85891161D01*
X145461395Y-85953947D01*
X145237294Y-86046773D01*
X145237284Y-86046777D01*
X145027211Y-86168063D01*
X145006604Y-86183876D01*
X144941435Y-86209070D01*
X144931118Y-86209500D01*
X135032970Y-86209500D01*
X134965931Y-86189815D01*
X134925583Y-86147500D01*
X134898267Y-86100187D01*
X134816111Y-85957888D01*
X134816108Y-85957885D01*
X134816107Y-85957882D01*
X134676418Y-85775838D01*
X134676411Y-85775830D01*
X134514170Y-85613589D01*
X134514161Y-85613581D01*
X134332117Y-85473892D01*
X134294557Y-85452207D01*
X134133388Y-85359156D01*
X134133376Y-85359150D01*
X133921387Y-85271342D01*
X133699738Y-85211952D01*
X133661715Y-85206946D01*
X133472241Y-85182000D01*
X133472234Y-85182000D01*
X133242766Y-85182000D01*
X133242758Y-85182000D01*
X133026215Y-85210509D01*
X133015262Y-85211952D01*
X132921576Y-85237054D01*
X132793612Y-85271342D01*
X132581623Y-85359150D01*
X132581609Y-85359157D01*
X132382882Y-85473892D01*
X132200838Y-85613581D01*
X132038581Y-85775838D01*
X131898892Y-85957882D01*
X131784157Y-86156609D01*
X131784150Y-86156623D01*
X131696342Y-86368612D01*
X131670337Y-86465666D01*
X131637312Y-86588921D01*
X131636953Y-86590259D01*
X131636951Y-86590270D01*
X131607000Y-86817758D01*
X122907999Y-86817758D01*
X122878048Y-86590262D01*
X122818658Y-86368613D01*
X122765110Y-86239337D01*
X122730849Y-86156623D01*
X122730846Y-86156617D01*
X122730844Y-86156612D01*
X122616111Y-85957888D01*
X122616108Y-85957885D01*
X122616107Y-85957882D01*
X122476418Y-85775838D01*
X122476411Y-85775830D01*
X122314170Y-85613589D01*
X122314161Y-85613581D01*
X122132117Y-85473892D01*
X122094557Y-85452207D01*
X121933388Y-85359156D01*
X121933376Y-85359150D01*
X121721387Y-85271342D01*
X121499738Y-85211952D01*
X121461715Y-85206946D01*
X121272241Y-85182000D01*
X121272234Y-85182000D01*
X121042766Y-85182000D01*
X121042758Y-85182000D01*
X120826215Y-85210509D01*
X120815262Y-85211952D01*
X120721576Y-85237054D01*
X120593612Y-85271342D01*
X120381623Y-85359150D01*
X120381609Y-85359157D01*
X120182882Y-85473892D01*
X120000838Y-85613581D01*
X119838581Y-85775838D01*
X119698892Y-85957882D01*
X119584157Y-86156609D01*
X119584150Y-86156623D01*
X119496342Y-86368612D01*
X119470337Y-86465666D01*
X119437312Y-86588921D01*
X119436953Y-86590259D01*
X119436951Y-86590270D01*
X119407000Y-86817758D01*
X109409000Y-86817758D01*
X109409000Y-80767758D01*
X119407000Y-80767758D01*
X119407000Y-80997241D01*
X119422636Y-81116001D01*
X119436952Y-81224738D01*
X119495920Y-81444812D01*
X119496342Y-81446387D01*
X119584150Y-81658376D01*
X119584157Y-81658390D01*
X119698892Y-81857117D01*
X119838581Y-82039161D01*
X119838589Y-82039170D01*
X120000830Y-82201411D01*
X120000838Y-82201418D01*
X120000839Y-82201419D01*
X120030197Y-82223946D01*
X120182882Y-82341107D01*
X120182885Y-82341108D01*
X120182888Y-82341111D01*
X120381612Y-82455844D01*
X120381617Y-82455846D01*
X120381623Y-82455849D01*
X120472980Y-82493690D01*
X120593613Y-82543658D01*
X120815262Y-82603048D01*
X121042766Y-82633000D01*
X121042773Y-82633000D01*
X121272227Y-82633000D01*
X121272234Y-82633000D01*
X121499738Y-82603048D01*
X121721387Y-82543658D01*
X121933388Y-82455844D01*
X122132112Y-82341111D01*
X122314161Y-82201419D01*
X122314165Y-82201414D01*
X122314170Y-82201411D01*
X122476411Y-82039170D01*
X122476414Y-82039165D01*
X122476419Y-82039161D01*
X122616111Y-81857112D01*
X122730844Y-81658388D01*
X122818658Y-81446387D01*
X122878048Y-81224738D01*
X122908000Y-80997234D01*
X122908000Y-80767766D01*
X122907999Y-80767758D01*
X131607000Y-80767758D01*
X131607000Y-80997241D01*
X131622636Y-81116001D01*
X131636952Y-81224738D01*
X131695920Y-81444812D01*
X131696342Y-81446387D01*
X131784150Y-81658376D01*
X131784157Y-81658390D01*
X131898892Y-81857117D01*
X132038581Y-82039161D01*
X132038589Y-82039170D01*
X132200830Y-82201411D01*
X132200838Y-82201418D01*
X132200839Y-82201419D01*
X132230197Y-82223946D01*
X132382882Y-82341107D01*
X132382885Y-82341108D01*
X132382888Y-82341111D01*
X132581612Y-82455844D01*
X132581617Y-82455846D01*
X132581623Y-82455849D01*
X132672980Y-82493690D01*
X132793613Y-82543658D01*
X133015262Y-82603048D01*
X133242766Y-82633000D01*
X133242773Y-82633000D01*
X133472227Y-82633000D01*
X133472234Y-82633000D01*
X133699738Y-82603048D01*
X133921387Y-82543658D01*
X134133388Y-82455844D01*
X134332112Y-82341111D01*
X134514161Y-82201419D01*
X134514165Y-82201414D01*
X134514170Y-82201411D01*
X134676411Y-82039170D01*
X134676414Y-82039165D01*
X134676419Y-82039161D01*
X134816111Y-81857112D01*
X134930844Y-81658388D01*
X134933392Y-81652238D01*
X134992102Y-81510499D01*
X135018658Y-81446387D01*
X135047764Y-81337755D01*
X135055782Y-81323868D01*
X135058708Y-81310421D01*
X135079859Y-81282167D01*
X135165210Y-81196818D01*
X135226533Y-81163333D01*
X135252890Y-81160500D01*
X144253544Y-81160500D01*
X144320583Y-81180185D01*
X144359083Y-81219404D01*
X144364788Y-81228654D01*
X144488844Y-81352710D01*
X144488848Y-81352713D01*
X144638162Y-81444812D01*
X144638164Y-81444813D01*
X144638166Y-81444814D01*
X144804703Y-81499999D01*
X144907492Y-81510500D01*
X144907497Y-81510500D01*
X147207503Y-81510500D01*
X147207508Y-81510500D01*
X147310297Y-81499999D01*
X147476834Y-81444814D01*
X147626155Y-81352711D01*
X147750211Y-81228655D01*
X147842314Y-81079334D01*
X147897499Y-80912797D01*
X147908000Y-80810008D01*
X147908000Y-78509992D01*
X147897499Y-78407203D01*
X147842314Y-78240666D01*
X147841994Y-78240148D01*
X147750213Y-78091348D01*
X147750210Y-78091344D01*
X147626155Y-77967289D01*
X147626151Y-77967286D01*
X147476837Y-77875187D01*
X147476835Y-77875186D01*
X147380536Y-77843276D01*
X147310297Y-77820001D01*
X147310295Y-77820000D01*
X147207515Y-77809500D01*
X147207508Y-77809500D01*
X144907492Y-77809500D01*
X144907484Y-77809500D01*
X144804704Y-77820000D01*
X144804703Y-77820001D01*
X144638164Y-77875186D01*
X144638162Y-77875187D01*
X144488848Y-77967286D01*
X144488844Y-77967289D01*
X144364788Y-78091345D01*
X144359083Y-78100596D01*
X144307136Y-78147321D01*
X144253544Y-78159500D01*
X134461903Y-78159500D01*
X134228631Y-78196446D01*
X134004003Y-78269433D01*
X133793565Y-78376657D01*
X133602488Y-78515484D01*
X133602487Y-78515485D01*
X132957831Y-79160140D01*
X132902244Y-79192234D01*
X132793612Y-79221342D01*
X132581618Y-79309153D01*
X132581609Y-79309157D01*
X132382882Y-79423892D01*
X132200838Y-79563581D01*
X132038581Y-79725838D01*
X131898892Y-79907882D01*
X131784157Y-80106609D01*
X131784150Y-80106623D01*
X131696342Y-80318612D01*
X131679595Y-80381113D01*
X131661782Y-80447596D01*
X131636953Y-80540259D01*
X131636951Y-80540270D01*
X131607000Y-80767758D01*
X122907999Y-80767758D01*
X122878048Y-80540262D01*
X122818658Y-80318613D01*
X122756737Y-80169123D01*
X122730849Y-80106623D01*
X122730846Y-80106617D01*
X122730844Y-80106612D01*
X122616111Y-79907888D01*
X122616108Y-79907885D01*
X122616107Y-79907882D01*
X122476418Y-79725838D01*
X122476411Y-79725830D01*
X122314170Y-79563589D01*
X122314161Y-79563581D01*
X122132117Y-79423892D01*
X121933390Y-79309157D01*
X121933376Y-79309150D01*
X121721387Y-79221342D01*
X121499738Y-79161952D01*
X121461715Y-79156946D01*
X121272241Y-79132000D01*
X121272234Y-79132000D01*
X121042766Y-79132000D01*
X121042758Y-79132000D01*
X120829025Y-79160140D01*
X120815262Y-79161952D01*
X120781065Y-79171115D01*
X120593612Y-79221342D01*
X120381623Y-79309150D01*
X120381609Y-79309157D01*
X120182882Y-79423892D01*
X120000838Y-79563581D01*
X119838581Y-79725838D01*
X119698892Y-79907882D01*
X119584157Y-80106609D01*
X119584150Y-80106623D01*
X119496342Y-80318612D01*
X119479595Y-80381113D01*
X119461782Y-80447596D01*
X119436953Y-80540259D01*
X119436951Y-80540270D01*
X119407000Y-80767758D01*
X109409000Y-80767758D01*
X109409000Y-73584635D01*
X117407000Y-73584635D01*
X117407000Y-76180370D01*
X117407001Y-76180376D01*
X117413408Y-76239983D01*
X117463702Y-76374828D01*
X117463706Y-76374835D01*
X117549952Y-76490044D01*
X117549955Y-76490047D01*
X117665164Y-76576293D01*
X117665171Y-76576297D01*
X117800017Y-76626591D01*
X117800016Y-76626591D01*
X117806944Y-76627335D01*
X117859627Y-76633000D01*
X120455372Y-76632999D01*
X120514983Y-76626591D01*
X120649831Y-76576296D01*
X120765046Y-76490046D01*
X120851296Y-76374831D01*
X120859509Y-76352809D01*
X120901150Y-76241167D01*
X120943021Y-76185233D01*
X121008486Y-76160816D01*
X121017332Y-76160500D01*
X144931118Y-76160500D01*
X144998157Y-76180185D01*
X145006604Y-76186124D01*
X145027211Y-76201936D01*
X145237284Y-76323222D01*
X145237285Y-76323222D01*
X145237288Y-76323224D01*
X145461400Y-76416054D01*
X145695711Y-76478838D01*
X145876086Y-76502584D01*
X145936211Y-76510500D01*
X145936212Y-76510500D01*
X146178789Y-76510500D01*
X146226888Y-76504167D01*
X146419289Y-76478838D01*
X146653600Y-76416054D01*
X146877712Y-76323224D01*
X147087789Y-76201936D01*
X147280238Y-76054265D01*
X147451765Y-75882738D01*
X147599436Y-75690289D01*
X147720724Y-75480212D01*
X147813554Y-75256100D01*
X147876338Y-75021789D01*
X147908000Y-74781288D01*
X147908000Y-74538712D01*
X147876338Y-74298211D01*
X147813554Y-74063900D01*
X147720724Y-73839788D01*
X147599436Y-73629711D01*
X147463587Y-73452669D01*
X147451766Y-73437263D01*
X147451760Y-73437256D01*
X147280243Y-73265739D01*
X147280236Y-73265733D01*
X147087793Y-73118067D01*
X147087792Y-73118066D01*
X147087789Y-73118064D01*
X146877712Y-72996776D01*
X146877705Y-72996773D01*
X146653604Y-72903947D01*
X146419285Y-72841161D01*
X146178789Y-72809500D01*
X146178788Y-72809500D01*
X145936212Y-72809500D01*
X145936211Y-72809500D01*
X145695714Y-72841161D01*
X145461395Y-72903947D01*
X145237294Y-72996773D01*
X145237284Y-72996777D01*
X145027211Y-73118063D01*
X145006604Y-73133876D01*
X144941435Y-73159070D01*
X144931118Y-73159500D01*
X120593903Y-73159500D01*
X120550570Y-73151682D01*
X120514982Y-73138408D01*
X120514983Y-73138408D01*
X120455383Y-73132001D01*
X120455381Y-73132000D01*
X120455373Y-73132000D01*
X120455364Y-73132000D01*
X117859629Y-73132000D01*
X117859623Y-73132001D01*
X117800016Y-73138408D01*
X117665171Y-73188702D01*
X117665164Y-73188706D01*
X117549955Y-73274952D01*
X117549952Y-73274955D01*
X117463706Y-73390164D01*
X117463702Y-73390171D01*
X117413408Y-73525017D01*
X117407001Y-73584616D01*
X117407000Y-73584635D01*
X109409000Y-73584635D01*
X109409000Y-68767758D01*
X119407000Y-68767758D01*
X119407000Y-68997241D01*
X119431946Y-69186715D01*
X119436952Y-69224738D01*
X119456639Y-69298211D01*
X119496342Y-69446387D01*
X119584150Y-69658376D01*
X119584157Y-69658390D01*
X119698892Y-69857117D01*
X119838581Y-70039161D01*
X119838589Y-70039170D01*
X120000830Y-70201411D01*
X120000838Y-70201418D01*
X120182882Y-70341107D01*
X120182885Y-70341108D01*
X120182888Y-70341111D01*
X120381612Y-70455844D01*
X120381617Y-70455846D01*
X120381623Y-70455849D01*
X120440424Y-70480205D01*
X120593613Y-70543658D01*
X120815262Y-70603048D01*
X121042766Y-70633000D01*
X121042773Y-70633000D01*
X121272227Y-70633000D01*
X121272234Y-70633000D01*
X121499738Y-70603048D01*
X121721387Y-70543658D01*
X121933388Y-70455844D01*
X122132112Y-70341111D01*
X122314161Y-70201419D01*
X122314165Y-70201414D01*
X122314170Y-70201411D01*
X122476411Y-70039170D01*
X122476414Y-70039165D01*
X122476419Y-70039161D01*
X122616111Y-69857112D01*
X122730844Y-69658388D01*
X122818658Y-69446387D01*
X122878048Y-69224738D01*
X122908000Y-68997234D01*
X122908000Y-68767766D01*
X122907999Y-68767758D01*
X131607000Y-68767758D01*
X131607000Y-68997241D01*
X131631946Y-69186715D01*
X131636952Y-69224738D01*
X131656639Y-69298211D01*
X131696342Y-69446387D01*
X131784150Y-69658376D01*
X131784157Y-69658390D01*
X131898892Y-69857117D01*
X132038581Y-70039161D01*
X132038589Y-70039170D01*
X132200830Y-70201411D01*
X132200838Y-70201418D01*
X132382882Y-70341107D01*
X132382885Y-70341108D01*
X132382888Y-70341111D01*
X132581612Y-70455844D01*
X132581614Y-70455844D01*
X132581618Y-70455847D01*
X132793603Y-70543654D01*
X132793613Y-70543658D01*
X132902245Y-70572765D01*
X132957831Y-70604858D01*
X133157490Y-70804517D01*
X133348566Y-70943343D01*
X133447992Y-70994003D01*
X133559003Y-71050566D01*
X133559005Y-71050566D01*
X133559008Y-71050568D01*
X133679412Y-71089689D01*
X133783631Y-71123553D01*
X134016903Y-71160500D01*
X134016908Y-71160500D01*
X134253092Y-71160500D01*
X144931118Y-71160500D01*
X144998157Y-71180185D01*
X145006604Y-71186124D01*
X145027211Y-71201936D01*
X145237284Y-71323222D01*
X145237285Y-71323222D01*
X145237288Y-71323224D01*
X145461400Y-71416054D01*
X145695711Y-71478838D01*
X145876086Y-71502584D01*
X145936211Y-71510500D01*
X145936212Y-71510500D01*
X146178789Y-71510500D01*
X146226888Y-71504167D01*
X146419289Y-71478838D01*
X146653600Y-71416054D01*
X146877712Y-71323224D01*
X147087789Y-71201936D01*
X147280238Y-71054265D01*
X147451765Y-70882738D01*
X147599436Y-70690289D01*
X147720724Y-70480212D01*
X147813554Y-70256100D01*
X147876338Y-70021789D01*
X147908000Y-69781288D01*
X147908000Y-69538712D01*
X147876338Y-69298211D01*
X147813554Y-69063900D01*
X147811825Y-69059727D01*
X147751755Y-68914704D01*
X147720724Y-68839788D01*
X147599436Y-68629711D01*
X147492036Y-68489744D01*
X147451766Y-68437263D01*
X147451760Y-68437256D01*
X147280243Y-68265739D01*
X147280236Y-68265733D01*
X147087793Y-68118067D01*
X147087792Y-68118066D01*
X147087789Y-68118064D01*
X146877712Y-67996776D01*
X146814006Y-67970388D01*
X146653604Y-67903947D01*
X146419285Y-67841161D01*
X146178789Y-67809500D01*
X146178788Y-67809500D01*
X145936212Y-67809500D01*
X145936211Y-67809500D01*
X145695714Y-67841161D01*
X145461395Y-67903947D01*
X145237294Y-67996773D01*
X145237284Y-67996777D01*
X145027211Y-68118063D01*
X145006604Y-68133876D01*
X144941435Y-68159070D01*
X144931118Y-68159500D01*
X135032970Y-68159500D01*
X134965931Y-68139815D01*
X134925583Y-68097500D01*
X134867430Y-67996776D01*
X134816111Y-67907888D01*
X134816108Y-67907885D01*
X134816107Y-67907882D01*
X134676418Y-67725838D01*
X134676411Y-67725830D01*
X134514170Y-67563589D01*
X134514161Y-67563581D01*
X134332117Y-67423892D01*
X134133390Y-67309157D01*
X134133376Y-67309150D01*
X133921387Y-67221342D01*
X133699738Y-67161952D01*
X133661715Y-67156946D01*
X133472241Y-67132000D01*
X133472234Y-67132000D01*
X133242766Y-67132000D01*
X133242758Y-67132000D01*
X133026215Y-67160509D01*
X133015262Y-67161952D01*
X132921576Y-67187054D01*
X132793612Y-67221342D01*
X132581623Y-67309150D01*
X132581609Y-67309157D01*
X132382882Y-67423892D01*
X132200838Y-67563581D01*
X132038581Y-67725838D01*
X131898892Y-67907882D01*
X131784157Y-68106609D01*
X131784150Y-68106623D01*
X131696342Y-68318612D01*
X131664552Y-68437256D01*
X131646768Y-68503630D01*
X131636953Y-68540259D01*
X131636951Y-68540270D01*
X131607000Y-68767758D01*
X122907999Y-68767758D01*
X122878048Y-68540262D01*
X122818658Y-68318613D01*
X122756735Y-68169118D01*
X122730849Y-68106623D01*
X122730846Y-68106617D01*
X122730844Y-68106612D01*
X122616111Y-67907888D01*
X122616108Y-67907885D01*
X122616107Y-67907882D01*
X122476418Y-67725838D01*
X122476411Y-67725830D01*
X122314170Y-67563589D01*
X122314161Y-67563581D01*
X122132117Y-67423892D01*
X121933390Y-67309157D01*
X121933376Y-67309150D01*
X121721387Y-67221342D01*
X121499738Y-67161952D01*
X121461715Y-67156946D01*
X121272241Y-67132000D01*
X121272234Y-67132000D01*
X121042766Y-67132000D01*
X121042758Y-67132000D01*
X120826215Y-67160509D01*
X120815262Y-67161952D01*
X120721576Y-67187054D01*
X120593612Y-67221342D01*
X120381623Y-67309150D01*
X120381609Y-67309157D01*
X120182882Y-67423892D01*
X120000838Y-67563581D01*
X119838581Y-67725838D01*
X119698892Y-67907882D01*
X119584157Y-68106609D01*
X119584150Y-68106623D01*
X119496342Y-68318612D01*
X119464552Y-68437256D01*
X119446768Y-68503630D01*
X119436953Y-68540259D01*
X119436951Y-68540270D01*
X119407000Y-68767758D01*
X109409000Y-68767758D01*
X109409000Y-62717758D01*
X119407000Y-62717758D01*
X119407000Y-62947241D01*
X119428495Y-63110500D01*
X119436952Y-63174738D01*
X119495920Y-63394812D01*
X119496342Y-63396387D01*
X119584150Y-63608376D01*
X119584157Y-63608390D01*
X119698892Y-63807117D01*
X119838581Y-63989161D01*
X119838589Y-63989170D01*
X120000830Y-64151411D01*
X120000838Y-64151418D01*
X120182882Y-64291107D01*
X120182885Y-64291108D01*
X120182888Y-64291111D01*
X120381612Y-64405844D01*
X120381617Y-64405846D01*
X120381623Y-64405849D01*
X120472980Y-64443690D01*
X120593613Y-64493658D01*
X120815262Y-64553048D01*
X121042766Y-64583000D01*
X121042773Y-64583000D01*
X121272227Y-64583000D01*
X121272234Y-64583000D01*
X121499738Y-64553048D01*
X121721387Y-64493658D01*
X121933388Y-64405844D01*
X122132112Y-64291111D01*
X122314161Y-64151419D01*
X122314165Y-64151414D01*
X122314170Y-64151411D01*
X122476411Y-63989170D01*
X122476414Y-63989165D01*
X122476419Y-63989161D01*
X122616111Y-63807112D01*
X122730844Y-63608388D01*
X122818658Y-63396387D01*
X122878048Y-63174738D01*
X122908000Y-62947234D01*
X122908000Y-62717766D01*
X122907999Y-62717758D01*
X131607000Y-62717758D01*
X131607000Y-62947241D01*
X131628495Y-63110500D01*
X131636952Y-63174738D01*
X131695920Y-63394812D01*
X131696342Y-63396387D01*
X131784150Y-63608376D01*
X131784157Y-63608390D01*
X131898892Y-63807117D01*
X132038581Y-63989161D01*
X132038589Y-63989170D01*
X132200830Y-64151411D01*
X132200838Y-64151418D01*
X132382882Y-64291107D01*
X132382885Y-64291108D01*
X132382888Y-64291111D01*
X132581612Y-64405844D01*
X132581617Y-64405846D01*
X132581623Y-64405849D01*
X132672980Y-64443690D01*
X132793613Y-64493658D01*
X133015262Y-64553048D01*
X133242766Y-64583000D01*
X133242773Y-64583000D01*
X133472227Y-64583000D01*
X133472234Y-64583000D01*
X133699738Y-64553048D01*
X133921387Y-64493658D01*
X134133388Y-64405844D01*
X134332112Y-64291111D01*
X134514161Y-64151419D01*
X134514165Y-64151414D01*
X134514170Y-64151411D01*
X134676411Y-63989170D01*
X134676414Y-63989165D01*
X134676419Y-63989161D01*
X134816111Y-63807112D01*
X134930844Y-63608388D01*
X135018658Y-63396387D01*
X135047764Y-63287755D01*
X135055782Y-63273868D01*
X135058708Y-63260421D01*
X135079859Y-63232167D01*
X135165210Y-63146818D01*
X135226533Y-63113333D01*
X135252890Y-63110500D01*
X144253544Y-63110500D01*
X144320583Y-63130185D01*
X144359083Y-63169404D01*
X144364788Y-63178654D01*
X144488844Y-63302710D01*
X144488848Y-63302713D01*
X144638162Y-63394812D01*
X144638164Y-63394813D01*
X144638166Y-63394814D01*
X144804703Y-63449999D01*
X144907492Y-63460500D01*
X144907497Y-63460500D01*
X147207503Y-63460500D01*
X147207508Y-63460500D01*
X147310297Y-63449999D01*
X147476834Y-63394814D01*
X147626155Y-63302711D01*
X147750211Y-63178655D01*
X147842314Y-63029334D01*
X147897499Y-62862797D01*
X147908000Y-62760008D01*
X147908000Y-60459992D01*
X147897499Y-60357203D01*
X147842314Y-60190666D01*
X147815039Y-60146447D01*
X147750213Y-60041348D01*
X147750210Y-60041344D01*
X147626155Y-59917289D01*
X147626151Y-59917286D01*
X147476837Y-59825187D01*
X147476835Y-59825186D01*
X147393565Y-59797593D01*
X147310297Y-59770001D01*
X147310295Y-59770000D01*
X147207515Y-59759500D01*
X147207508Y-59759500D01*
X144907492Y-59759500D01*
X144907484Y-59759500D01*
X144804704Y-59770000D01*
X144804703Y-59770001D01*
X144638164Y-59825186D01*
X144638162Y-59825187D01*
X144488848Y-59917286D01*
X144488844Y-59917289D01*
X144364788Y-60041345D01*
X144359083Y-60050596D01*
X144307136Y-60097321D01*
X144253544Y-60109500D01*
X134461903Y-60109500D01*
X134228631Y-60146446D01*
X134004003Y-60219433D01*
X133793565Y-60326657D01*
X133602488Y-60465484D01*
X133602487Y-60465485D01*
X132957831Y-61110140D01*
X132902244Y-61142234D01*
X132793612Y-61171342D01*
X132581618Y-61259153D01*
X132581609Y-61259157D01*
X132382882Y-61373892D01*
X132200838Y-61513581D01*
X132038581Y-61675838D01*
X131898892Y-61857882D01*
X131784157Y-62056609D01*
X131784150Y-62056623D01*
X131696342Y-62268612D01*
X131696342Y-62268613D01*
X131638172Y-62485711D01*
X131636953Y-62490259D01*
X131636951Y-62490270D01*
X131607000Y-62717758D01*
X122907999Y-62717758D01*
X122878048Y-62490262D01*
X122818658Y-62268613D01*
X122730844Y-62056612D01*
X122616111Y-61857888D01*
X122616108Y-61857885D01*
X122616107Y-61857882D01*
X122476418Y-61675838D01*
X122476411Y-61675830D01*
X122314170Y-61513589D01*
X122314161Y-61513581D01*
X122132117Y-61373892D01*
X121933390Y-61259157D01*
X121933376Y-61259150D01*
X121721387Y-61171342D01*
X121499738Y-61111952D01*
X121461715Y-61106946D01*
X121272241Y-61082000D01*
X121272234Y-61082000D01*
X121042766Y-61082000D01*
X121042758Y-61082000D01*
X120829025Y-61110140D01*
X120815262Y-61111952D01*
X120734339Y-61133635D01*
X120593612Y-61171342D01*
X120381623Y-61259150D01*
X120381609Y-61259157D01*
X120182882Y-61373892D01*
X120000838Y-61513581D01*
X119838581Y-61675838D01*
X119698892Y-61857882D01*
X119584157Y-62056609D01*
X119584150Y-62056623D01*
X119496342Y-62268612D01*
X119496342Y-62268613D01*
X119438172Y-62485711D01*
X119436953Y-62490259D01*
X119436951Y-62490270D01*
X119407000Y-62717758D01*
X109409000Y-62717758D01*
X109409000Y-55534635D01*
X117407000Y-55534635D01*
X117407000Y-58130370D01*
X117407001Y-58130376D01*
X117413408Y-58189983D01*
X117463702Y-58324828D01*
X117463706Y-58324835D01*
X117549952Y-58440044D01*
X117549955Y-58440047D01*
X117665164Y-58526293D01*
X117665171Y-58526297D01*
X117800017Y-58576591D01*
X117800016Y-58576591D01*
X117806944Y-58577335D01*
X117859627Y-58583000D01*
X120455372Y-58582999D01*
X120514983Y-58576591D01*
X120649831Y-58526296D01*
X120765046Y-58440046D01*
X120851296Y-58324831D01*
X120859509Y-58302809D01*
X120901150Y-58191167D01*
X120943021Y-58135233D01*
X121008486Y-58110816D01*
X121017332Y-58110500D01*
X144931118Y-58110500D01*
X144998157Y-58130185D01*
X145006604Y-58136124D01*
X145027211Y-58151936D01*
X145237284Y-58273222D01*
X145237285Y-58273222D01*
X145237288Y-58273224D01*
X145461400Y-58366054D01*
X145695711Y-58428838D01*
X145876086Y-58452584D01*
X145936211Y-58460500D01*
X145936212Y-58460500D01*
X146178789Y-58460500D01*
X146226888Y-58454167D01*
X146419289Y-58428838D01*
X146653600Y-58366054D01*
X146877712Y-58273224D01*
X147087789Y-58151936D01*
X147280238Y-58004265D01*
X147451765Y-57832738D01*
X147599436Y-57640289D01*
X147720724Y-57430212D01*
X147813554Y-57206100D01*
X147876338Y-56971789D01*
X147908000Y-56731288D01*
X147908000Y-56488712D01*
X147903329Y-56453235D01*
X147900084Y-56428586D01*
X147876338Y-56248211D01*
X147813554Y-56013900D01*
X147720724Y-55789788D01*
X147599436Y-55579711D01*
X147451765Y-55387262D01*
X147451760Y-55387256D01*
X147280243Y-55215739D01*
X147280236Y-55215733D01*
X147087793Y-55068067D01*
X147087792Y-55068066D01*
X147087789Y-55068064D01*
X146877712Y-54946776D01*
X146877705Y-54946773D01*
X146653604Y-54853947D01*
X146419285Y-54791161D01*
X146178789Y-54759500D01*
X146178788Y-54759500D01*
X145936212Y-54759500D01*
X145936211Y-54759500D01*
X145695714Y-54791161D01*
X145461395Y-54853947D01*
X145237294Y-54946773D01*
X145237284Y-54946777D01*
X145027211Y-55068063D01*
X145006604Y-55083876D01*
X144941435Y-55109070D01*
X144931118Y-55109500D01*
X120593903Y-55109500D01*
X120550570Y-55101682D01*
X120514982Y-55088408D01*
X120514983Y-55088408D01*
X120455383Y-55082001D01*
X120455381Y-55082000D01*
X120455373Y-55082000D01*
X120455364Y-55082000D01*
X117859629Y-55082000D01*
X117859623Y-55082001D01*
X117800016Y-55088408D01*
X117665171Y-55138702D01*
X117665164Y-55138706D01*
X117549955Y-55224952D01*
X117549952Y-55224955D01*
X117463706Y-55340164D01*
X117463702Y-55340171D01*
X117413408Y-55475017D01*
X117407001Y-55534616D01*
X117407000Y-55534635D01*
X109409000Y-55534635D01*
X109409000Y-50717758D01*
X119407000Y-50717758D01*
X119407000Y-50947241D01*
X119422200Y-51062687D01*
X119436952Y-51174738D01*
X119482350Y-51344166D01*
X119496342Y-51396387D01*
X119584150Y-51608376D01*
X119584157Y-51608390D01*
X119698892Y-51807117D01*
X119838581Y-51989161D01*
X119838589Y-51989170D01*
X120000830Y-52151411D01*
X120000838Y-52151418D01*
X120182882Y-52291107D01*
X120182885Y-52291108D01*
X120182888Y-52291111D01*
X120381612Y-52405844D01*
X120381617Y-52405846D01*
X120381623Y-52405849D01*
X120440424Y-52430205D01*
X120593613Y-52493658D01*
X120815262Y-52553048D01*
X121042766Y-52583000D01*
X121042773Y-52583000D01*
X121272227Y-52583000D01*
X121272234Y-52583000D01*
X121499738Y-52553048D01*
X121721387Y-52493658D01*
X121933388Y-52405844D01*
X122132112Y-52291111D01*
X122314161Y-52151419D01*
X122314165Y-52151414D01*
X122314170Y-52151411D01*
X122476411Y-51989170D01*
X122476414Y-51989165D01*
X122476419Y-51989161D01*
X122616111Y-51807112D01*
X122730844Y-51608388D01*
X122818658Y-51396387D01*
X122878048Y-51174738D01*
X122908000Y-50947234D01*
X122908000Y-50717766D01*
X122907999Y-50717758D01*
X131607000Y-50717758D01*
X131607000Y-50947241D01*
X131622200Y-51062687D01*
X131636952Y-51174738D01*
X131682350Y-51344166D01*
X131696342Y-51396387D01*
X131784150Y-51608376D01*
X131784157Y-51608390D01*
X131898892Y-51807117D01*
X132038581Y-51989161D01*
X132038589Y-51989170D01*
X132200830Y-52151411D01*
X132200838Y-52151418D01*
X132382882Y-52291107D01*
X132382885Y-52291108D01*
X132382888Y-52291111D01*
X132581612Y-52405844D01*
X132581614Y-52405844D01*
X132581618Y-52405847D01*
X132793603Y-52493654D01*
X132793613Y-52493658D01*
X132902245Y-52522765D01*
X132957831Y-52554858D01*
X133157490Y-52754517D01*
X133265148Y-52832736D01*
X133348567Y-52893344D01*
X133420929Y-52930213D01*
X133493292Y-52967084D01*
X133559003Y-53000566D01*
X133559005Y-53000566D01*
X133559008Y-53000568D01*
X133679412Y-53039689D01*
X133783631Y-53073553D01*
X134016903Y-53110500D01*
X134016908Y-53110500D01*
X144931118Y-53110500D01*
X144998157Y-53130185D01*
X145006604Y-53136124D01*
X145027211Y-53151936D01*
X145237284Y-53273222D01*
X145237285Y-53273222D01*
X145237288Y-53273224D01*
X145461400Y-53366054D01*
X145695711Y-53428838D01*
X145876086Y-53452584D01*
X145936211Y-53460500D01*
X145936212Y-53460500D01*
X146178789Y-53460500D01*
X146226888Y-53454167D01*
X146419289Y-53428838D01*
X146653600Y-53366054D01*
X146877712Y-53273224D01*
X147087789Y-53151936D01*
X147280238Y-53004265D01*
X147451765Y-52832738D01*
X147599436Y-52640289D01*
X147720724Y-52430212D01*
X147813554Y-52206100D01*
X147876338Y-51971789D01*
X147908000Y-51731288D01*
X147908000Y-51488712D01*
X147876338Y-51248211D01*
X147813554Y-51013900D01*
X147810903Y-51007501D01*
X147779731Y-50932244D01*
X147720724Y-50789788D01*
X147599436Y-50579711D01*
X147530797Y-50490259D01*
X147451766Y-50387263D01*
X147451760Y-50387256D01*
X147280243Y-50215739D01*
X147280236Y-50215733D01*
X147087793Y-50068067D01*
X147087792Y-50068066D01*
X147087789Y-50068064D01*
X146877712Y-49946776D01*
X146877705Y-49946773D01*
X146653604Y-49853947D01*
X146419285Y-49791161D01*
X146178789Y-49759500D01*
X146178788Y-49759500D01*
X145936212Y-49759500D01*
X145936211Y-49759500D01*
X145695714Y-49791161D01*
X145461395Y-49853947D01*
X145237294Y-49946773D01*
X145237284Y-49946777D01*
X145027211Y-50068063D01*
X145006604Y-50083876D01*
X144941435Y-50109070D01*
X144931118Y-50109500D01*
X135032970Y-50109500D01*
X134965931Y-50089815D01*
X134925583Y-50047500D01*
X134867430Y-49946776D01*
X134816111Y-49857888D01*
X134816108Y-49857885D01*
X134816107Y-49857882D01*
X134676418Y-49675838D01*
X134676411Y-49675830D01*
X134514170Y-49513589D01*
X134514161Y-49513581D01*
X134332117Y-49373892D01*
X134133390Y-49259157D01*
X134133376Y-49259150D01*
X133921387Y-49171342D01*
X133699738Y-49111952D01*
X133661715Y-49106946D01*
X133472241Y-49082000D01*
X133472234Y-49082000D01*
X133242766Y-49082000D01*
X133242758Y-49082000D01*
X133026215Y-49110509D01*
X133015262Y-49111952D01*
X132921576Y-49137054D01*
X132793612Y-49171342D01*
X132581623Y-49259150D01*
X132581609Y-49259157D01*
X132382882Y-49373892D01*
X132200838Y-49513581D01*
X132038581Y-49675838D01*
X131898892Y-49857882D01*
X131784157Y-50056609D01*
X131784150Y-50056623D01*
X131696342Y-50268612D01*
X131636953Y-50490259D01*
X131636951Y-50490270D01*
X131607000Y-50717758D01*
X122907999Y-50717758D01*
X122878048Y-50490262D01*
X122818658Y-50268613D01*
X122742137Y-50083876D01*
X122730849Y-50056623D01*
X122730846Y-50056617D01*
X122730844Y-50056612D01*
X122616111Y-49857888D01*
X122616108Y-49857885D01*
X122616107Y-49857882D01*
X122476418Y-49675838D01*
X122476411Y-49675830D01*
X122314170Y-49513589D01*
X122314161Y-49513581D01*
X122132117Y-49373892D01*
X121933390Y-49259157D01*
X121933376Y-49259150D01*
X121721387Y-49171342D01*
X121499738Y-49111952D01*
X121461715Y-49106946D01*
X121272241Y-49082000D01*
X121272234Y-49082000D01*
X121042766Y-49082000D01*
X121042758Y-49082000D01*
X120826215Y-49110509D01*
X120815262Y-49111952D01*
X120721576Y-49137054D01*
X120593612Y-49171342D01*
X120381623Y-49259150D01*
X120381609Y-49259157D01*
X120182882Y-49373892D01*
X120000838Y-49513581D01*
X119838581Y-49675838D01*
X119698892Y-49857882D01*
X119584157Y-50056609D01*
X119584150Y-50056623D01*
X119496342Y-50268612D01*
X119436953Y-50490259D01*
X119436951Y-50490270D01*
X119407000Y-50717758D01*
X109409000Y-50717758D01*
X109409000Y-46942079D01*
X109380159Y-46797092D01*
X109380158Y-46797091D01*
X109380158Y-46797087D01*
X109380156Y-46797082D01*
X109323586Y-46660509D01*
X109323585Y-46660507D01*
X109290686Y-46611270D01*
X109290685Y-46611268D01*
X109241456Y-46537589D01*
X109241452Y-46537584D01*
X108074318Y-45370449D01*
X108040833Y-45309126D01*
X108037999Y-45282768D01*
X108037999Y-45059629D01*
X108037998Y-45059623D01*
X108031591Y-45000016D01*
X107981297Y-44865171D01*
X107981293Y-44865164D01*
X107895047Y-44749955D01*
X107895044Y-44749952D01*
X107779835Y-44663706D01*
X107779828Y-44663702D01*
X107644982Y-44613408D01*
X107644983Y-44613408D01*
X107585383Y-44607001D01*
X107585381Y-44607000D01*
X107585373Y-44607000D01*
X107585364Y-44607000D01*
X105789629Y-44607000D01*
X105789623Y-44607001D01*
X105730016Y-44613408D01*
X105595171Y-44663702D01*
X105595164Y-44663706D01*
X105479955Y-44749952D01*
X105479952Y-44749955D01*
X105393706Y-44865164D01*
X105393703Y-44865169D01*
X105344689Y-44996583D01*
X105302817Y-45052516D01*
X105237353Y-45076933D01*
X105169080Y-45062081D01*
X105140826Y-45040930D01*
X105027286Y-44927390D01*
X104855320Y-44802451D01*
X104665914Y-44705944D01*
X104665913Y-44705943D01*
X104665912Y-44705943D01*
X104463743Y-44640254D01*
X104463741Y-44640253D01*
X104463740Y-44640253D01*
X104302457Y-44614708D01*
X104253787Y-44607000D01*
X104041213Y-44607000D01*
X103992542Y-44614708D01*
X103831260Y-44640253D01*
X103629085Y-44705944D01*
X103439679Y-44802451D01*
X103267713Y-44927390D01*
X103117390Y-45077713D01*
X102992449Y-45249682D01*
X102987984Y-45258446D01*
X102940009Y-45309242D01*
X102872188Y-45326036D01*
X102806053Y-45303498D01*
X102767016Y-45258446D01*
X102762550Y-45249682D01*
X102637609Y-45077713D01*
X102487286Y-44927390D01*
X102315320Y-44802451D01*
X102125914Y-44705944D01*
X102125913Y-44705943D01*
X102125912Y-44705943D01*
X101923743Y-44640254D01*
X101923741Y-44640253D01*
X101923740Y-44640253D01*
X101762457Y-44614708D01*
X101713787Y-44607000D01*
X101501213Y-44607000D01*
X101452542Y-44614708D01*
X101291260Y-44640253D01*
X101089085Y-44705944D01*
X100899679Y-44802451D01*
X100727713Y-44927390D01*
X100577390Y-45077713D01*
X100452449Y-45249682D01*
X100447984Y-45258446D01*
X100400009Y-45309242D01*
X100332188Y-45326036D01*
X100266053Y-45303498D01*
X100227016Y-45258446D01*
X100222550Y-45249682D01*
X100097609Y-45077713D01*
X99947286Y-44927390D01*
X99775320Y-44802451D01*
X99585914Y-44705944D01*
X99585913Y-44705943D01*
X99585912Y-44705943D01*
X99383743Y-44640254D01*
X99383741Y-44640253D01*
X99383740Y-44640253D01*
X99222457Y-44614708D01*
X99173787Y-44607000D01*
X98961213Y-44607000D01*
X98912542Y-44614708D01*
X98751260Y-44640253D01*
X98549085Y-44705944D01*
X98359679Y-44802451D01*
X98187713Y-44927390D01*
X98037390Y-45077713D01*
X97912449Y-45249682D01*
X97907984Y-45258446D01*
X97860009Y-45309242D01*
X97792188Y-45326036D01*
X97726053Y-45303498D01*
X97687016Y-45258446D01*
X97682550Y-45249682D01*
X97557609Y-45077713D01*
X97407286Y-44927390D01*
X97235320Y-44802451D01*
X97045914Y-44705944D01*
X97045913Y-44705943D01*
X97045912Y-44705943D01*
X96843743Y-44640254D01*
X96843741Y-44640253D01*
X96843740Y-44640253D01*
X96682457Y-44614708D01*
X96633787Y-44607000D01*
X96421213Y-44607000D01*
X96372542Y-44614708D01*
X96211260Y-44640253D01*
X96009085Y-44705944D01*
X95819679Y-44802451D01*
X95647713Y-44927390D01*
X95497390Y-45077713D01*
X95372449Y-45249682D01*
X95367984Y-45258446D01*
X95320009Y-45309242D01*
X95252188Y-45326036D01*
X95186053Y-45303498D01*
X95147016Y-45258446D01*
X95142550Y-45249682D01*
X95017609Y-45077713D01*
X94867286Y-44927390D01*
X94695320Y-44802451D01*
X94505914Y-44705944D01*
X94505913Y-44705943D01*
X94505912Y-44705943D01*
X94303743Y-44640254D01*
X94303741Y-44640253D01*
X94303740Y-44640253D01*
X94142457Y-44614708D01*
X94093787Y-44607000D01*
X93881213Y-44607000D01*
X93832542Y-44614708D01*
X93671260Y-44640253D01*
X93469085Y-44705944D01*
X93279679Y-44802451D01*
X93107713Y-44927390D01*
X92957390Y-45077713D01*
X92832449Y-45249682D01*
X92827984Y-45258446D01*
X92780009Y-45309242D01*
X92712188Y-45326036D01*
X92646053Y-45303498D01*
X92607016Y-45258446D01*
X92602550Y-45249682D01*
X92477609Y-45077713D01*
X92327286Y-44927390D01*
X92155320Y-44802451D01*
X91965914Y-44705944D01*
X91965913Y-44705943D01*
X91965912Y-44705943D01*
X91763743Y-44640254D01*
X91763741Y-44640253D01*
X91763740Y-44640253D01*
X91602457Y-44614708D01*
X91553787Y-44607000D01*
X91341213Y-44607000D01*
X91292542Y-44614708D01*
X91131260Y-44640253D01*
X90929085Y-44705944D01*
X90739679Y-44802451D01*
X90567713Y-44927390D01*
X90417390Y-45077713D01*
X90292449Y-45249682D01*
X90287984Y-45258446D01*
X90240009Y-45309242D01*
X90172188Y-45326036D01*
X90106053Y-45303498D01*
X90067016Y-45258446D01*
X90062550Y-45249682D01*
X89937609Y-45077713D01*
X89787286Y-44927390D01*
X89615320Y-44802451D01*
X89425914Y-44705944D01*
X89425913Y-44705943D01*
X89425912Y-44705943D01*
X89223743Y-44640254D01*
X89223741Y-44640253D01*
X89223740Y-44640253D01*
X89062457Y-44614708D01*
X89013787Y-44607000D01*
X88801213Y-44607000D01*
X88752542Y-44614708D01*
X88591260Y-44640253D01*
X88389085Y-44705944D01*
X88199679Y-44802451D01*
X88027713Y-44927390D01*
X87877390Y-45077713D01*
X87752451Y-45249679D01*
X87655944Y-45439085D01*
X87590253Y-45641260D01*
X87557000Y-45851213D01*
X43692640Y-45851213D01*
X43693089Y-45840933D01*
X43705190Y-45563755D01*
X43706129Y-45553024D01*
X43756867Y-45167637D01*
X43758740Y-45157010D01*
X43842875Y-44777504D01*
X43845666Y-44767089D01*
X43962557Y-44396357D01*
X43966241Y-44386236D01*
X44114998Y-44027103D01*
X44119556Y-44017329D01*
X44299040Y-43672545D01*
X44304435Y-43663200D01*
X44513293Y-43335358D01*
X44519483Y-43326518D01*
X44756112Y-43018137D01*
X44763050Y-43009868D01*
X45025657Y-42723283D01*
X45033283Y-42715657D01*
X45319868Y-42453050D01*
X45328137Y-42446112D01*
X45636518Y-42209483D01*
X45645358Y-42203293D01*
X45973200Y-41994435D01*
X45982545Y-41989040D01*
X46327329Y-41809556D01*
X46337103Y-41804998D01*
X46696236Y-41656241D01*
X46706357Y-41652557D01*
X47077089Y-41535666D01*
X47087504Y-41532875D01*
X47467010Y-41448740D01*
X47477637Y-41446867D01*
X47863024Y-41396129D01*
X47873755Y-41395190D01*
X48252276Y-41378664D01*
X48264798Y-41378118D01*
X48270206Y-41378000D01*
X48333392Y-41378000D01*
X149801608Y-41378000D01*
X149864794Y-41378000D01*
X149870202Y-41378118D01*
G37*
%TD.AperFunction*%
%TD*%
M02*
