M48
; DRILL file {KiCad 9.0.2} date 2025-12-18T22:37:54+0530
; FORMAT={-:-/ absolute / metric / decimal}
; #@! TF.CreationDate,2025-12-18T22:37:54+05:30
; #@! TF.GenerationSoftware,Kicad,Pcbnew,9.0.2
; #@! TF.FileFunction,Plated,1,2,PTH
FMAT,2
METRIC
; #@! TA.AperFunction,Plated,PTH,ViaDrill
T1C0.300
; #@! TA.AperFunction,Plated,PTH,ComponentDrill
T2C0.500
; #@! TA.AperFunction,Plated,PTH,ComponentDrill
T3C0.800
; #@! TA.AperFunction,Plated,PTH,ComponentDrill
T4C1.000
; #@! TA.AperFunction,Plated,PTH,ComponentDrill
T5C1.300
; #@! TA.AperFunction,Plated,PTH,ComponentDrill
T6C1.700
; #@! TA.AperFunction,Plated,PTH,ComponentDrill
T7C2.500
%
G90
G05
T1
X92.082Y-72.627
X100.337Y-108.188
X103.703Y-78.343
X104.355Y-80.882
X105.105Y-83.422
X105.14Y-85.962
X105.14Y-91.042
X105.14Y-93.582
X105.14Y-96.123
X105.417Y-88.502
X109.505Y-78.343
X109.505Y-80.882
X109.505Y-83.422
X109.505Y-85.962
X109.505Y-88.502
X109.505Y-91.042
X109.505Y-93.582
X109.505Y-96.123
T2
X46.337Y-46.013
X46.339Y-122.157
X46.886Y-44.688
X46.886Y-47.339
X46.888Y-120.832
X46.888Y-123.483
X48.212Y-44.138
X48.212Y-47.888
X48.214Y-120.282
X48.214Y-124.032
X49.537Y-44.688
X49.537Y-47.339
X49.54Y-120.832
X49.54Y-123.483
X50.087Y-46.013
X50.089Y-122.157
X147.937Y-45.292
X148.048Y-123.483
X148.486Y-43.967
X148.486Y-46.618
X148.597Y-122.157
X148.597Y-124.809
X149.812Y-43.417
X149.812Y-47.167
X149.923Y-121.608
X149.923Y-125.358
X151.137Y-43.967
X151.137Y-46.618
X151.249Y-122.157
X151.249Y-124.809
X151.687Y-45.292
X151.798Y-123.483
T3
X90.812Y-75.802
X90.812Y-78.343
X90.812Y-80.882
X90.812Y-83.422
X90.812Y-85.962
X90.812Y-88.502
X90.812Y-91.042
X90.812Y-93.582
X90.812Y-96.123
X98.432Y-75.802
X98.432Y-78.343
X98.432Y-80.882
X98.432Y-83.422
X98.432Y-85.962
X98.432Y-88.502
X98.432Y-91.042
X98.432Y-93.582
X98.432Y-96.123
T4
X88.907Y-45.957
X91.447Y-45.957
X93.987Y-45.957
X96.527Y-45.957
X99.067Y-45.957
X101.608Y-45.957
X104.147Y-45.957
X106.688Y-45.957
T5
X64.139Y-68.945
X64.139Y-80.945
X64.142Y-51.387
X64.142Y-63.387
X64.142Y-86.662
X64.142Y-98.662
X64.285Y-104.727
X64.285Y-116.727
X76.339Y-68.945
X76.339Y-80.945
X76.343Y-51.387
X76.343Y-63.387
X76.343Y-86.662
X76.343Y-98.662
X76.485Y-104.727
X76.485Y-116.727
X78.339Y-74.945
X78.343Y-57.387
X78.343Y-92.662
X78.485Y-110.727
X119.157Y-56.832
X119.157Y-74.882
X119.157Y-92.932
X119.157Y-110.983
X121.157Y-50.832
X121.157Y-62.832
X121.157Y-68.882
X121.157Y-80.882
X121.157Y-86.932
X121.157Y-98.932
X121.157Y-104.983
X121.157Y-116.983
X133.357Y-50.832
X133.357Y-62.832
X133.357Y-68.882
X133.357Y-80.882
X133.357Y-86.932
X133.357Y-98.932
X133.357Y-104.983
X133.357Y-116.983
T6
X51.439Y-70.167
X51.439Y-75.167
X51.439Y-80.167
X51.442Y-52.847
X51.442Y-57.847
X51.442Y-62.847
X51.442Y-87.885
X51.442Y-92.885
X51.442Y-97.885
X51.585Y-105.95
X51.585Y-110.95
X51.585Y-115.95
X96.79Y-118.983
X101.79Y-118.983
X146.058Y-51.61
X146.058Y-56.61
X146.058Y-61.61
X146.058Y-69.66
X146.058Y-74.66
X146.058Y-79.66
X146.058Y-87.71
X146.058Y-92.71
X146.058Y-97.71
X146.058Y-106.037
X146.058Y-111.037
X146.058Y-116.037
T7
X48.212Y-46.013
X48.214Y-122.157
X149.812Y-45.292
X149.923Y-123.483
M30
