%TF.GenerationSoftware,KiCad,Pcbnew,9.0.2*%
%TF.CreationDate,2025-12-18T22:35:54+05:30*%
%TF.ProjectId,ULN2803 Relay Card_Module,554c4e32-3830-4332-9052-656c61792043,rev?*%
%TF.SameCoordinates,Original*%
%TF.FileFunction,Soldermask,Top*%
%TF.FilePolarity,Negative*%
%FSLAX46Y46*%
G04 Gerber Fmt 4.6, Leading zero omitted, Abs format (unit mm)*
G04 Created by KiCad (PCBNEW 9.0.2) date 2025-12-18 22:35:54*
%MOMM*%
%LPD*%
G01*
G04 APERTURE LIST*
G04 Aperture macros list*
%AMRoundRect*
0 Rectangle with rounded corners*
0 $1 Rounding radius*
0 $2 $3 $4 $5 $6 $7 $8 $9 X,Y pos of 4 corners*
0 Add a 4 corners polygon primitive as box body*
4,1,4,$2,$3,$4,$5,$6,$7,$8,$9,$2,$3,0*
0 Add four circle primitives for the rounded corners*
1,1,$1+$1,$2,$3*
1,1,$1+$1,$4,$5*
1,1,$1+$1,$6,$7*
1,1,$1+$1,$8,$9*
0 Add four rect primitives between the rounded corners*
20,1,$1+$1,$2,$3,$4,$5,0*
20,1,$1+$1,$4,$5,$6,$7,0*
20,1,$1+$1,$6,$7,$8,$9,0*
20,1,$1+$1,$8,$9,$2,$3,0*%
G04 Aperture macros list end*
%ADD10C,0.800000*%
%ADD11C,5.000000*%
%ADD12RoundRect,0.250000X0.262500X0.450000X-0.262500X0.450000X-0.262500X-0.450000X0.262500X-0.450000X0*%
%ADD13R,2.500000X2.500000*%
%ADD14O,2.500000X2.500000*%
%ADD15RoundRect,0.250000X-0.625000X0.375000X-0.625000X-0.375000X0.625000X-0.375000X0.625000X0.375000X0*%
%ADD16RoundRect,0.250001X-1.099999X1.099999X-1.099999X-1.099999X1.099999X-1.099999X1.099999X1.099999X0*%
%ADD17C,2.700000*%
%ADD18RoundRect,0.250000X0.625000X-0.375000X0.625000X0.375000X-0.625000X0.375000X-0.625000X-0.375000X0*%
%ADD19RoundRect,0.250000X-0.262500X-0.450000X0.262500X-0.450000X0.262500X0.450000X-0.262500X0.450000X0*%
%ADD20RoundRect,0.250000X-0.450000X0.262500X-0.450000X-0.262500X0.450000X-0.262500X0.450000X0.262500X0*%
%ADD21RoundRect,0.250000X-0.250000X-0.475000X0.250000X-0.475000X0.250000X0.475000X-0.250000X0.475000X0*%
%ADD22R,1.700000X1.700000*%
%ADD23C,1.700000*%
%ADD24RoundRect,0.250001X1.099999X-1.099999X1.099999X1.099999X-1.099999X1.099999X-1.099999X-1.099999X0*%
%ADD25RoundRect,0.250000X0.450000X-0.262500X0.450000X0.262500X-0.450000X0.262500X-0.450000X-0.262500X0*%
%ADD26RoundRect,0.250000X0.250000X0.475000X-0.250000X0.475000X-0.250000X-0.475000X0.250000X-0.475000X0*%
%ADD27RoundRect,0.250000X-0.830000X-0.310000X0.830000X-0.310000X0.830000X0.310000X-0.830000X0.310000X0*%
%ADD28RoundRect,0.250000X0.950000X0.550000X-0.950000X0.550000X-0.950000X-0.550000X0.950000X-0.550000X0*%
%ADD29O,2.400000X1.600000*%
%ADD30RoundRect,0.250001X-1.099999X-1.099999X1.099999X-1.099999X1.099999X1.099999X-1.099999X1.099999X0*%
G04 APERTURE END LIST*
D10*
%TO.C,H1*%
X46336675Y-46013325D03*
X46885850Y-44687500D03*
X46885850Y-47339150D03*
X48211675Y-44138325D03*
D11*
X48211675Y-46013325D03*
D10*
X48211675Y-47888325D03*
X49537500Y-44687500D03*
X49537500Y-47339150D03*
X50086675Y-46013325D03*
%TD*%
D12*
%TO.C,R11*%
X103155000Y-93582500D03*
X101330000Y-93582500D03*
%TD*%
%TO.C,R16*%
X103155000Y-80882500D03*
X101330000Y-80882500D03*
%TD*%
D13*
%TO.C,K2*%
X119157500Y-92932500D03*
D14*
X121157500Y-98932500D03*
X133357500Y-98932500D03*
X133357500Y-86932500D03*
X121157500Y-86932500D03*
%TD*%
D15*
%TO.C,D2*%
X84047500Y-85282500D03*
X84047500Y-88082500D03*
%TD*%
D16*
%TO.C,J3*%
X51442500Y-87885000D03*
D17*
X51442500Y-92885000D03*
X51442500Y-97885000D03*
%TD*%
D18*
%TO.C,D11*%
X113672500Y-100312500D03*
X113672500Y-97512500D03*
%TD*%
D16*
%TO.C,J5*%
X51438750Y-70167500D03*
D17*
X51438750Y-75167500D03*
X51438750Y-80167500D03*
%TD*%
D15*
%TO.C,D15*%
X84047500Y-50007500D03*
X84047500Y-52807500D03*
%TD*%
D12*
%TO.C,R10*%
X103155000Y-96122500D03*
X101330000Y-96122500D03*
%TD*%
D19*
%TO.C,R6*%
X105140000Y-85962500D03*
X106965000Y-85962500D03*
%TD*%
D12*
%TO.C,R14*%
X103155000Y-85962500D03*
X101330000Y-85962500D03*
%TD*%
D13*
%TO.C,K5*%
X78342500Y-57387500D03*
D14*
X76342500Y-51387500D03*
X64142500Y-51387500D03*
X64142500Y-63387500D03*
X76342500Y-63387500D03*
%TD*%
D20*
%TO.C,R23*%
X113672500Y-67970000D03*
X113672500Y-69795000D03*
%TD*%
D18*
%TO.C,D13*%
X113672500Y-82262500D03*
X113672500Y-79462500D03*
%TD*%
D19*
%TO.C,R2*%
X105140000Y-96122500D03*
X106965000Y-96122500D03*
%TD*%
D18*
%TO.C,D12*%
X113672500Y-76262500D03*
X113672500Y-73462500D03*
%TD*%
D19*
%TO.C,R9*%
X105140000Y-78342500D03*
X106965000Y-78342500D03*
%TD*%
D21*
%TO.C,C2*%
X90370500Y-72627500D03*
X92270500Y-72627500D03*
%TD*%
D19*
%TO.C,R7*%
X105140000Y-83422500D03*
X106965000Y-83422500D03*
%TD*%
D10*
%TO.C,H4*%
X148048325Y-123483325D03*
X148597500Y-122157500D03*
X148597500Y-124809150D03*
X149923325Y-121608325D03*
D11*
X149923325Y-123483325D03*
D10*
X149923325Y-125358325D03*
X151249150Y-122157500D03*
X151249150Y-124809150D03*
X151798325Y-123483325D03*
%TD*%
D19*
%TO.C,R8*%
X105140000Y-80882500D03*
X106965000Y-80882500D03*
%TD*%
D20*
%TO.C,R22*%
X113672500Y-86020000D03*
X113672500Y-87845000D03*
%TD*%
D12*
%TO.C,R1*%
X102820000Y-103107500D03*
X100995000Y-103107500D03*
%TD*%
D13*
%TO.C,K1*%
X119157500Y-110982500D03*
D14*
X121157500Y-116982500D03*
X133357500Y-116982500D03*
X133357500Y-104982500D03*
X121157500Y-104982500D03*
%TD*%
D20*
%TO.C,R21*%
X113672500Y-104100000D03*
X113672500Y-105925000D03*
%TD*%
D18*
%TO.C,D1*%
X98695000Y-106282500D03*
X98695000Y-103482500D03*
%TD*%
%TO.C,D5*%
X113672500Y-64212500D03*
X113672500Y-61412500D03*
%TD*%
D22*
%TO.C,J2*%
X106687500Y-45957500D03*
D23*
X104147500Y-45957500D03*
X101607500Y-45957500D03*
X99067500Y-45957500D03*
X96527500Y-45957500D03*
X93987500Y-45957500D03*
X91447500Y-45957500D03*
X88907500Y-45957500D03*
%TD*%
D13*
%TO.C,K4*%
X119157500Y-56832500D03*
D14*
X121157500Y-62832500D03*
X133357500Y-62832500D03*
X133357500Y-50832500D03*
X121157500Y-50832500D03*
%TD*%
D24*
%TO.C,J4*%
X146057500Y-61610000D03*
D17*
X146057500Y-56610000D03*
X146057500Y-51610000D03*
%TD*%
D25*
%TO.C,R18*%
X84047500Y-99575000D03*
X84047500Y-97750000D03*
%TD*%
D10*
%TO.C,H2*%
X147936675Y-45292500D03*
X148485850Y-43966675D03*
X148485850Y-46618325D03*
X149811675Y-43417500D03*
D11*
X149811675Y-45292500D03*
D10*
X149811675Y-47167500D03*
X151137500Y-43966675D03*
X151137500Y-46618325D03*
X151686675Y-45292500D03*
%TD*%
D24*
%TO.C,J7*%
X146057500Y-97710000D03*
D17*
X146057500Y-92710000D03*
X146057500Y-87710000D03*
%TD*%
D25*
%TO.C,R24*%
X84047500Y-64300000D03*
X84047500Y-62475000D03*
%TD*%
D20*
%TO.C,R19*%
X113672500Y-49920000D03*
X113672500Y-51745000D03*
%TD*%
D15*
%TO.C,D16*%
X84190000Y-109347500D03*
X84190000Y-112147500D03*
%TD*%
D18*
%TO.C,D10*%
X113672500Y-94312500D03*
X113672500Y-91512500D03*
%TD*%
D16*
%TO.C,J10*%
X51585000Y-105950000D03*
D17*
X51585000Y-110950000D03*
X51585000Y-115950000D03*
%TD*%
D15*
%TO.C,D3*%
X84047500Y-91282500D03*
X84047500Y-94082500D03*
%TD*%
D12*
%TO.C,R15*%
X103155000Y-83422500D03*
X101330000Y-83422500D03*
%TD*%
%TO.C,R12*%
X103155000Y-91042500D03*
X101330000Y-91042500D03*
%TD*%
D26*
%TO.C,C1*%
X102820000Y-106282500D03*
X100920000Y-106282500D03*
%TD*%
D15*
%TO.C,D17*%
X84190000Y-103347500D03*
X84190000Y-106147500D03*
%TD*%
D19*
%TO.C,R4*%
X105140000Y-91042500D03*
X106965000Y-91042500D03*
%TD*%
D13*
%TO.C,K7*%
X78342500Y-92662500D03*
D14*
X76342500Y-86662500D03*
X64142500Y-86662500D03*
X64142500Y-98662500D03*
X76342500Y-98662500D03*
%TD*%
D15*
%TO.C,D14*%
X84047500Y-56007500D03*
X84047500Y-58807500D03*
%TD*%
D19*
%TO.C,R3*%
X105140000Y-93582500D03*
X106965000Y-93582500D03*
%TD*%
D27*
%TO.C,SW1*%
X95702500Y-111362500D03*
X102432500Y-111362500D03*
%TD*%
D10*
%TO.C,H3*%
X46338750Y-122157500D03*
X46887925Y-120831675D03*
X46887925Y-123483325D03*
X48213750Y-120282500D03*
D11*
X48213750Y-122157500D03*
D10*
X48213750Y-124032500D03*
X49539575Y-120831675D03*
X49539575Y-123483325D03*
X50088750Y-122157500D03*
%TD*%
D13*
%TO.C,K8*%
X78338750Y-74945000D03*
D14*
X76338750Y-68945000D03*
X64138750Y-68945000D03*
X64138750Y-80945000D03*
X76338750Y-80945000D03*
%TD*%
D19*
%TO.C,R5*%
X105140000Y-88502500D03*
X106965000Y-88502500D03*
%TD*%
D18*
%TO.C,D8*%
X113672500Y-112362500D03*
X113672500Y-109562500D03*
%TD*%
D13*
%TO.C,K3*%
X119157500Y-74882500D03*
D14*
X121157500Y-80882500D03*
X133357500Y-80882500D03*
X133357500Y-68882500D03*
X121157500Y-68882500D03*
%TD*%
D18*
%TO.C,D9*%
X113672500Y-118362500D03*
X113672500Y-115562500D03*
%TD*%
D25*
%TO.C,R25*%
X84190000Y-117917500D03*
X84190000Y-116092500D03*
%TD*%
D12*
%TO.C,R17*%
X103155000Y-78342500D03*
X101330000Y-78342500D03*
%TD*%
D28*
%TO.C,U1*%
X98432500Y-96122500D03*
D29*
X98432500Y-93582500D03*
X98432500Y-91042500D03*
X98432500Y-88502500D03*
X98432500Y-85962500D03*
X98432500Y-83422500D03*
X98432500Y-80882500D03*
X98432500Y-78342500D03*
X98432500Y-75802500D03*
X90812500Y-75802500D03*
X90812500Y-78342500D03*
X90812500Y-80882500D03*
X90812500Y-83422500D03*
X90812500Y-85962500D03*
X90812500Y-88502500D03*
X90812500Y-91042500D03*
X90812500Y-93582500D03*
X90812500Y-96122500D03*
%TD*%
D13*
%TO.C,K6*%
X78485000Y-110727500D03*
D14*
X76485000Y-104727500D03*
X64285000Y-104727500D03*
X64285000Y-116727500D03*
X76485000Y-116727500D03*
%TD*%
D30*
%TO.C,J1*%
X96790000Y-118982500D03*
D17*
X101790000Y-118982500D03*
%TD*%
D18*
%TO.C,D4*%
X113672500Y-58212500D03*
X113672500Y-55412500D03*
%TD*%
D24*
%TO.C,J6*%
X146057500Y-116037500D03*
D17*
X146057500Y-111037500D03*
X146057500Y-106037500D03*
%TD*%
D24*
%TO.C,J8*%
X146057500Y-79660000D03*
D17*
X146057500Y-74660000D03*
X146057500Y-69660000D03*
%TD*%
D16*
%TO.C,J9*%
X51442500Y-52847500D03*
D17*
X51442500Y-57847500D03*
X51442500Y-62847500D03*
%TD*%
D12*
%TO.C,R13*%
X103155000Y-88502500D03*
X101330000Y-88502500D03*
%TD*%
D25*
%TO.C,R20*%
X84043750Y-81857500D03*
X84043750Y-80032500D03*
%TD*%
D15*
%TO.C,D6*%
X84043750Y-73565000D03*
X84043750Y-76365000D03*
%TD*%
%TO.C,D7*%
X84043750Y-67565000D03*
X84043750Y-70365000D03*
%TD*%
M02*
